%TF.GenerationSoftware,KiCad,Pcbnew,(6.0.10)*%
%TF.CreationDate,2023-01-14T14:38:52-05:00*%
%TF.ProjectId,AS5600-Breakout,41533536-3030-42d4-9272-65616b6f7574,rev?*%
%TF.SameCoordinates,Original*%
%TF.FileFunction,Copper,L1,Top*%
%TF.FilePolarity,Positive*%
%FSLAX46Y46*%
G04 Gerber Fmt 4.6, Leading zero omitted, Abs format (unit mm)*
G04 Created by KiCad (PCBNEW (6.0.10)) date 2023-01-14 14:38:52*
%MOMM*%
%LPD*%
G01*
G04 APERTURE LIST*
G04 Aperture macros list*
%AMRoundRect*
0 Rectangle with rounded corners*
0 $1 Rounding radius*
0 $2 $3 $4 $5 $6 $7 $8 $9 X,Y pos of 4 corners*
0 Add a 4 corners polygon primitive as box body*
4,1,4,$2,$3,$4,$5,$6,$7,$8,$9,$2,$3,0*
0 Add four circle primitives for the rounded corners*
1,1,$1+$1,$2,$3*
1,1,$1+$1,$4,$5*
1,1,$1+$1,$6,$7*
1,1,$1+$1,$8,$9*
0 Add four rect primitives between the rounded corners*
20,1,$1+$1,$2,$3,$4,$5,0*
20,1,$1+$1,$4,$5,$6,$7,0*
20,1,$1+$1,$6,$7,$8,$9,0*
20,1,$1+$1,$8,$9,$2,$3,0*%
G04 Aperture macros list end*
%TA.AperFunction,SMDPad,CuDef*%
%ADD10RoundRect,0.250000X-0.250000X-0.475000X0.250000X-0.475000X0.250000X0.475000X-0.250000X0.475000X0*%
%TD*%
%TA.AperFunction,SMDPad,CuDef*%
%ADD11RoundRect,0.218750X0.218750X0.256250X-0.218750X0.256250X-0.218750X-0.256250X0.218750X-0.256250X0*%
%TD*%
%TA.AperFunction,SMDPad,CuDef*%
%ADD12R,0.600000X1.400000*%
%TD*%
%TA.AperFunction,SMDPad,CuDef*%
%ADD13RoundRect,0.150000X-0.625000X0.150000X-0.625000X-0.150000X0.625000X-0.150000X0.625000X0.150000X0*%
%TD*%
%TA.AperFunction,SMDPad,CuDef*%
%ADD14RoundRect,0.250000X-0.650000X0.350000X-0.650000X-0.350000X0.650000X-0.350000X0.650000X0.350000X0*%
%TD*%
%TA.AperFunction,SMDPad,CuDef*%
%ADD15RoundRect,0.200000X0.275000X-0.200000X0.275000X0.200000X-0.275000X0.200000X-0.275000X-0.200000X0*%
%TD*%
%TA.AperFunction,SMDPad,CuDef*%
%ADD16RoundRect,0.150000X0.625000X-0.150000X0.625000X0.150000X-0.625000X0.150000X-0.625000X-0.150000X0*%
%TD*%
%TA.AperFunction,SMDPad,CuDef*%
%ADD17RoundRect,0.250000X0.650000X-0.350000X0.650000X0.350000X-0.650000X0.350000X-0.650000X-0.350000X0*%
%TD*%
%TA.AperFunction,SMDPad,CuDef*%
%ADD18RoundRect,0.250000X0.250000X0.475000X-0.250000X0.475000X-0.250000X-0.475000X0.250000X-0.475000X0*%
%TD*%
%TA.AperFunction,ComponentPad*%
%ADD19R,1.700000X1.700000*%
%TD*%
%TA.AperFunction,ComponentPad*%
%ADD20O,1.700000X1.700000*%
%TD*%
%TA.AperFunction,SMDPad,CuDef*%
%ADD21RoundRect,0.200000X-0.200000X-0.275000X0.200000X-0.275000X0.200000X0.275000X-0.200000X0.275000X0*%
%TD*%
%TA.AperFunction,SMDPad,CuDef*%
%ADD22RoundRect,0.150000X-0.150000X0.587500X-0.150000X-0.587500X0.150000X-0.587500X0.150000X0.587500X0*%
%TD*%
%TA.AperFunction,SMDPad,CuDef*%
%ADD23RoundRect,0.150000X-0.150000X0.512500X-0.150000X-0.512500X0.150000X-0.512500X0.150000X0.512500X0*%
%TD*%
%TA.AperFunction,ViaPad*%
%ADD24C,0.800000*%
%TD*%
%TA.AperFunction,Conductor*%
%ADD25C,0.250000*%
%TD*%
G04 APERTURE END LIST*
D10*
%TO.P,C3,1*%
%TO.N,3.3V*%
X126238000Y-89916000D03*
%TO.P,C3,2*%
%TO.N,GND*%
X128138000Y-89916000D03*
%TD*%
D11*
%TO.P,D1,1,K*%
%TO.N,GND*%
X131369000Y-89662000D03*
%TO.P,D1,2,A*%
%TO.N,Net-(D1-Pad2)*%
X129794000Y-89662000D03*
%TD*%
D12*
%TO.P,U2,1,VDD5V*%
%TO.N,5V*%
X122555000Y-87790000D03*
%TO.P,U2,2,VDD3V3*%
%TO.N,3.3V*%
X123825000Y-87790000D03*
%TO.P,U2,3,OUT*%
%TO.N,OUT*%
X125095000Y-87790000D03*
%TO.P,U2,4,GND*%
%TO.N,GND*%
X126365000Y-87790000D03*
%TO.P,U2,5,PGO*%
%TO.N,PGO*%
X126365000Y-82390000D03*
%TO.P,U2,6,SDA*%
%TO.N,SDA_3v*%
X125095000Y-82390000D03*
%TO.P,U2,7,SCL*%
%TO.N,SCL_3v*%
X123825000Y-82390000D03*
%TO.P,U2,8,DIR*%
%TO.N,DIR*%
X122555000Y-82390000D03*
%TD*%
D13*
%TO.P,J4,1,Pin_1*%
%TO.N,GND*%
X116840000Y-83590000D03*
%TO.P,J4,2,Pin_2*%
%TO.N,VCC*%
X116840000Y-84590000D03*
%TO.P,J4,3,Pin_3*%
%TO.N,SDA*%
X116840000Y-85590000D03*
%TO.P,J4,4,Pin_4*%
%TO.N,SCL*%
X116840000Y-86590000D03*
D14*
%TO.P,J4,MP*%
%TO.N,N/C*%
X112965000Y-82290000D03*
X112965000Y-87890000D03*
%TD*%
D15*
%TO.P,R2,1*%
%TO.N,VCC*%
X129840000Y-85724000D03*
%TO.P,R2,2*%
%TO.N,SDA*%
X129840000Y-84074000D03*
%TD*%
D16*
%TO.P,J3,1,Pin_1*%
%TO.N,GND*%
X132080000Y-86590000D03*
%TO.P,J3,2,Pin_2*%
%TO.N,VCC*%
X132080000Y-85590000D03*
%TO.P,J3,3,Pin_3*%
%TO.N,SDA*%
X132080000Y-84590000D03*
%TO.P,J3,4,Pin_4*%
%TO.N,SCL*%
X132080000Y-83590000D03*
D17*
%TO.P,J3,MP*%
%TO.N,N/C*%
X135955000Y-82290000D03*
X135955000Y-87890000D03*
%TD*%
D10*
%TO.P,C2,1*%
%TO.N,3.3V*%
X122814000Y-90170000D03*
%TO.P,C2,2*%
%TO.N,GND*%
X124714000Y-90170000D03*
%TD*%
D18*
%TO.P,C1,1*%
%TO.N,VCC*%
X120696000Y-90170000D03*
%TO.P,C1,2*%
%TO.N,GND*%
X118796000Y-90170000D03*
%TD*%
D19*
%TO.P,J2,1,Pin_1*%
%TO.N,PGO*%
X128270000Y-78105000D03*
D20*
%TO.P,J2,2,Pin_2*%
%TO.N,SDA_3v*%
X125730000Y-78105000D03*
%TO.P,J2,3,Pin_3*%
%TO.N,SCL_3v*%
X123190000Y-78105000D03*
%TO.P,J2,4,Pin_4*%
%TO.N,DIR*%
X120650000Y-78105000D03*
%TD*%
D21*
%TO.P,R1,1*%
%TO.N,VCC*%
X128398000Y-87630000D03*
%TO.P,R1,2*%
%TO.N,Net-(D1-Pad2)*%
X130048000Y-87630000D03*
%TD*%
D22*
%TO.P,Q2,1,G*%
%TO.N,3.3V*%
X129855000Y-80342500D03*
%TO.P,Q2,2,S*%
%TO.N,SDA_3v*%
X127955000Y-80342500D03*
%TO.P,Q2,3,D*%
%TO.N,SDA*%
X128905000Y-82217500D03*
%TD*%
D21*
%TO.P,R5,1*%
%TO.N,3.3V*%
X122048000Y-80264000D03*
%TO.P,R5,2*%
%TO.N,SCL_3v*%
X123698000Y-80264000D03*
%TD*%
%TO.P,R3,1*%
%TO.N,VCC*%
X118997000Y-84328000D03*
%TO.P,R3,2*%
%TO.N,SCL*%
X120647000Y-84328000D03*
%TD*%
D23*
%TO.P,U1,1,VIN*%
%TO.N,VCC*%
X120904000Y-86117000D03*
%TO.P,U1,2,GND*%
%TO.N,GND*%
X119954000Y-86117000D03*
%TO.P,U1,3,EN*%
%TO.N,VCC*%
X119004000Y-86117000D03*
%TO.P,U1,4,NC*%
%TO.N,unconnected-(U1-Pad4)*%
X119004000Y-88392000D03*
%TO.P,U1,5,VOUT*%
%TO.N,3.3V*%
X120904000Y-88392000D03*
%TD*%
D15*
%TO.P,R4,1*%
%TO.N,3.3V*%
X130810000Y-78740000D03*
%TO.P,R4,2*%
%TO.N,SDA_3v*%
X130810000Y-77090000D03*
%TD*%
D22*
%TO.P,Q1,1,G*%
%TO.N,3.3V*%
X120645000Y-80645000D03*
%TO.P,Q1,2,S*%
%TO.N,SCL_3v*%
X118745000Y-80645000D03*
%TO.P,Q1,3,D*%
%TO.N,SCL*%
X119695000Y-82520000D03*
%TD*%
D19*
%TO.P,J1,1,Pin_1*%
%TO.N,5V*%
X120650000Y-92456000D03*
D20*
%TO.P,J1,2,Pin_2*%
%TO.N,3.3V*%
X123190000Y-92456000D03*
%TO.P,J1,3,Pin_3*%
%TO.N,OUT*%
X125730000Y-92456000D03*
%TO.P,J1,4,Pin_4*%
%TO.N,GND*%
X128270000Y-92456000D03*
%TD*%
D24*
%TO.N,VCC*%
X120874996Y-86939662D03*
X128991000Y-86573000D03*
%TO.N,GND*%
X114935000Y-83820000D03*
X133350000Y-86614000D03*
%TO.N,3.3V*%
X120645000Y-82301000D03*
X131064000Y-80010000D03*
%TO.N,SDA*%
X128905000Y-85090000D03*
X115659500Y-85538799D03*
%TO.N,SCL*%
X131445000Y-82550000D03*
X118618000Y-82550000D03*
X115465500Y-86614000D03*
%TO.N,5V*%
X122555000Y-88954241D03*
%TO.N,OUT*%
X125095000Y-88900000D03*
%TO.N,PGO*%
X126492000Y-81067000D03*
%TO.N,DIR*%
X121875682Y-81225759D03*
%TD*%
D25*
%TO.N,VCC*%
X118735000Y-84590000D02*
X118997000Y-84328000D01*
X120696000Y-90170000D02*
X120696000Y-89708000D01*
X119888000Y-87517251D02*
X120904000Y-86501251D01*
X119798500Y-85129500D02*
X120300751Y-85129500D01*
X131946000Y-85724000D02*
X132080000Y-85590000D01*
X117477000Y-84590000D02*
X119004000Y-86117000D01*
X120904000Y-86501251D02*
X120904000Y-86117000D01*
X120300751Y-85129500D02*
X120904000Y-85732749D01*
X116840000Y-84590000D02*
X117477000Y-84590000D01*
X128991000Y-86573000D02*
X128398000Y-87166000D01*
X128398000Y-87166000D02*
X129840000Y-85724000D01*
X129840000Y-85724000D02*
X131946000Y-85724000D01*
X116840000Y-84590000D02*
X118735000Y-84590000D01*
X128398000Y-87630000D02*
X128398000Y-87166000D01*
X120696000Y-89708000D02*
X119888000Y-88900000D01*
X119888000Y-88900000D02*
X119888000Y-87517251D01*
X120904000Y-85732749D02*
X120904000Y-86117000D01*
X118997000Y-84328000D02*
X119798500Y-85129500D01*
%TO.N,GND*%
X114740500Y-84014500D02*
X114740500Y-86914305D01*
X119954000Y-86548000D02*
X119954000Y-86117000D01*
X133350000Y-86614000D02*
X132104000Y-86614000D01*
X132104000Y-86614000D02*
X132080000Y-86590000D01*
X131765000Y-86905000D02*
X131765000Y-89535000D01*
X126365000Y-87790000D02*
X126365000Y-88764183D01*
X128524000Y-92456000D02*
X129794000Y-92456000D01*
X126365000Y-88773000D02*
X126365000Y-88764183D01*
X115202195Y-87376000D02*
X117602000Y-87376000D01*
X114935000Y-83820000D02*
X114740500Y-84014500D01*
X128491000Y-89916000D02*
X129060000Y-90485000D01*
X118796000Y-90170000D02*
X117602000Y-88976000D01*
X126365000Y-88764183D02*
X124959183Y-90170000D01*
X124959183Y-90170000D02*
X124714000Y-90170000D01*
X131765000Y-90485000D02*
X129060000Y-90485000D01*
X126365000Y-88143000D02*
X128138000Y-89916000D01*
X114935000Y-83820000D02*
X115165000Y-83590000D01*
X117602000Y-87376000D02*
X119126000Y-87376000D01*
X128138000Y-89916000D02*
X128491000Y-89916000D01*
X132080000Y-86590000D02*
X131765000Y-86905000D01*
X126365000Y-87790000D02*
X126365000Y-88143000D01*
X115165000Y-83590000D02*
X116840000Y-83590000D01*
X129794000Y-92456000D02*
X131765000Y-90485000D01*
X131765000Y-90485000D02*
X131765000Y-89535000D01*
X114740500Y-86914305D02*
X115202195Y-87376000D01*
X119126000Y-87376000D02*
X119954000Y-86548000D01*
X117602000Y-88976000D02*
X117602000Y-87376000D01*
%TO.N,3.3V*%
X130810000Y-79756000D02*
X131064000Y-80010000D01*
X121026000Y-80264000D02*
X120645000Y-80645000D01*
X121666000Y-87630000D02*
X121666000Y-83322000D01*
X123190000Y-92456000D02*
X123190000Y-90546000D01*
X123825000Y-87790000D02*
X123825000Y-89142500D01*
X122814000Y-90153500D02*
X123825000Y-89142500D01*
X125236173Y-91186000D02*
X125476000Y-91186000D01*
X120904000Y-88392000D02*
X121666000Y-87630000D01*
X125476000Y-91186000D02*
X126238000Y-90424000D01*
X122682000Y-90170000D02*
X122814000Y-90170000D01*
X130187500Y-80010000D02*
X129855000Y-80342500D01*
X126238000Y-90424000D02*
X126238000Y-89916000D01*
X121666000Y-83322000D02*
X120645000Y-82301000D01*
X122814000Y-90170000D02*
X122814000Y-90153500D01*
X123190000Y-92456000D02*
X123966173Y-92456000D01*
X130810000Y-78740000D02*
X130810000Y-79756000D01*
X123190000Y-90546000D02*
X122814000Y-90170000D01*
X123966173Y-92456000D02*
X125236173Y-91186000D01*
X120645000Y-80645000D02*
X120645000Y-82301000D01*
X122814000Y-90170000D02*
X122616500Y-90170000D01*
X120904000Y-88392000D02*
X122682000Y-90170000D01*
X131064000Y-80010000D02*
X130187500Y-80010000D01*
X121920000Y-80264000D02*
X121026000Y-80264000D01*
%TO.N,Net-(D1-Pad2)*%
X129794000Y-89662000D02*
X129794000Y-87884000D01*
X129794000Y-87884000D02*
X130048000Y-87630000D01*
%TO.N,SDA_3v*%
X125730000Y-80040000D02*
X125730000Y-78105000D01*
X128382500Y-80342500D02*
X127955000Y-80342500D01*
X129445000Y-79280000D02*
X128382500Y-80342500D01*
X125095000Y-81280000D02*
X125095000Y-82390000D01*
X127955000Y-80342500D02*
X126032500Y-80342500D01*
X126032500Y-80342500D02*
X125730000Y-80040000D01*
X126032500Y-80342500D02*
X125095000Y-81280000D01*
X129445000Y-78455000D02*
X129445000Y-79280000D01*
X130810000Y-77090000D02*
X129445000Y-78455000D01*
%TO.N,SCL_3v*%
X123825000Y-80645000D02*
X123825000Y-82390000D01*
X123190000Y-79375000D02*
X123190000Y-78105000D01*
X123190000Y-79375000D02*
X123825000Y-80010000D01*
X123825000Y-80010000D02*
X123825000Y-80645000D01*
X118745000Y-80645000D02*
X120015000Y-79375000D01*
X120015000Y-79375000D02*
X123190000Y-79375000D01*
%TO.N,SDA*%
X129840000Y-84335000D02*
X130690000Y-84335000D01*
X128905000Y-85090000D02*
X128905000Y-83820000D01*
X128905000Y-82217500D02*
X128905000Y-83400000D01*
X116248799Y-85538799D02*
X116300000Y-85590000D01*
X115659500Y-85538799D02*
X116248799Y-85538799D01*
X130945000Y-84590000D02*
X132080000Y-84590000D01*
X128905000Y-83400000D02*
X129115000Y-83610000D01*
X129115000Y-83610000D02*
X129840000Y-84335000D01*
X130690000Y-84335000D02*
X130945000Y-84590000D01*
X128905000Y-83820000D02*
X129115000Y-83610000D01*
%TO.N,SCL*%
X116840000Y-86614000D02*
X115465500Y-86614000D01*
X116840000Y-86590000D02*
X116840000Y-86614000D01*
X118648000Y-82520000D02*
X118618000Y-82550000D01*
X131318000Y-82828000D02*
X132080000Y-83590000D01*
X119695000Y-82520000D02*
X118648000Y-82520000D01*
X120647000Y-84328000D02*
X120647000Y-83472000D01*
X131445000Y-82550000D02*
X131318000Y-82550000D01*
X120647000Y-83472000D02*
X119695000Y-82520000D01*
X131318000Y-82550000D02*
X131318000Y-82828000D01*
%TO.N,5V*%
X122555000Y-88954241D02*
X122555000Y-87790000D01*
%TO.N,OUT*%
X125095000Y-87790000D02*
X125095000Y-88900000D01*
%TO.N,PGO*%
X126492000Y-81067000D02*
X126492000Y-82263000D01*
X126492000Y-82263000D02*
X126365000Y-82390000D01*
%TO.N,DIR*%
X122555000Y-82390000D02*
X122555000Y-81905077D01*
X122555000Y-81905077D02*
X121875682Y-81225759D01*
%TD*%
%TA.AperFunction,Conductor*%
%TO.N,GND*%
G36*
X119943622Y-76728502D02*
G01*
X119990115Y-76782158D01*
X120000219Y-76852432D01*
X119970725Y-76917012D01*
X119933683Y-76946262D01*
X119923607Y-76951507D01*
X119919474Y-76954610D01*
X119919471Y-76954612D01*
X119749100Y-77082530D01*
X119744965Y-77085635D01*
X119714490Y-77117525D01*
X119651280Y-77183671D01*
X119590629Y-77247138D01*
X119464743Y-77431680D01*
X119420796Y-77526356D01*
X119391163Y-77590196D01*
X119370688Y-77634305D01*
X119310989Y-77849570D01*
X119287251Y-78071695D01*
X119287548Y-78076848D01*
X119287548Y-78076851D01*
X119297736Y-78253550D01*
X119300110Y-78294715D01*
X119301247Y-78299761D01*
X119301248Y-78299767D01*
X119316823Y-78368874D01*
X119349222Y-78512639D01*
X119433266Y-78719616D01*
X119470358Y-78780144D01*
X119511014Y-78846489D01*
X119529552Y-78915023D01*
X119508096Y-78982699D01*
X119492676Y-79001419D01*
X119123838Y-79370257D01*
X119061526Y-79404283D01*
X119011770Y-79402562D01*
X119011345Y-79404890D01*
X119005006Y-79403732D01*
X118998831Y-79401938D01*
X118992426Y-79401434D01*
X118992421Y-79401433D01*
X118963958Y-79399193D01*
X118963950Y-79399193D01*
X118961502Y-79399000D01*
X118528498Y-79399000D01*
X118526050Y-79399193D01*
X118526042Y-79399193D01*
X118497579Y-79401433D01*
X118497574Y-79401434D01*
X118491169Y-79401938D01*
X118417213Y-79423424D01*
X118339012Y-79446143D01*
X118339010Y-79446144D01*
X118331399Y-79448355D01*
X118324572Y-79452392D01*
X118324573Y-79452392D01*
X118195020Y-79529009D01*
X118195017Y-79529011D01*
X118188193Y-79533047D01*
X118070547Y-79650693D01*
X118066511Y-79657517D01*
X118066509Y-79657520D01*
X118036853Y-79707666D01*
X117985855Y-79793899D01*
X117983644Y-79801510D01*
X117983643Y-79801512D01*
X117980158Y-79813509D01*
X117939438Y-79953669D01*
X117938934Y-79960074D01*
X117938933Y-79960079D01*
X117936749Y-79987836D01*
X117936500Y-79990998D01*
X117936500Y-81299002D01*
X117936693Y-81301450D01*
X117936693Y-81301458D01*
X117936928Y-81304434D01*
X117939438Y-81336331D01*
X117942452Y-81346704D01*
X117975808Y-81461517D01*
X117985855Y-81496101D01*
X117989892Y-81502927D01*
X118066509Y-81632480D01*
X118066511Y-81632483D01*
X118070547Y-81639307D01*
X118076155Y-81644915D01*
X118081011Y-81651175D01*
X118079204Y-81652577D01*
X118107681Y-81704727D01*
X118102616Y-81775542D01*
X118058622Y-81833445D01*
X118006747Y-81871134D01*
X118002326Y-81876044D01*
X118002325Y-81876045D01*
X117987224Y-81892817D01*
X117878960Y-82013056D01*
X117783473Y-82178444D01*
X117724458Y-82360072D01*
X117704496Y-82550000D01*
X117705186Y-82556565D01*
X117714810Y-82648137D01*
X117702037Y-82717975D01*
X117653535Y-82769822D01*
X117584702Y-82787216D01*
X117566862Y-82785257D01*
X117562333Y-82784430D01*
X117533916Y-82782193D01*
X117528986Y-82782000D01*
X117112115Y-82782000D01*
X117096876Y-82786475D01*
X117095671Y-82787865D01*
X117094000Y-82795548D01*
X117094000Y-83655500D01*
X117073998Y-83723621D01*
X117020342Y-83770114D01*
X116968000Y-83781500D01*
X116148498Y-83781500D01*
X116146050Y-83781693D01*
X116146042Y-83781693D01*
X116117579Y-83783933D01*
X116117574Y-83783934D01*
X116111169Y-83784438D01*
X116057800Y-83799943D01*
X115959011Y-83828643D01*
X115959007Y-83828645D01*
X115951399Y-83830855D01*
X115946275Y-83833885D01*
X115897430Y-83844000D01*
X115578122Y-83844000D01*
X115564591Y-83847973D01*
X115563456Y-83855871D01*
X115604107Y-83995790D01*
X115610352Y-84010221D01*
X115619311Y-84025370D01*
X115636770Y-84094186D01*
X115619310Y-84153648D01*
X115605855Y-84176399D01*
X115559438Y-84336169D01*
X115556500Y-84373498D01*
X115556500Y-84529863D01*
X115536498Y-84597984D01*
X115482842Y-84644477D01*
X115456698Y-84653110D01*
X115377212Y-84670005D01*
X115371182Y-84672690D01*
X115371181Y-84672690D01*
X115208778Y-84744996D01*
X115208776Y-84744997D01*
X115202748Y-84747681D01*
X115048247Y-84859933D01*
X115043826Y-84864843D01*
X115043825Y-84864844D01*
X114925743Y-84995988D01*
X114920460Y-85001855D01*
X114824973Y-85167243D01*
X114765958Y-85348871D01*
X114765268Y-85355432D01*
X114765268Y-85355434D01*
X114763110Y-85375968D01*
X114745996Y-85538799D01*
X114765958Y-85728727D01*
X114767998Y-85735005D01*
X114816172Y-85883269D01*
X114818200Y-85954236D01*
X114789977Y-86006513D01*
X114726460Y-86077056D01*
X114630973Y-86242444D01*
X114571958Y-86424072D01*
X114571268Y-86430633D01*
X114571268Y-86430635D01*
X114553935Y-86595548D01*
X114551996Y-86614000D01*
X114552686Y-86620565D01*
X114570726Y-86792203D01*
X114571958Y-86803928D01*
X114630973Y-86985556D01*
X114634276Y-86991278D01*
X114634277Y-86991279D01*
X114638734Y-86998998D01*
X114726460Y-87150944D01*
X114730878Y-87155851D01*
X114730879Y-87155852D01*
X114785085Y-87216054D01*
X114854247Y-87292866D01*
X114945389Y-87359085D01*
X114999374Y-87398307D01*
X115008748Y-87405118D01*
X115014776Y-87407802D01*
X115014778Y-87407803D01*
X115175858Y-87479520D01*
X115183212Y-87482794D01*
X115276612Y-87502647D01*
X115363556Y-87521128D01*
X115363561Y-87521128D01*
X115370013Y-87522500D01*
X115560987Y-87522500D01*
X115567439Y-87521128D01*
X115567444Y-87521128D01*
X115654388Y-87502647D01*
X115747788Y-87482794D01*
X115755142Y-87479520D01*
X115916222Y-87407803D01*
X115916224Y-87407802D01*
X115922252Y-87405118D01*
X115935677Y-87395364D01*
X116002546Y-87371508D01*
X116044887Y-87376306D01*
X116104989Y-87393767D01*
X116104993Y-87393768D01*
X116111169Y-87395562D01*
X116117579Y-87396067D01*
X116117582Y-87396067D01*
X116146042Y-87398307D01*
X116146050Y-87398307D01*
X116148498Y-87398500D01*
X117531502Y-87398500D01*
X117533950Y-87398307D01*
X117533958Y-87398307D01*
X117562421Y-87396067D01*
X117562426Y-87396066D01*
X117568831Y-87395562D01*
X117668769Y-87366528D01*
X117720988Y-87351357D01*
X117720990Y-87351356D01*
X117728601Y-87349145D01*
X117809565Y-87301263D01*
X117864980Y-87268491D01*
X117864983Y-87268489D01*
X117871807Y-87264453D01*
X117989453Y-87146807D01*
X117993489Y-87139983D01*
X117993491Y-87139980D01*
X118070109Y-87010426D01*
X118070110Y-87010424D01*
X118074145Y-87003601D01*
X118075712Y-86998207D01*
X118120465Y-86944423D01*
X118188172Y-86923063D01*
X118256679Y-86941699D01*
X118299143Y-86984897D01*
X118329547Y-87036307D01*
X118447193Y-87153953D01*
X118451002Y-87156206D01*
X118491655Y-87212496D01*
X118495506Y-87283388D01*
X118460418Y-87345109D01*
X118452724Y-87351776D01*
X118447193Y-87355047D01*
X118329547Y-87472693D01*
X118325511Y-87479517D01*
X118325509Y-87479520D01*
X118300091Y-87522500D01*
X118244855Y-87615899D01*
X118198438Y-87775669D01*
X118195500Y-87812998D01*
X118195500Y-88950269D01*
X118175498Y-89018390D01*
X118135803Y-89057413D01*
X118078193Y-89093063D01*
X118066792Y-89102099D01*
X117952261Y-89216829D01*
X117943249Y-89228240D01*
X117858184Y-89366243D01*
X117852037Y-89379424D01*
X117800862Y-89533710D01*
X117797995Y-89547086D01*
X117788328Y-89641438D01*
X117788000Y-89647855D01*
X117788000Y-89897885D01*
X117792475Y-89913124D01*
X117793865Y-89914329D01*
X117801548Y-89916000D01*
X118924000Y-89916000D01*
X118992121Y-89936002D01*
X119038614Y-89989658D01*
X119050000Y-90042000D01*
X119050000Y-91384884D01*
X119054475Y-91400123D01*
X119055865Y-91401328D01*
X119063548Y-91402999D01*
X119093095Y-91402999D01*
X119099612Y-91402662D01*
X119155632Y-91396849D01*
X119225453Y-91409714D01*
X119277236Y-91458284D01*
X119294538Y-91527140D01*
X119293900Y-91535777D01*
X119291500Y-91557866D01*
X119291500Y-93345500D01*
X119271498Y-93413621D01*
X119217842Y-93460114D01*
X119165500Y-93471500D01*
X113714367Y-93471500D01*
X113694982Y-93470000D01*
X113680149Y-93467690D01*
X113680145Y-93467690D01*
X113671276Y-93466309D01*
X113657211Y-93468148D01*
X113630996Y-93468824D01*
X113497889Y-93458348D01*
X113456426Y-93455085D01*
X113436897Y-93451992D01*
X113243097Y-93405464D01*
X113224294Y-93399354D01*
X113040160Y-93323084D01*
X113022543Y-93314107D01*
X112852613Y-93209973D01*
X112836618Y-93198352D01*
X112685066Y-93068915D01*
X112671085Y-93054934D01*
X112541648Y-92903382D01*
X112530027Y-92887387D01*
X112425893Y-92717457D01*
X112416916Y-92699840D01*
X112340646Y-92515706D01*
X112334536Y-92496903D01*
X112288008Y-92303103D01*
X112284915Y-92283574D01*
X112272009Y-92119583D01*
X112272994Y-92097258D01*
X112272334Y-92097199D01*
X112272769Y-92092351D01*
X112273576Y-92087552D01*
X112273729Y-92075000D01*
X112269773Y-92047376D01*
X112268500Y-92029514D01*
X112268500Y-91547655D01*
X112539858Y-91547655D01*
X112575104Y-91806638D01*
X112576412Y-91811124D01*
X112576412Y-91811126D01*
X112596098Y-91878664D01*
X112648243Y-92057567D01*
X112757668Y-92294928D01*
X112760231Y-92298837D01*
X112898410Y-92509596D01*
X112898414Y-92509601D01*
X112900976Y-92513509D01*
X113075018Y-92708506D01*
X113275970Y-92875637D01*
X113279973Y-92878066D01*
X113495422Y-93008804D01*
X113495426Y-93008806D01*
X113499419Y-93011229D01*
X113740455Y-93112303D01*
X113993783Y-93176641D01*
X113998434Y-93177109D01*
X113998438Y-93177110D01*
X114191308Y-93196531D01*
X114210867Y-93198500D01*
X114366354Y-93198500D01*
X114368679Y-93198327D01*
X114368685Y-93198327D01*
X114556000Y-93184407D01*
X114556004Y-93184406D01*
X114560652Y-93184061D01*
X114565200Y-93183032D01*
X114565206Y-93183031D01*
X114796569Y-93130678D01*
X114815577Y-93126377D01*
X114819931Y-93124684D01*
X115054824Y-93033340D01*
X115054827Y-93033339D01*
X115059177Y-93031647D01*
X115286098Y-92901951D01*
X115491357Y-92740138D01*
X115670443Y-92549763D01*
X115819424Y-92335009D01*
X115821492Y-92330816D01*
X115932960Y-92104781D01*
X115932961Y-92104778D01*
X115935025Y-92100593D01*
X115939200Y-92087552D01*
X116013280Y-91856123D01*
X116014707Y-91851665D01*
X116056721Y-91593693D01*
X116058483Y-91459051D01*
X116060081Y-91337022D01*
X116060081Y-91337019D01*
X116060142Y-91332345D01*
X116024896Y-91073362D01*
X116010473Y-91023877D01*
X115965682Y-90870207D01*
X115951757Y-90822433D01*
X115948767Y-90815946D01*
X115898346Y-90706576D01*
X115891670Y-90692095D01*
X117788001Y-90692095D01*
X117788338Y-90698614D01*
X117798257Y-90794206D01*
X117801149Y-90807600D01*
X117852588Y-90961784D01*
X117858761Y-90974962D01*
X117944063Y-91112807D01*
X117953099Y-91124208D01*
X118067829Y-91238739D01*
X118079240Y-91247751D01*
X118217243Y-91332816D01*
X118230424Y-91338963D01*
X118384710Y-91390138D01*
X118398086Y-91393005D01*
X118492438Y-91402672D01*
X118498854Y-91403000D01*
X118523885Y-91403000D01*
X118539124Y-91398525D01*
X118540329Y-91397135D01*
X118542000Y-91389452D01*
X118542000Y-90442115D01*
X118537525Y-90426876D01*
X118536135Y-90425671D01*
X118528452Y-90424000D01*
X117806116Y-90424000D01*
X117790877Y-90428475D01*
X117789672Y-90429865D01*
X117788001Y-90437548D01*
X117788001Y-90692095D01*
X115891670Y-90692095D01*
X115842332Y-90585072D01*
X115784137Y-90496310D01*
X115701590Y-90370404D01*
X115701586Y-90370399D01*
X115699024Y-90366491D01*
X115524982Y-90171494D01*
X115324030Y-90004363D01*
X115256385Y-89963315D01*
X115104578Y-89871196D01*
X115104574Y-89871194D01*
X115100581Y-89868771D01*
X114859545Y-89767697D01*
X114606217Y-89703359D01*
X114601566Y-89702891D01*
X114601562Y-89702890D01*
X114392271Y-89681816D01*
X114389133Y-89681500D01*
X114233646Y-89681500D01*
X114231321Y-89681673D01*
X114231315Y-89681673D01*
X114044000Y-89695593D01*
X114043996Y-89695594D01*
X114039348Y-89695939D01*
X114034800Y-89696968D01*
X114034794Y-89696969D01*
X113863816Y-89735658D01*
X113784423Y-89753623D01*
X113780071Y-89755315D01*
X113780069Y-89755316D01*
X113545176Y-89846660D01*
X113545173Y-89846661D01*
X113540823Y-89848353D01*
X113313902Y-89978049D01*
X113108643Y-90139862D01*
X112929557Y-90330237D01*
X112834791Y-90466841D01*
X112814889Y-90495530D01*
X112780576Y-90544991D01*
X112778510Y-90549181D01*
X112778508Y-90549184D01*
X112704818Y-90698614D01*
X112664975Y-90779407D01*
X112585293Y-91028335D01*
X112543279Y-91286307D01*
X112543093Y-91300542D01*
X112540127Y-91527140D01*
X112539858Y-91547655D01*
X112268500Y-91547655D01*
X112268500Y-89124500D01*
X112288502Y-89056379D01*
X112342158Y-89009886D01*
X112394500Y-88998500D01*
X113665400Y-88998500D01*
X113668646Y-88998163D01*
X113668650Y-88998163D01*
X113764308Y-88988238D01*
X113764312Y-88988237D01*
X113771166Y-88987526D01*
X113777702Y-88985345D01*
X113777704Y-88985345D01*
X113909806Y-88941272D01*
X113938946Y-88931550D01*
X114089348Y-88838478D01*
X114214305Y-88713303D01*
X114218146Y-88707072D01*
X114303275Y-88568968D01*
X114303276Y-88568966D01*
X114307115Y-88562738D01*
X114362797Y-88394861D01*
X114373500Y-88290400D01*
X114373500Y-87489600D01*
X114365013Y-87407803D01*
X114363238Y-87390692D01*
X114363237Y-87390688D01*
X114362526Y-87383834D01*
X114360015Y-87376306D01*
X114308868Y-87223002D01*
X114306550Y-87216054D01*
X114213478Y-87065652D01*
X114088303Y-86940695D01*
X114011092Y-86893101D01*
X113943968Y-86851725D01*
X113943966Y-86851724D01*
X113937738Y-86847885D01*
X113820780Y-86809092D01*
X113776389Y-86794368D01*
X113776387Y-86794368D01*
X113769861Y-86792203D01*
X113763025Y-86791503D01*
X113763022Y-86791502D01*
X113719969Y-86787091D01*
X113665400Y-86781500D01*
X112394500Y-86781500D01*
X112326379Y-86761498D01*
X112279886Y-86707842D01*
X112268500Y-86655500D01*
X112268500Y-83524500D01*
X112288502Y-83456379D01*
X112342158Y-83409886D01*
X112394500Y-83398500D01*
X113665400Y-83398500D01*
X113668646Y-83398163D01*
X113668650Y-83398163D01*
X113764308Y-83388238D01*
X113764312Y-83388237D01*
X113771166Y-83387526D01*
X113777702Y-83385345D01*
X113777704Y-83385345D01*
X113925608Y-83336000D01*
X113938946Y-83331550D01*
X113959865Y-83318605D01*
X115565061Y-83318605D01*
X115565101Y-83332706D01*
X115572370Y-83336000D01*
X116567885Y-83336000D01*
X116583124Y-83331525D01*
X116584329Y-83330135D01*
X116586000Y-83322452D01*
X116586000Y-82800116D01*
X116581525Y-82784877D01*
X116580135Y-82783672D01*
X116572452Y-82782001D01*
X116151017Y-82782001D01*
X116146080Y-82782195D01*
X116117664Y-82784430D01*
X116105069Y-82786730D01*
X115959210Y-82829107D01*
X115944779Y-82835352D01*
X115815322Y-82911911D01*
X115802896Y-82921551D01*
X115696551Y-83027896D01*
X115686911Y-83040322D01*
X115610352Y-83169779D01*
X115604107Y-83184210D01*
X115565061Y-83318605D01*
X113959865Y-83318605D01*
X114089348Y-83238478D01*
X114214305Y-83113303D01*
X114246553Y-83060988D01*
X114303275Y-82968968D01*
X114303276Y-82968966D01*
X114307115Y-82962738D01*
X114349367Y-82835352D01*
X114360632Y-82801389D01*
X114360632Y-82801387D01*
X114362797Y-82794861D01*
X114363581Y-82787216D01*
X114373172Y-82693598D01*
X114373500Y-82690400D01*
X114373500Y-81889600D01*
X114371584Y-81871134D01*
X114363238Y-81790692D01*
X114363237Y-81790688D01*
X114362526Y-81783834D01*
X114354202Y-81758882D01*
X114308868Y-81623002D01*
X114306550Y-81616054D01*
X114213478Y-81465652D01*
X114088303Y-81340695D01*
X114081996Y-81336807D01*
X113943968Y-81251725D01*
X113943966Y-81251724D01*
X113937738Y-81247885D01*
X113794656Y-81200427D01*
X113776389Y-81194368D01*
X113776387Y-81194368D01*
X113769861Y-81192203D01*
X113763025Y-81191503D01*
X113763022Y-81191502D01*
X113719969Y-81187091D01*
X113665400Y-81181500D01*
X112394500Y-81181500D01*
X112326379Y-81161498D01*
X112279886Y-81107842D01*
X112268500Y-81055500D01*
X112268500Y-78847655D01*
X112539858Y-78847655D01*
X112575104Y-79106638D01*
X112576412Y-79111124D01*
X112576412Y-79111126D01*
X112596098Y-79178664D01*
X112648243Y-79357567D01*
X112650203Y-79361820D01*
X112650204Y-79361821D01*
X112668486Y-79401478D01*
X112757668Y-79594928D01*
X112760231Y-79598837D01*
X112898410Y-79809596D01*
X112898414Y-79809601D01*
X112900976Y-79813509D01*
X113075018Y-80008506D01*
X113275970Y-80175637D01*
X113279973Y-80178066D01*
X113495422Y-80308804D01*
X113495426Y-80308806D01*
X113499419Y-80311229D01*
X113740455Y-80412303D01*
X113993783Y-80476641D01*
X113998434Y-80477109D01*
X113998438Y-80477110D01*
X114191308Y-80496531D01*
X114210867Y-80498500D01*
X114366354Y-80498500D01*
X114368679Y-80498327D01*
X114368685Y-80498327D01*
X114556000Y-80484407D01*
X114556004Y-80484406D01*
X114560652Y-80484061D01*
X114565200Y-80483032D01*
X114565206Y-80483031D01*
X114751601Y-80440853D01*
X114815577Y-80426377D01*
X114851769Y-80412303D01*
X115054824Y-80333340D01*
X115054827Y-80333339D01*
X115059177Y-80331647D01*
X115286098Y-80201951D01*
X115491357Y-80040138D01*
X115670443Y-79849763D01*
X115789608Y-79677988D01*
X115816759Y-79638851D01*
X115816761Y-79638848D01*
X115819424Y-79635009D01*
X115869706Y-79533047D01*
X115932960Y-79404781D01*
X115932961Y-79404778D01*
X115935025Y-79400593D01*
X115940797Y-79382563D01*
X116013280Y-79156123D01*
X116014707Y-79151665D01*
X116056721Y-78893693D01*
X116060142Y-78632345D01*
X116024896Y-78373362D01*
X116010473Y-78323877D01*
X115985967Y-78239804D01*
X115951757Y-78122433D01*
X115932599Y-78080875D01*
X115844289Y-77889318D01*
X115842332Y-77885072D01*
X115736650Y-77723880D01*
X115701590Y-77670404D01*
X115701586Y-77670399D01*
X115699024Y-77666491D01*
X115524982Y-77471494D01*
X115324030Y-77304363D01*
X115236755Y-77251403D01*
X115104578Y-77171196D01*
X115104574Y-77171194D01*
X115100581Y-77168771D01*
X114859545Y-77067697D01*
X114606217Y-77003359D01*
X114601566Y-77002891D01*
X114601562Y-77002890D01*
X114392271Y-76981816D01*
X114389133Y-76981500D01*
X114233646Y-76981500D01*
X114231321Y-76981673D01*
X114231315Y-76981673D01*
X114044000Y-76995593D01*
X114043996Y-76995594D01*
X114039348Y-76995939D01*
X114034800Y-76996968D01*
X114034794Y-76996969D01*
X113848399Y-77039147D01*
X113784423Y-77053623D01*
X113780071Y-77055315D01*
X113780069Y-77055316D01*
X113545176Y-77146660D01*
X113545173Y-77146661D01*
X113540823Y-77148353D01*
X113536769Y-77150670D01*
X113536767Y-77150671D01*
X113505099Y-77168771D01*
X113313902Y-77278049D01*
X113108643Y-77439862D01*
X112929557Y-77630237D01*
X112856355Y-77735757D01*
X112793817Y-77825905D01*
X112780576Y-77844991D01*
X112778510Y-77849181D01*
X112778508Y-77849184D01*
X112702115Y-78004095D01*
X112664975Y-78079407D01*
X112663553Y-78083850D01*
X112663552Y-78083852D01*
X112643460Y-78146621D01*
X112585293Y-78328335D01*
X112543279Y-78586307D01*
X112543218Y-78590980D01*
X112541248Y-78741500D01*
X112539858Y-78847655D01*
X112268500Y-78847655D01*
X112268500Y-78158250D01*
X112270246Y-78137345D01*
X112272770Y-78122344D01*
X112272770Y-78122341D01*
X112273576Y-78117552D01*
X112273729Y-78105000D01*
X112272334Y-78095260D01*
X112271450Y-78067515D01*
X112284915Y-77896426D01*
X112288008Y-77876897D01*
X112334536Y-77683097D01*
X112340646Y-77664294D01*
X112416916Y-77480160D01*
X112425893Y-77462543D01*
X112530027Y-77292613D01*
X112541648Y-77276618D01*
X112671085Y-77125066D01*
X112685066Y-77111085D01*
X112836618Y-76981648D01*
X112852613Y-76970027D01*
X113022543Y-76865893D01*
X113040160Y-76856916D01*
X113224294Y-76780646D01*
X113243097Y-76774536D01*
X113436897Y-76728008D01*
X113456426Y-76724915D01*
X113623987Y-76711728D01*
X113640875Y-76712370D01*
X113640877Y-76712200D01*
X113649853Y-76712310D01*
X113658724Y-76713691D01*
X113667626Y-76712527D01*
X113667628Y-76712527D01*
X113685864Y-76710142D01*
X113690286Y-76709564D01*
X113706621Y-76708500D01*
X119875501Y-76708500D01*
X119943622Y-76728502D01*
G37*
%TD.AperFunction*%
%TA.AperFunction,Conductor*%
G36*
X135225018Y-76710000D02*
G01*
X135239851Y-76712310D01*
X135239855Y-76712310D01*
X135248724Y-76713691D01*
X135262789Y-76711852D01*
X135289004Y-76711176D01*
X135422111Y-76721652D01*
X135463574Y-76724915D01*
X135483103Y-76728008D01*
X135676903Y-76774536D01*
X135695706Y-76780646D01*
X135879840Y-76856916D01*
X135897457Y-76865893D01*
X136067387Y-76970027D01*
X136083382Y-76981648D01*
X136234934Y-77111085D01*
X136248915Y-77125066D01*
X136378352Y-77276618D01*
X136389973Y-77292613D01*
X136494107Y-77462543D01*
X136503084Y-77480160D01*
X136579354Y-77664294D01*
X136585464Y-77683097D01*
X136631992Y-77876897D01*
X136635085Y-77896426D01*
X136648272Y-78063987D01*
X136647630Y-78080875D01*
X136647800Y-78080877D01*
X136647690Y-78089853D01*
X136646309Y-78098724D01*
X136647473Y-78107626D01*
X136647473Y-78107628D01*
X136650436Y-78130283D01*
X136651500Y-78146621D01*
X136651500Y-81055500D01*
X136631498Y-81123621D01*
X136577842Y-81170114D01*
X136525500Y-81181500D01*
X135254600Y-81181500D01*
X135251354Y-81181837D01*
X135251350Y-81181837D01*
X135155692Y-81191762D01*
X135155688Y-81191763D01*
X135148834Y-81192474D01*
X135142298Y-81194655D01*
X135142296Y-81194655D01*
X135010194Y-81238728D01*
X134981054Y-81248450D01*
X134830652Y-81341522D01*
X134705695Y-81466697D01*
X134701855Y-81472927D01*
X134701854Y-81472928D01*
X134618073Y-81608846D01*
X134612885Y-81617262D01*
X134602659Y-81648094D01*
X134566803Y-81756197D01*
X134557203Y-81785139D01*
X134546500Y-81889600D01*
X134546500Y-82690400D01*
X134546837Y-82693646D01*
X134546837Y-82693650D01*
X134556613Y-82787865D01*
X134557474Y-82796166D01*
X134559655Y-82802702D01*
X134559655Y-82802704D01*
X134592924Y-82902421D01*
X134613450Y-82963946D01*
X134706522Y-83114348D01*
X134711704Y-83119521D01*
X134768681Y-83176399D01*
X134831697Y-83239305D01*
X134837927Y-83243145D01*
X134837928Y-83243146D01*
X134975090Y-83327694D01*
X134982262Y-83332115D01*
X135017766Y-83343891D01*
X135143611Y-83385632D01*
X135143613Y-83385632D01*
X135150139Y-83387797D01*
X135156975Y-83388497D01*
X135156978Y-83388498D01*
X135200031Y-83392909D01*
X135254600Y-83398500D01*
X136525500Y-83398500D01*
X136593621Y-83418502D01*
X136640114Y-83472158D01*
X136651500Y-83524500D01*
X136651500Y-86655500D01*
X136631498Y-86723621D01*
X136577842Y-86770114D01*
X136525500Y-86781500D01*
X135254600Y-86781500D01*
X135251354Y-86781837D01*
X135251350Y-86781837D01*
X135155692Y-86791762D01*
X135155688Y-86791763D01*
X135148834Y-86792474D01*
X135142298Y-86794655D01*
X135142296Y-86794655D01*
X135017319Y-86836351D01*
X134981054Y-86848450D01*
X134830652Y-86941522D01*
X134705695Y-87066697D01*
X134701855Y-87072927D01*
X134701854Y-87072928D01*
X134660523Y-87139980D01*
X134612885Y-87217262D01*
X134610581Y-87224209D01*
X134569142Y-87349145D01*
X134557203Y-87385139D01*
X134556503Y-87391975D01*
X134556502Y-87391978D01*
X134555553Y-87401239D01*
X134546500Y-87489600D01*
X134546500Y-88290400D01*
X134546837Y-88293646D01*
X134546837Y-88293650D01*
X134552205Y-88345381D01*
X134557474Y-88396166D01*
X134613450Y-88563946D01*
X134706522Y-88714348D01*
X134831697Y-88839305D01*
X134837927Y-88843145D01*
X134837928Y-88843146D01*
X134975090Y-88927694D01*
X134982262Y-88932115D01*
X135036995Y-88950269D01*
X135143611Y-88985632D01*
X135143613Y-88985632D01*
X135150139Y-88987797D01*
X135156975Y-88988497D01*
X135156978Y-88988498D01*
X135200031Y-88992909D01*
X135254600Y-88998500D01*
X136525500Y-88998500D01*
X136593621Y-89018502D01*
X136640114Y-89072158D01*
X136651500Y-89124500D01*
X136651500Y-92025633D01*
X136650000Y-92045018D01*
X136647690Y-92059851D01*
X136647690Y-92059855D01*
X136646309Y-92068724D01*
X136648148Y-92082789D01*
X136648824Y-92109004D01*
X136642931Y-92183885D01*
X136635085Y-92283574D01*
X136631992Y-92303103D01*
X136585464Y-92496903D01*
X136579354Y-92515706D01*
X136503084Y-92699840D01*
X136494107Y-92717457D01*
X136389973Y-92887387D01*
X136378352Y-92903382D01*
X136248915Y-93054934D01*
X136234934Y-93068915D01*
X136083382Y-93198352D01*
X136067387Y-93209973D01*
X135897457Y-93314107D01*
X135879840Y-93323084D01*
X135695706Y-93399354D01*
X135676903Y-93405464D01*
X135483103Y-93451992D01*
X135463574Y-93455085D01*
X135296013Y-93468272D01*
X135279125Y-93467630D01*
X135279123Y-93467800D01*
X135270147Y-93467690D01*
X135261276Y-93466309D01*
X135252374Y-93467473D01*
X135252372Y-93467473D01*
X135237323Y-93469441D01*
X135229714Y-93470436D01*
X135213379Y-93471500D01*
X129458315Y-93471500D01*
X129390194Y-93451498D01*
X129343701Y-93397842D01*
X129333597Y-93327568D01*
X129355993Y-93271974D01*
X129435004Y-93162020D01*
X129440313Y-93153183D01*
X129534670Y-92962267D01*
X129538469Y-92952672D01*
X129600377Y-92748910D01*
X129602555Y-92738837D01*
X129603986Y-92727962D01*
X129601775Y-92713778D01*
X129588617Y-92710000D01*
X128142000Y-92710000D01*
X128073879Y-92689998D01*
X128027386Y-92636342D01*
X128016000Y-92584000D01*
X128016000Y-91207115D01*
X128011525Y-91191876D01*
X128010135Y-91190671D01*
X127989217Y-91186121D01*
X127989876Y-91183091D01*
X127941879Y-91168998D01*
X127895386Y-91115342D01*
X127884000Y-91063000D01*
X127884000Y-89788000D01*
X127904002Y-89719879D01*
X127957658Y-89673386D01*
X128010000Y-89662000D01*
X128266000Y-89662000D01*
X128334121Y-89682002D01*
X128380614Y-89735658D01*
X128392000Y-89788000D01*
X128392000Y-91039885D01*
X128396475Y-91055124D01*
X128397865Y-91056329D01*
X128418783Y-91060879D01*
X128418124Y-91063909D01*
X128466121Y-91078002D01*
X128512614Y-91131658D01*
X128524000Y-91184000D01*
X128524000Y-92183885D01*
X128528475Y-92199124D01*
X128529865Y-92200329D01*
X128537548Y-92202000D01*
X129588344Y-92202000D01*
X129601875Y-92198027D01*
X129603180Y-92188947D01*
X129561214Y-92021875D01*
X129557894Y-92012124D01*
X129472972Y-91816814D01*
X129468105Y-91807739D01*
X129352426Y-91628926D01*
X129346136Y-91620757D01*
X129279618Y-91547655D01*
X132859858Y-91547655D01*
X132895104Y-91806638D01*
X132896412Y-91811124D01*
X132896412Y-91811126D01*
X132916098Y-91878664D01*
X132968243Y-92057567D01*
X133077668Y-92294928D01*
X133080231Y-92298837D01*
X133218410Y-92509596D01*
X133218414Y-92509601D01*
X133220976Y-92513509D01*
X133395018Y-92708506D01*
X133595970Y-92875637D01*
X133599973Y-92878066D01*
X133815422Y-93008804D01*
X133815426Y-93008806D01*
X133819419Y-93011229D01*
X134060455Y-93112303D01*
X134313783Y-93176641D01*
X134318434Y-93177109D01*
X134318438Y-93177110D01*
X134511308Y-93196531D01*
X134530867Y-93198500D01*
X134686354Y-93198500D01*
X134688679Y-93198327D01*
X134688685Y-93198327D01*
X134876000Y-93184407D01*
X134876004Y-93184406D01*
X134880652Y-93184061D01*
X134885200Y-93183032D01*
X134885206Y-93183031D01*
X135116569Y-93130678D01*
X135135577Y-93126377D01*
X135139931Y-93124684D01*
X135374824Y-93033340D01*
X135374827Y-93033339D01*
X135379177Y-93031647D01*
X135606098Y-92901951D01*
X135811357Y-92740138D01*
X135990443Y-92549763D01*
X136139424Y-92335009D01*
X136141492Y-92330816D01*
X136252960Y-92104781D01*
X136252961Y-92104778D01*
X136255025Y-92100593D01*
X136259200Y-92087552D01*
X136333280Y-91856123D01*
X136334707Y-91851665D01*
X136376721Y-91593693D01*
X136378483Y-91459051D01*
X136380081Y-91337022D01*
X136380081Y-91337019D01*
X136380142Y-91332345D01*
X136344896Y-91073362D01*
X136330473Y-91023877D01*
X136285682Y-90870207D01*
X136271757Y-90822433D01*
X136268767Y-90815946D01*
X136218346Y-90706576D01*
X136162332Y-90585072D01*
X136104137Y-90496310D01*
X136021590Y-90370404D01*
X136021586Y-90370399D01*
X136019024Y-90366491D01*
X135844982Y-90171494D01*
X135644030Y-90004363D01*
X135576385Y-89963315D01*
X135424578Y-89871196D01*
X135424574Y-89871194D01*
X135420581Y-89868771D01*
X135179545Y-89767697D01*
X134926217Y-89703359D01*
X134921566Y-89702891D01*
X134921562Y-89702890D01*
X134712271Y-89681816D01*
X134709133Y-89681500D01*
X134553646Y-89681500D01*
X134551321Y-89681673D01*
X134551315Y-89681673D01*
X134364000Y-89695593D01*
X134363996Y-89695594D01*
X134359348Y-89695939D01*
X134354800Y-89696968D01*
X134354794Y-89696969D01*
X134183816Y-89735658D01*
X134104423Y-89753623D01*
X134100071Y-89755315D01*
X134100069Y-89755316D01*
X133865176Y-89846660D01*
X133865173Y-89846661D01*
X133860823Y-89848353D01*
X133633902Y-89978049D01*
X133428643Y-90139862D01*
X133249557Y-90330237D01*
X133154791Y-90466841D01*
X133134889Y-90495530D01*
X133100576Y-90544991D01*
X133098510Y-90549181D01*
X133098508Y-90549184D01*
X133024818Y-90698614D01*
X132984975Y-90779407D01*
X132905293Y-91028335D01*
X132863279Y-91286307D01*
X132863093Y-91300542D01*
X132860127Y-91527140D01*
X132859858Y-91547655D01*
X129279618Y-91547655D01*
X129202806Y-91463240D01*
X129195273Y-91456215D01*
X129028139Y-91324222D01*
X129019561Y-91318523D01*
X128843518Y-91221342D01*
X128793548Y-91170909D01*
X128778776Y-91101466D01*
X128803892Y-91035061D01*
X128838109Y-91003889D01*
X128855807Y-90992937D01*
X128867208Y-90983901D01*
X128981739Y-90869171D01*
X128990751Y-90857760D01*
X129075816Y-90719757D01*
X129081963Y-90706576D01*
X129098126Y-90657847D01*
X129138557Y-90599487D01*
X129204122Y-90572251D01*
X129265614Y-90582434D01*
X129265808Y-90581849D01*
X129272756Y-90584154D01*
X129272757Y-90584154D01*
X129420238Y-90633072D01*
X129420240Y-90633072D01*
X129426769Y-90635238D01*
X129526928Y-90645500D01*
X130061072Y-90645500D01*
X130064318Y-90645163D01*
X130064322Y-90645163D01*
X130098103Y-90641658D01*
X130162482Y-90634978D01*
X130323349Y-90581308D01*
X130467555Y-90492071D01*
X130492741Y-90466841D01*
X130555023Y-90432762D01*
X130625843Y-90437765D01*
X130670932Y-90466686D01*
X130691580Y-90487298D01*
X130702991Y-90496310D01*
X130834791Y-90577553D01*
X130847968Y-90583697D01*
X130995343Y-90632579D01*
X131008710Y-90635445D01*
X131098200Y-90644614D01*
X131112124Y-90640525D01*
X131113329Y-90639135D01*
X131115000Y-90631452D01*
X131115000Y-90626885D01*
X131623000Y-90626885D01*
X131627475Y-90642124D01*
X131628865Y-90643329D01*
X131635821Y-90644842D01*
X131639282Y-90644663D01*
X131730521Y-90635196D01*
X131743917Y-90632303D01*
X131891187Y-90583170D01*
X131904366Y-90576996D01*
X132036014Y-90495530D01*
X132047415Y-90486494D01*
X132156798Y-90376920D01*
X132165810Y-90365509D01*
X132247053Y-90233709D01*
X132253197Y-90220532D01*
X132302079Y-90073157D01*
X132304945Y-90059790D01*
X132314172Y-89969730D01*
X132314500Y-89963315D01*
X132314500Y-89934115D01*
X132310025Y-89918876D01*
X132308635Y-89917671D01*
X132300952Y-89916000D01*
X131641115Y-89916000D01*
X131625876Y-89920475D01*
X131624671Y-89921865D01*
X131623000Y-89929548D01*
X131623000Y-90626885D01*
X131115000Y-90626885D01*
X131115000Y-89389885D01*
X131623000Y-89389885D01*
X131627475Y-89405124D01*
X131628865Y-89406329D01*
X131636548Y-89408000D01*
X132296385Y-89408000D01*
X132311624Y-89403525D01*
X132312829Y-89402135D01*
X132314500Y-89394452D01*
X132314500Y-89360734D01*
X132314163Y-89354218D01*
X132304696Y-89262979D01*
X132301803Y-89249583D01*
X132252670Y-89102313D01*
X132246496Y-89089134D01*
X132165030Y-88957486D01*
X132155994Y-88946085D01*
X132046420Y-88836702D01*
X132035009Y-88827690D01*
X131903209Y-88746447D01*
X131890032Y-88740303D01*
X131742657Y-88691421D01*
X131729290Y-88688555D01*
X131639800Y-88679386D01*
X131625876Y-88683475D01*
X131624671Y-88684865D01*
X131623000Y-88692548D01*
X131623000Y-89389885D01*
X131115000Y-89389885D01*
X131115000Y-88697115D01*
X131110525Y-88681876D01*
X131109135Y-88680671D01*
X131102179Y-88679158D01*
X131098718Y-88679337D01*
X131007479Y-88688804D01*
X130994083Y-88691697D01*
X130846813Y-88740830D01*
X130833634Y-88747004D01*
X130701986Y-88828470D01*
X130690585Y-88837506D01*
X130670967Y-88857158D01*
X130608684Y-88891237D01*
X130537864Y-88886234D01*
X130492777Y-88857314D01*
X130466554Y-88831137D01*
X130468382Y-88829305D01*
X130434340Y-88781277D01*
X130427500Y-88740327D01*
X130427500Y-88683816D01*
X130447502Y-88615695D01*
X130501158Y-88569202D01*
X130515814Y-88563584D01*
X130541699Y-88555472D01*
X130688381Y-88466639D01*
X130809639Y-88345381D01*
X130898472Y-88198699D01*
X130949753Y-88035062D01*
X130956500Y-87961635D01*
X130956499Y-87430545D01*
X130976501Y-87362425D01*
X131030156Y-87315932D01*
X131100430Y-87305828D01*
X131146637Y-87322092D01*
X131184775Y-87344646D01*
X131199210Y-87350893D01*
X131345065Y-87393269D01*
X131357667Y-87395570D01*
X131386084Y-87397807D01*
X131391014Y-87398000D01*
X131807885Y-87398000D01*
X131823124Y-87393525D01*
X131824329Y-87392135D01*
X131826000Y-87384452D01*
X131826000Y-87379884D01*
X132334000Y-87379884D01*
X132338475Y-87395123D01*
X132339865Y-87396328D01*
X132347548Y-87397999D01*
X132768984Y-87397999D01*
X132773920Y-87397805D01*
X132802336Y-87395570D01*
X132814931Y-87393270D01*
X132960790Y-87350893D01*
X132975221Y-87344648D01*
X133104678Y-87268089D01*
X133117104Y-87258449D01*
X133223449Y-87152104D01*
X133233089Y-87139678D01*
X133309648Y-87010221D01*
X133315893Y-86995790D01*
X133354939Y-86861395D01*
X133354899Y-86847294D01*
X133347630Y-86844000D01*
X132352115Y-86844000D01*
X132336876Y-86848475D01*
X132335671Y-86849865D01*
X132334000Y-86857548D01*
X132334000Y-87379884D01*
X131826000Y-87379884D01*
X131826000Y-86862115D01*
X131821525Y-86846876D01*
X131820135Y-86845671D01*
X131812452Y-86844000D01*
X130800007Y-86844000D01*
X130800007Y-86840893D01*
X130757714Y-86840895D01*
X130704112Y-86809092D01*
X130688381Y-86793361D01*
X130545784Y-86707002D01*
X130497878Y-86654606D01*
X130485905Y-86584627D01*
X130513666Y-86519282D01*
X130545781Y-86491453D01*
X130548880Y-86489576D01*
X130548879Y-86489576D01*
X130555381Y-86485639D01*
X130646615Y-86394405D01*
X130708927Y-86360379D01*
X130735710Y-86357500D01*
X131202226Y-86357500D01*
X131237376Y-86362503D01*
X131351169Y-86395562D01*
X131357579Y-86396067D01*
X131357582Y-86396067D01*
X131386042Y-86398307D01*
X131386050Y-86398307D01*
X131388498Y-86398500D01*
X132771502Y-86398500D01*
X132773950Y-86398307D01*
X132773958Y-86398307D01*
X132802421Y-86396067D01*
X132802426Y-86396066D01*
X132808831Y-86395562D01*
X132884777Y-86373498D01*
X132960989Y-86351357D01*
X132960993Y-86351355D01*
X132968601Y-86349145D01*
X132973725Y-86346115D01*
X133022570Y-86336000D01*
X133341878Y-86336000D01*
X133355409Y-86332027D01*
X133356544Y-86324129D01*
X133315893Y-86184210D01*
X133309648Y-86169779D01*
X133300689Y-86154630D01*
X133283230Y-86085814D01*
X133300690Y-86026352D01*
X133314145Y-86003601D01*
X133360562Y-85843831D01*
X133363500Y-85806502D01*
X133363500Y-85373498D01*
X133363307Y-85371042D01*
X133361067Y-85342579D01*
X133361066Y-85342574D01*
X133360562Y-85336169D01*
X133314145Y-85176399D01*
X133310109Y-85169574D01*
X133300980Y-85154137D01*
X133283522Y-85085321D01*
X133300980Y-85025863D01*
X133310109Y-85010426D01*
X133310110Y-85010424D01*
X133314145Y-85003601D01*
X133360562Y-84843831D01*
X133363500Y-84806502D01*
X133363500Y-84373498D01*
X133360562Y-84336169D01*
X133314145Y-84176399D01*
X133310109Y-84169574D01*
X133300980Y-84154137D01*
X133283522Y-84085321D01*
X133300980Y-84025863D01*
X133310109Y-84010426D01*
X133310110Y-84010424D01*
X133314145Y-84003601D01*
X133316415Y-83995790D01*
X133331528Y-83943769D01*
X133360562Y-83843831D01*
X133361365Y-83833638D01*
X133363307Y-83808958D01*
X133363307Y-83808950D01*
X133363500Y-83806502D01*
X133363500Y-83373498D01*
X133362601Y-83362077D01*
X133361067Y-83342579D01*
X133361066Y-83342574D01*
X133360562Y-83336169D01*
X133323243Y-83207715D01*
X133316357Y-83184012D01*
X133316356Y-83184010D01*
X133314145Y-83176399D01*
X133280507Y-83119521D01*
X133233491Y-83040020D01*
X133233489Y-83040017D01*
X133229453Y-83033193D01*
X133111807Y-82915547D01*
X133104983Y-82911511D01*
X133104980Y-82911509D01*
X132975427Y-82834892D01*
X132975428Y-82834892D01*
X132968601Y-82830855D01*
X132960990Y-82828644D01*
X132960988Y-82828643D01*
X132908769Y-82813472D01*
X132808831Y-82784438D01*
X132802426Y-82783934D01*
X132802421Y-82783933D01*
X132773958Y-82781693D01*
X132773950Y-82781693D01*
X132771502Y-82781500D01*
X132474110Y-82781500D01*
X132405989Y-82761498D01*
X132359496Y-82707842D01*
X132348800Y-82642330D01*
X132357814Y-82556565D01*
X132358504Y-82550000D01*
X132338542Y-82360072D01*
X132279527Y-82178444D01*
X132184040Y-82013056D01*
X132075777Y-81892817D01*
X132060675Y-81876045D01*
X132060674Y-81876044D01*
X132056253Y-81871134D01*
X131927097Y-81777296D01*
X131907094Y-81762763D01*
X131907093Y-81762762D01*
X131901752Y-81758882D01*
X131895724Y-81756198D01*
X131895722Y-81756197D01*
X131733319Y-81683891D01*
X131733318Y-81683891D01*
X131727288Y-81681206D01*
X131633888Y-81661353D01*
X131546944Y-81642872D01*
X131546939Y-81642872D01*
X131540487Y-81641500D01*
X131349513Y-81641500D01*
X131343061Y-81642872D01*
X131343056Y-81642872D01*
X131256112Y-81661353D01*
X131162712Y-81681206D01*
X131156682Y-81683891D01*
X131156681Y-81683891D01*
X130994278Y-81756197D01*
X130994276Y-81756198D01*
X130988248Y-81758882D01*
X130982907Y-81762762D01*
X130982906Y-81762763D01*
X130962903Y-81777296D01*
X130833747Y-81871134D01*
X130829326Y-81876044D01*
X130829325Y-81876045D01*
X130814224Y-81892817D01*
X130705960Y-82013056D01*
X130610473Y-82178444D01*
X130551458Y-82360072D01*
X130531496Y-82550000D01*
X130532186Y-82556565D01*
X130549151Y-82717975D01*
X130551458Y-82739928D01*
X130610473Y-82921556D01*
X130613776Y-82927278D01*
X130613777Y-82927279D01*
X130699311Y-83075427D01*
X130705960Y-83086944D01*
X130782592Y-83172053D01*
X130797405Y-83192219D01*
X130799054Y-83195007D01*
X130816517Y-83263822D01*
X130811601Y-83294305D01*
X130809295Y-83302242D01*
X130771081Y-83362077D01*
X130706585Y-83391754D01*
X130636282Y-83381850D01*
X130599203Y-83356183D01*
X130555381Y-83312361D01*
X130408699Y-83223528D01*
X130401452Y-83221257D01*
X130401450Y-83221256D01*
X130308792Y-83192219D01*
X130245062Y-83172247D01*
X130171635Y-83165500D01*
X130163446Y-83165500D01*
X129803808Y-83165501D01*
X129735689Y-83145499D01*
X129689196Y-83091844D01*
X129679091Y-83021570D01*
X129682812Y-83004348D01*
X129706865Y-82921556D01*
X129710562Y-82908831D01*
X129713500Y-82871502D01*
X129713500Y-81714500D01*
X129733502Y-81646379D01*
X129787158Y-81599886D01*
X129839500Y-81588500D01*
X130071502Y-81588500D01*
X130073950Y-81588307D01*
X130073958Y-81588307D01*
X130102421Y-81586067D01*
X130102426Y-81586066D01*
X130108831Y-81585562D01*
X130208769Y-81556528D01*
X130260988Y-81541357D01*
X130260990Y-81541356D01*
X130268601Y-81539145D01*
X130329842Y-81502927D01*
X130404980Y-81458491D01*
X130404983Y-81458489D01*
X130411807Y-81454453D01*
X130529453Y-81336807D01*
X130533489Y-81329983D01*
X130533491Y-81329980D01*
X130610108Y-81200427D01*
X130614145Y-81193601D01*
X130617566Y-81181828D01*
X130641153Y-81100639D01*
X130660562Y-81033831D01*
X130661067Y-81027418D01*
X130661068Y-81027411D01*
X130663285Y-80999249D01*
X130688570Y-80932908D01*
X130745709Y-80890768D01*
X130815092Y-80885889D01*
X130880587Y-80899811D01*
X130962056Y-80917128D01*
X130962061Y-80917128D01*
X130968513Y-80918500D01*
X131159487Y-80918500D01*
X131165939Y-80917128D01*
X131165944Y-80917128D01*
X131252888Y-80898647D01*
X131346288Y-80878794D01*
X131355351Y-80874759D01*
X131514722Y-80803803D01*
X131514724Y-80803802D01*
X131520752Y-80801118D01*
X131538808Y-80788000D01*
X131666123Y-80695499D01*
X131675253Y-80688866D01*
X131727830Y-80630473D01*
X131798621Y-80551852D01*
X131798622Y-80551851D01*
X131803040Y-80546944D01*
X131880775Y-80412303D01*
X131895223Y-80387279D01*
X131895224Y-80387278D01*
X131898527Y-80381556D01*
X131957542Y-80199928D01*
X131977504Y-80010000D01*
X131975249Y-79988542D01*
X131958232Y-79826635D01*
X131958232Y-79826633D01*
X131957542Y-79820072D01*
X131898527Y-79638444D01*
X131886812Y-79618152D01*
X131846666Y-79548619D01*
X131803040Y-79473056D01*
X131778808Y-79446143D01*
X131738591Y-79401478D01*
X131707873Y-79337471D01*
X131716638Y-79267017D01*
X131724451Y-79251897D01*
X131731537Y-79240196D01*
X131735472Y-79233699D01*
X131740290Y-79218327D01*
X131773884Y-79111126D01*
X131786753Y-79070062D01*
X131793500Y-78996635D01*
X131793500Y-78847655D01*
X132859858Y-78847655D01*
X132895104Y-79106638D01*
X132896412Y-79111124D01*
X132896412Y-79111126D01*
X132916098Y-79178664D01*
X132968243Y-79357567D01*
X132970203Y-79361820D01*
X132970204Y-79361821D01*
X132988486Y-79401478D01*
X133077668Y-79594928D01*
X133080231Y-79598837D01*
X133218410Y-79809596D01*
X133218414Y-79809601D01*
X133220976Y-79813509D01*
X133395018Y-80008506D01*
X133595970Y-80175637D01*
X133599973Y-80178066D01*
X133815422Y-80308804D01*
X133815426Y-80308806D01*
X133819419Y-80311229D01*
X134060455Y-80412303D01*
X134313783Y-80476641D01*
X134318434Y-80477109D01*
X134318438Y-80477110D01*
X134511308Y-80496531D01*
X134530867Y-80498500D01*
X134686354Y-80498500D01*
X134688679Y-80498327D01*
X134688685Y-80498327D01*
X134876000Y-80484407D01*
X134876004Y-80484406D01*
X134880652Y-80484061D01*
X134885200Y-80483032D01*
X134885206Y-80483031D01*
X135071601Y-80440853D01*
X135135577Y-80426377D01*
X135171769Y-80412303D01*
X135374824Y-80333340D01*
X135374827Y-80333339D01*
X135379177Y-80331647D01*
X135606098Y-80201951D01*
X135811357Y-80040138D01*
X135990443Y-79849763D01*
X136109608Y-79677988D01*
X136136759Y-79638851D01*
X136136761Y-79638848D01*
X136139424Y-79635009D01*
X136189706Y-79533047D01*
X136252960Y-79404781D01*
X136252961Y-79404778D01*
X136255025Y-79400593D01*
X136260797Y-79382563D01*
X136333280Y-79156123D01*
X136334707Y-79151665D01*
X136376721Y-78893693D01*
X136380142Y-78632345D01*
X136344896Y-78373362D01*
X136330473Y-78323877D01*
X136305967Y-78239804D01*
X136271757Y-78122433D01*
X136252599Y-78080875D01*
X136164289Y-77889318D01*
X136162332Y-77885072D01*
X136056650Y-77723880D01*
X136021590Y-77670404D01*
X136021586Y-77670399D01*
X136019024Y-77666491D01*
X135844982Y-77471494D01*
X135644030Y-77304363D01*
X135556755Y-77251403D01*
X135424578Y-77171196D01*
X135424574Y-77171194D01*
X135420581Y-77168771D01*
X135179545Y-77067697D01*
X134926217Y-77003359D01*
X134921566Y-77002891D01*
X134921562Y-77002890D01*
X134712271Y-76981816D01*
X134709133Y-76981500D01*
X134553646Y-76981500D01*
X134551321Y-76981673D01*
X134551315Y-76981673D01*
X134364000Y-76995593D01*
X134363996Y-76995594D01*
X134359348Y-76995939D01*
X134354800Y-76996968D01*
X134354794Y-76996969D01*
X134168399Y-77039147D01*
X134104423Y-77053623D01*
X134100071Y-77055315D01*
X134100069Y-77055316D01*
X133865176Y-77146660D01*
X133865173Y-77146661D01*
X133860823Y-77148353D01*
X133856769Y-77150670D01*
X133856767Y-77150671D01*
X133825099Y-77168771D01*
X133633902Y-77278049D01*
X133428643Y-77439862D01*
X133249557Y-77630237D01*
X133176355Y-77735757D01*
X133113817Y-77825905D01*
X133100576Y-77844991D01*
X133098510Y-77849181D01*
X133098508Y-77849184D01*
X133022115Y-78004095D01*
X132984975Y-78079407D01*
X132983553Y-78083850D01*
X132983552Y-78083852D01*
X132963460Y-78146621D01*
X132905293Y-78328335D01*
X132863279Y-78586307D01*
X132863218Y-78590980D01*
X132861248Y-78741500D01*
X132859858Y-78847655D01*
X131793500Y-78847655D01*
X131793499Y-78483366D01*
X131786753Y-78409938D01*
X131759783Y-78323877D01*
X131737744Y-78253550D01*
X131737743Y-78253548D01*
X131735472Y-78246301D01*
X131646639Y-78099619D01*
X131551115Y-78004095D01*
X131517089Y-77941783D01*
X131522154Y-77870968D01*
X131551115Y-77825905D01*
X131646639Y-77730381D01*
X131735472Y-77583699D01*
X131786753Y-77420062D01*
X131793500Y-77346635D01*
X131793500Y-77089373D01*
X131793499Y-76834500D01*
X131813501Y-76766379D01*
X131867156Y-76719886D01*
X131919499Y-76708500D01*
X135205633Y-76708500D01*
X135225018Y-76710000D01*
G37*
%TD.AperFunction*%
%TA.AperFunction,Conductor*%
G36*
X127447519Y-81483624D02*
G01*
X127541399Y-81539145D01*
X127549010Y-81541356D01*
X127549012Y-81541357D01*
X127601231Y-81556528D01*
X127701169Y-81585562D01*
X127707574Y-81586066D01*
X127707579Y-81586067D01*
X127736042Y-81588307D01*
X127736050Y-81588307D01*
X127738498Y-81588500D01*
X127970500Y-81588500D01*
X128038621Y-81608502D01*
X128085114Y-81662158D01*
X128096500Y-81714500D01*
X128096500Y-82871502D01*
X128099438Y-82908831D01*
X128103135Y-82921556D01*
X128137552Y-83040020D01*
X128145855Y-83068601D01*
X128149892Y-83075427D01*
X128226509Y-83204980D01*
X128226511Y-83204983D01*
X128230547Y-83211807D01*
X128236155Y-83217415D01*
X128241011Y-83223675D01*
X128239504Y-83224844D01*
X128268621Y-83278167D01*
X128271500Y-83304950D01*
X128271500Y-83321233D01*
X128270973Y-83332416D01*
X128269298Y-83339909D01*
X128269547Y-83347835D01*
X128269547Y-83347836D01*
X128271438Y-83407986D01*
X128271500Y-83411945D01*
X128271500Y-83439856D01*
X128271997Y-83443790D01*
X128271997Y-83443791D01*
X128272005Y-83443856D01*
X128272938Y-83455693D01*
X128274327Y-83499889D01*
X128279978Y-83519339D01*
X128283987Y-83538700D01*
X128286526Y-83558797D01*
X128289444Y-83566167D01*
X128291416Y-83573848D01*
X128289251Y-83574404D01*
X128294694Y-83633749D01*
X128293883Y-83637086D01*
X128291819Y-83641855D01*
X128290579Y-83649681D01*
X128290577Y-83649689D01*
X128284901Y-83685524D01*
X128282495Y-83697144D01*
X128275472Y-83724500D01*
X128271500Y-83739970D01*
X128271500Y-83760224D01*
X128269949Y-83779934D01*
X128266780Y-83799943D01*
X128267526Y-83807835D01*
X128270941Y-83843961D01*
X128271500Y-83855819D01*
X128271500Y-84387476D01*
X128251498Y-84455597D01*
X128239142Y-84471779D01*
X128165960Y-84553056D01*
X128070473Y-84718444D01*
X128011458Y-84900072D01*
X127991496Y-85090000D01*
X128011458Y-85279928D01*
X128070473Y-85461556D01*
X128165960Y-85626944D01*
X128293747Y-85768866D01*
X128300171Y-85773533D01*
X128300714Y-85773928D01*
X128301425Y-85774850D01*
X128303998Y-85777167D01*
X128303574Y-85777638D01*
X128344066Y-85830152D01*
X128350140Y-85900889D01*
X128320286Y-85960172D01*
X128278559Y-86006515D01*
X128251960Y-86036056D01*
X128156473Y-86201444D01*
X128097458Y-86383072D01*
X128096768Y-86389633D01*
X128096768Y-86389635D01*
X128080093Y-86548292D01*
X128053080Y-86613949D01*
X128043878Y-86624217D01*
X128012502Y-86655593D01*
X127961087Y-86686732D01*
X127904301Y-86704528D01*
X127897804Y-86708463D01*
X127897801Y-86708464D01*
X127796005Y-86770114D01*
X127757619Y-86793361D01*
X127636361Y-86914619D01*
X127547528Y-87061301D01*
X127545257Y-87068548D01*
X127545256Y-87068550D01*
X127543884Y-87072928D01*
X127496247Y-87224938D01*
X127489500Y-87298365D01*
X127489501Y-87961634D01*
X127489764Y-87964492D01*
X127489764Y-87964501D01*
X127490301Y-87970342D01*
X127496247Y-88035062D01*
X127547528Y-88198699D01*
X127636361Y-88345381D01*
X127757619Y-88466639D01*
X127764120Y-88470576D01*
X127770063Y-88475236D01*
X127811327Y-88533010D01*
X127814805Y-88603921D01*
X127779394Y-88665456D01*
X127730998Y-88691154D01*
X127731937Y-88693968D01*
X127571216Y-88747588D01*
X127558038Y-88753761D01*
X127420193Y-88839063D01*
X127408792Y-88848099D01*
X127294262Y-88962828D01*
X127287206Y-88971762D01*
X127229288Y-89012823D01*
X127158365Y-89016053D01*
X127096954Y-88980426D01*
X127090154Y-88972593D01*
X127086478Y-88966652D01*
X127081296Y-88961479D01*
X127076749Y-88955742D01*
X127077824Y-88954890D01*
X127047508Y-88899493D01*
X127052508Y-88828672D01*
X127069778Y-88797031D01*
X127109786Y-88743648D01*
X127118324Y-88728054D01*
X127163478Y-88607606D01*
X127167105Y-88592351D01*
X127172631Y-88541486D01*
X127173000Y-88534672D01*
X127173000Y-88062115D01*
X127168525Y-88046876D01*
X127167135Y-88045671D01*
X127159452Y-88044000D01*
X126237000Y-88044000D01*
X126168879Y-88023998D01*
X126122386Y-87970342D01*
X126111000Y-87918000D01*
X126111000Y-87517885D01*
X126619000Y-87517885D01*
X126623475Y-87533124D01*
X126624865Y-87534329D01*
X126632548Y-87536000D01*
X127154884Y-87536000D01*
X127170123Y-87531525D01*
X127171328Y-87530135D01*
X127172999Y-87522452D01*
X127172999Y-87045331D01*
X127172629Y-87038510D01*
X127167105Y-86987648D01*
X127163479Y-86972396D01*
X127118324Y-86851946D01*
X127109786Y-86836351D01*
X127033285Y-86734276D01*
X127020724Y-86721715D01*
X126918649Y-86645214D01*
X126903054Y-86636676D01*
X126782606Y-86591522D01*
X126767351Y-86587895D01*
X126716486Y-86582369D01*
X126709672Y-86582000D01*
X126637115Y-86582000D01*
X126621876Y-86586475D01*
X126620671Y-86587865D01*
X126619000Y-86595548D01*
X126619000Y-87517885D01*
X126111000Y-87517885D01*
X126111000Y-86600116D01*
X126106525Y-86584877D01*
X126105135Y-86583672D01*
X126097452Y-86582001D01*
X126020331Y-86582001D01*
X126013510Y-86582371D01*
X125962648Y-86587895D01*
X125947396Y-86591521D01*
X125826946Y-86636676D01*
X125811352Y-86645214D01*
X125805981Y-86649239D01*
X125739474Y-86674086D01*
X125670092Y-86659032D01*
X125654853Y-86649239D01*
X125648891Y-86644770D01*
X125648888Y-86644768D01*
X125641705Y-86639385D01*
X125505316Y-86588255D01*
X125443134Y-86581500D01*
X124746866Y-86581500D01*
X124684684Y-86588255D01*
X124548295Y-86639385D01*
X124535565Y-86648926D01*
X124469061Y-86673774D01*
X124399678Y-86658722D01*
X124384441Y-86648930D01*
X124371705Y-86639385D01*
X124235316Y-86588255D01*
X124173134Y-86581500D01*
X123476866Y-86581500D01*
X123414684Y-86588255D01*
X123278295Y-86639385D01*
X123265565Y-86648926D01*
X123199061Y-86673774D01*
X123129678Y-86658722D01*
X123114441Y-86648930D01*
X123101705Y-86639385D01*
X122965316Y-86588255D01*
X122903134Y-86581500D01*
X122425500Y-86581500D01*
X122357379Y-86561498D01*
X122310886Y-86507842D01*
X122299500Y-86455500D01*
X122299500Y-83724500D01*
X122319502Y-83656379D01*
X122373158Y-83609886D01*
X122425500Y-83598500D01*
X122903134Y-83598500D01*
X122965316Y-83591745D01*
X123101705Y-83540615D01*
X123114435Y-83531074D01*
X123180939Y-83506226D01*
X123250322Y-83521278D01*
X123265559Y-83531070D01*
X123278295Y-83540615D01*
X123414684Y-83591745D01*
X123476866Y-83598500D01*
X124173134Y-83598500D01*
X124235316Y-83591745D01*
X124371705Y-83540615D01*
X124384435Y-83531074D01*
X124450939Y-83506226D01*
X124520322Y-83521278D01*
X124535559Y-83531070D01*
X124548295Y-83540615D01*
X124684684Y-83591745D01*
X124746866Y-83598500D01*
X125443134Y-83598500D01*
X125505316Y-83591745D01*
X125641705Y-83540615D01*
X125654435Y-83531074D01*
X125720939Y-83506226D01*
X125790322Y-83521278D01*
X125805559Y-83531070D01*
X125818295Y-83540615D01*
X125954684Y-83591745D01*
X126016866Y-83598500D01*
X126713134Y-83598500D01*
X126775316Y-83591745D01*
X126911705Y-83540615D01*
X127028261Y-83453261D01*
X127115615Y-83336705D01*
X127166745Y-83200316D01*
X127173500Y-83138134D01*
X127173500Y-81716215D01*
X127193502Y-81648094D01*
X127205858Y-81631912D01*
X127231040Y-81603944D01*
X127274264Y-81529078D01*
X127325645Y-81480086D01*
X127395359Y-81466649D01*
X127447519Y-81483624D01*
G37*
%TD.AperFunction*%
%TD*%
M02*
