%TF.GenerationSoftware,KiCad,Pcbnew,(6.0.10)*%
%TF.CreationDate,2023-01-14T14:38:56-05:00*%
%TF.ProjectId,AS5600-Breakout,41533536-3030-42d4-9272-65616b6f7574,rev?*%
%TF.SameCoordinates,Original*%
%TF.FileFunction,Drillmap*%
%TF.FilePolarity,Positive*%
%FSLAX45Y45*%
G04 Gerber Fmt 4.5, Leading zero omitted, Abs format (unit mm)*
G04 Created by KiCad (PCBNEW (6.0.10)) date 2023-01-14 14:38:56*
%MOMM*%
%LPD*%
G01*
G04 APERTURE LIST*
%ADD10C,0.100000*%
%ADD11C,0.200000*%
%ADD12C,0.040000*%
G04 APERTURE END LIST*
D10*
X13525500Y-9398000D02*
G75*
G03*
X13716000Y-9207500I0J190500D01*
G01*
X11176000Y-9207500D02*
G75*
G03*
X11366500Y-9398000I190500J0D01*
G01*
X13716000Y-7810500D02*
X13716000Y-9207500D01*
X13716000Y-7810500D02*
G75*
G03*
X13525500Y-7620000I-190500J0D01*
G01*
X11366500Y-7620000D02*
X13525500Y-7620000D01*
X13525500Y-9398000D02*
X11366500Y-9398000D01*
X11176000Y-9207500D02*
X11176000Y-7810500D01*
X11366500Y-7620000D02*
G75*
G03*
X11176000Y-7810500I0J-190500D01*
G01*
D11*
D12*
X11473500Y-8362000D02*
X11513500Y-8402000D01*
X11513500Y-8362000D02*
X11473500Y-8402000D01*
X11526550Y-8641400D02*
X11566550Y-8681400D01*
X11566550Y-8641400D02*
X11526550Y-8681400D01*
X11545950Y-8533880D02*
X11585950Y-8573880D01*
X11585950Y-8533880D02*
X11545950Y-8573880D01*
X11841800Y-8235000D02*
X11881800Y-8275000D01*
X11881800Y-8235000D02*
X11841800Y-8275000D01*
X12044500Y-8210100D02*
X12084500Y-8250100D01*
X12084500Y-8210100D02*
X12044500Y-8250100D01*
X12067500Y-8673966D02*
X12107500Y-8713966D01*
X12107500Y-8673966D02*
X12067500Y-8713966D01*
X12167568Y-8102576D02*
X12207568Y-8142576D01*
X12207568Y-8102576D02*
X12167568Y-8142576D01*
X12235500Y-8875424D02*
X12275500Y-8915424D01*
X12275500Y-8875424D02*
X12235500Y-8915424D01*
X12489500Y-8870000D02*
X12529500Y-8910000D01*
X12529500Y-8870000D02*
X12489500Y-8910000D01*
X12629200Y-8086700D02*
X12669200Y-8126700D01*
X12669200Y-8086700D02*
X12629200Y-8126700D01*
X12870500Y-8489000D02*
X12910500Y-8529000D01*
X12910500Y-8489000D02*
X12870500Y-8529000D01*
X12879100Y-8637300D02*
X12919100Y-8677300D01*
X12919100Y-8637300D02*
X12879100Y-8677300D01*
X13086400Y-7981000D02*
X13126400Y-8021000D01*
X13126400Y-7981000D02*
X13086400Y-8021000D01*
X13124500Y-8235000D02*
X13164500Y-8275000D01*
X13164500Y-8235000D02*
X13124500Y-8275000D01*
X13315000Y-8641400D02*
X13355000Y-8681400D01*
X13355000Y-8641400D02*
X13315000Y-8681400D01*
D10*
X12115000Y-7810500D02*
G75*
G03*
X12115000Y-7810500I-50000J0D01*
G01*
X12115000Y-9245600D02*
G75*
G03*
X12115000Y-9245600I-50000J0D01*
G01*
X12369000Y-7810500D02*
G75*
G03*
X12369000Y-7810500I-50000J0D01*
G01*
X12369000Y-9245600D02*
G75*
G03*
X12369000Y-9245600I-50000J0D01*
G01*
X12623000Y-7810500D02*
G75*
G03*
X12623000Y-7810500I-50000J0D01*
G01*
X12623000Y-9245600D02*
G75*
G03*
X12623000Y-9245600I-50000J0D01*
G01*
X12877000Y-7810500D02*
G75*
G03*
X12877000Y-7810500I-50000J0D01*
G01*
X12877000Y-9245600D02*
G75*
G03*
X12877000Y-9245600I-50000J0D01*
G01*
D11*
X11428619Y-9713476D02*
X11428619Y-9513476D01*
X11476238Y-9513476D01*
X11504809Y-9523000D01*
X11523857Y-9542048D01*
X11533381Y-9561095D01*
X11542905Y-9599190D01*
X11542905Y-9627762D01*
X11533381Y-9665857D01*
X11523857Y-9684905D01*
X11504809Y-9703952D01*
X11476238Y-9713476D01*
X11428619Y-9713476D01*
X11628619Y-9713476D02*
X11628619Y-9580143D01*
X11628619Y-9618238D02*
X11638143Y-9599190D01*
X11647667Y-9589667D01*
X11666714Y-9580143D01*
X11685762Y-9580143D01*
X11752428Y-9713476D02*
X11752428Y-9580143D01*
X11752428Y-9513476D02*
X11742905Y-9523000D01*
X11752428Y-9532524D01*
X11761952Y-9523000D01*
X11752428Y-9513476D01*
X11752428Y-9532524D01*
X11876238Y-9713476D02*
X11857190Y-9703952D01*
X11847667Y-9684905D01*
X11847667Y-9513476D01*
X11981000Y-9713476D02*
X11961952Y-9703952D01*
X11952428Y-9684905D01*
X11952428Y-9513476D01*
X12209571Y-9713476D02*
X12209571Y-9513476D01*
X12276238Y-9656333D01*
X12342905Y-9513476D01*
X12342905Y-9713476D01*
X12523857Y-9713476D02*
X12523857Y-9608714D01*
X12514333Y-9589667D01*
X12495286Y-9580143D01*
X12457190Y-9580143D01*
X12438143Y-9589667D01*
X12523857Y-9703952D02*
X12504809Y-9713476D01*
X12457190Y-9713476D01*
X12438143Y-9703952D01*
X12428619Y-9684905D01*
X12428619Y-9665857D01*
X12438143Y-9646810D01*
X12457190Y-9637286D01*
X12504809Y-9637286D01*
X12523857Y-9627762D01*
X12619095Y-9580143D02*
X12619095Y-9780143D01*
X12619095Y-9589667D02*
X12638143Y-9580143D01*
X12676238Y-9580143D01*
X12695286Y-9589667D01*
X12704809Y-9599190D01*
X12714333Y-9618238D01*
X12714333Y-9675381D01*
X12704809Y-9694429D01*
X12695286Y-9703952D01*
X12676238Y-9713476D01*
X12638143Y-9713476D01*
X12619095Y-9703952D01*
X12800048Y-9694429D02*
X12809571Y-9703952D01*
X12800048Y-9713476D01*
X12790524Y-9703952D01*
X12800048Y-9694429D01*
X12800048Y-9713476D01*
X12800048Y-9589667D02*
X12809571Y-9599190D01*
X12800048Y-9608714D01*
X12790524Y-9599190D01*
X12800048Y-9589667D01*
X12800048Y-9608714D01*
D12*
X11131000Y-10023000D02*
X11171000Y-10063000D01*
X11171000Y-10023000D02*
X11131000Y-10063000D01*
D11*
X11466714Y-9933476D02*
X11485762Y-9933476D01*
X11504809Y-9943000D01*
X11514333Y-9952524D01*
X11523857Y-9971571D01*
X11533381Y-10009667D01*
X11533381Y-10057286D01*
X11523857Y-10095381D01*
X11514333Y-10114429D01*
X11504809Y-10123952D01*
X11485762Y-10133476D01*
X11466714Y-10133476D01*
X11447667Y-10123952D01*
X11438143Y-10114429D01*
X11428619Y-10095381D01*
X11419095Y-10057286D01*
X11419095Y-10009667D01*
X11428619Y-9971571D01*
X11438143Y-9952524D01*
X11447667Y-9943000D01*
X11466714Y-9933476D01*
X11619095Y-10114429D02*
X11628619Y-10123952D01*
X11619095Y-10133476D01*
X11609571Y-10123952D01*
X11619095Y-10114429D01*
X11619095Y-10133476D01*
X11800048Y-10000143D02*
X11800048Y-10133476D01*
X11752428Y-9923952D02*
X11704809Y-10066810D01*
X11828619Y-10066810D01*
X11942905Y-9933476D02*
X11961952Y-9933476D01*
X11981000Y-9943000D01*
X11990524Y-9952524D01*
X12000048Y-9971571D01*
X12009571Y-10009667D01*
X12009571Y-10057286D01*
X12000048Y-10095381D01*
X11990524Y-10114429D01*
X11981000Y-10123952D01*
X11961952Y-10133476D01*
X11942905Y-10133476D01*
X11923857Y-10123952D01*
X11914333Y-10114429D01*
X11904809Y-10095381D01*
X11895286Y-10057286D01*
X11895286Y-10009667D01*
X11904809Y-9971571D01*
X11914333Y-9952524D01*
X11923857Y-9943000D01*
X11942905Y-9933476D01*
X12133381Y-9933476D02*
X12152428Y-9933476D01*
X12171476Y-9943000D01*
X12181000Y-9952524D01*
X12190524Y-9971571D01*
X12200048Y-10009667D01*
X12200048Y-10057286D01*
X12190524Y-10095381D01*
X12181000Y-10114429D01*
X12171476Y-10123952D01*
X12152428Y-10133476D01*
X12133381Y-10133476D01*
X12114333Y-10123952D01*
X12104809Y-10114429D01*
X12095286Y-10095381D01*
X12085762Y-10057286D01*
X12085762Y-10009667D01*
X12095286Y-9971571D01*
X12104809Y-9952524D01*
X12114333Y-9943000D01*
X12133381Y-9933476D01*
X12285762Y-10133476D02*
X12285762Y-10000143D01*
X12285762Y-10019190D02*
X12295286Y-10009667D01*
X12314333Y-10000143D01*
X12342905Y-10000143D01*
X12361952Y-10009667D01*
X12371476Y-10028714D01*
X12371476Y-10133476D01*
X12371476Y-10028714D02*
X12381000Y-10009667D01*
X12400048Y-10000143D01*
X12428619Y-10000143D01*
X12447667Y-10009667D01*
X12457190Y-10028714D01*
X12457190Y-10133476D01*
X12552428Y-10133476D02*
X12552428Y-10000143D01*
X12552428Y-10019190D02*
X12561952Y-10009667D01*
X12581000Y-10000143D01*
X12609571Y-10000143D01*
X12628619Y-10009667D01*
X12638143Y-10028714D01*
X12638143Y-10133476D01*
X12638143Y-10028714D02*
X12647667Y-10009667D01*
X12666714Y-10000143D01*
X12695286Y-10000143D01*
X12714333Y-10009667D01*
X12723857Y-10028714D01*
X12723857Y-10133476D01*
X13114333Y-9923952D02*
X12942905Y-10181095D01*
X13371476Y-9933476D02*
X13390524Y-9933476D01*
X13409571Y-9943000D01*
X13419095Y-9952524D01*
X13428619Y-9971571D01*
X13438143Y-10009667D01*
X13438143Y-10057286D01*
X13428619Y-10095381D01*
X13419095Y-10114429D01*
X13409571Y-10123952D01*
X13390524Y-10133476D01*
X13371476Y-10133476D01*
X13352428Y-10123952D01*
X13342905Y-10114429D01*
X13333381Y-10095381D01*
X13323857Y-10057286D01*
X13323857Y-10009667D01*
X13333381Y-9971571D01*
X13342905Y-9952524D01*
X13352428Y-9943000D01*
X13371476Y-9933476D01*
X13523857Y-10114429D02*
X13533381Y-10123952D01*
X13523857Y-10133476D01*
X13514333Y-10123952D01*
X13523857Y-10114429D01*
X13523857Y-10133476D01*
X13657190Y-9933476D02*
X13676238Y-9933476D01*
X13695286Y-9943000D01*
X13704809Y-9952524D01*
X13714333Y-9971571D01*
X13723857Y-10009667D01*
X13723857Y-10057286D01*
X13714333Y-10095381D01*
X13704809Y-10114429D01*
X13695286Y-10123952D01*
X13676238Y-10133476D01*
X13657190Y-10133476D01*
X13638143Y-10123952D01*
X13628619Y-10114429D01*
X13619095Y-10095381D01*
X13609571Y-10057286D01*
X13609571Y-10009667D01*
X13619095Y-9971571D01*
X13628619Y-9952524D01*
X13638143Y-9943000D01*
X13657190Y-9933476D01*
X13914333Y-10133476D02*
X13800048Y-10133476D01*
X13857190Y-10133476D02*
X13857190Y-9933476D01*
X13838143Y-9962048D01*
X13819095Y-9981095D01*
X13800048Y-9990619D01*
X14095286Y-9933476D02*
X14000048Y-9933476D01*
X13990524Y-10028714D01*
X14000048Y-10019190D01*
X14019095Y-10009667D01*
X14066714Y-10009667D01*
X14085762Y-10019190D01*
X14095286Y-10028714D01*
X14104809Y-10047762D01*
X14104809Y-10095381D01*
X14095286Y-10114429D01*
X14085762Y-10123952D01*
X14066714Y-10133476D01*
X14019095Y-10133476D01*
X14000048Y-10123952D01*
X13990524Y-10114429D01*
X14171476Y-9933476D02*
X14304809Y-9933476D01*
X14219095Y-10133476D01*
X14371476Y-9933476D02*
X14371476Y-9971571D01*
X14447667Y-9933476D02*
X14447667Y-9971571D01*
X14742905Y-10209667D02*
X14733381Y-10200143D01*
X14714333Y-10171571D01*
X14704809Y-10152524D01*
X14695286Y-10123952D01*
X14685762Y-10076333D01*
X14685762Y-10038238D01*
X14695286Y-9990619D01*
X14704809Y-9962048D01*
X14714333Y-9943000D01*
X14733381Y-9914429D01*
X14742905Y-9904905D01*
X14923857Y-10133476D02*
X14809571Y-10133476D01*
X14866714Y-10133476D02*
X14866714Y-9933476D01*
X14847667Y-9962048D01*
X14828619Y-9981095D01*
X14809571Y-9990619D01*
X15104809Y-9933476D02*
X15009571Y-9933476D01*
X15000048Y-10028714D01*
X15009571Y-10019190D01*
X15028619Y-10009667D01*
X15076238Y-10009667D01*
X15095286Y-10019190D01*
X15104809Y-10028714D01*
X15114333Y-10047762D01*
X15114333Y-10095381D01*
X15104809Y-10114429D01*
X15095286Y-10123952D01*
X15076238Y-10133476D01*
X15028619Y-10133476D01*
X15009571Y-10123952D01*
X15000048Y-10114429D01*
X15352428Y-10133476D02*
X15352428Y-9933476D01*
X15438143Y-10133476D02*
X15438143Y-10028714D01*
X15428619Y-10009667D01*
X15409571Y-10000143D01*
X15381000Y-10000143D01*
X15361952Y-10009667D01*
X15352428Y-10019190D01*
X15561952Y-10133476D02*
X15542905Y-10123952D01*
X15533381Y-10114429D01*
X15523857Y-10095381D01*
X15523857Y-10038238D01*
X15533381Y-10019190D01*
X15542905Y-10009667D01*
X15561952Y-10000143D01*
X15590524Y-10000143D01*
X15609571Y-10009667D01*
X15619095Y-10019190D01*
X15628619Y-10038238D01*
X15628619Y-10095381D01*
X15619095Y-10114429D01*
X15609571Y-10123952D01*
X15590524Y-10133476D01*
X15561952Y-10133476D01*
X15742905Y-10133476D02*
X15723857Y-10123952D01*
X15714333Y-10104905D01*
X15714333Y-9933476D01*
X15895286Y-10123952D02*
X15876238Y-10133476D01*
X15838143Y-10133476D01*
X15819095Y-10123952D01*
X15809571Y-10104905D01*
X15809571Y-10028714D01*
X15819095Y-10009667D01*
X15838143Y-10000143D01*
X15876238Y-10000143D01*
X15895286Y-10009667D01*
X15904809Y-10028714D01*
X15904809Y-10047762D01*
X15809571Y-10066810D01*
X15981000Y-10123952D02*
X16000048Y-10133476D01*
X16038143Y-10133476D01*
X16057190Y-10123952D01*
X16066714Y-10104905D01*
X16066714Y-10095381D01*
X16057190Y-10076333D01*
X16038143Y-10066810D01*
X16009571Y-10066810D01*
X15990524Y-10057286D01*
X15981000Y-10038238D01*
X15981000Y-10028714D01*
X15990524Y-10009667D01*
X16009571Y-10000143D01*
X16038143Y-10000143D01*
X16057190Y-10009667D01*
X16133381Y-10209667D02*
X16142905Y-10200143D01*
X16161952Y-10171571D01*
X16171476Y-10152524D01*
X16181000Y-10123952D01*
X16190524Y-10076333D01*
X16190524Y-10038238D01*
X16181000Y-9990619D01*
X16171476Y-9962048D01*
X16161952Y-9943000D01*
X16142905Y-9914429D01*
X16133381Y-9904905D01*
D10*
X11171000Y-10307000D02*
G75*
G03*
X11171000Y-10307000I-50000J0D01*
G01*
D11*
X11533381Y-10397476D02*
X11419095Y-10397476D01*
X11476238Y-10397476D02*
X11476238Y-10197476D01*
X11457190Y-10226048D01*
X11438143Y-10245095D01*
X11419095Y-10254619D01*
X11619095Y-10378429D02*
X11628619Y-10387952D01*
X11619095Y-10397476D01*
X11609571Y-10387952D01*
X11619095Y-10378429D01*
X11619095Y-10397476D01*
X11752428Y-10197476D02*
X11771476Y-10197476D01*
X11790524Y-10207000D01*
X11800048Y-10216524D01*
X11809571Y-10235571D01*
X11819095Y-10273667D01*
X11819095Y-10321286D01*
X11809571Y-10359381D01*
X11800048Y-10378429D01*
X11790524Y-10387952D01*
X11771476Y-10397476D01*
X11752428Y-10397476D01*
X11733381Y-10387952D01*
X11723857Y-10378429D01*
X11714333Y-10359381D01*
X11704809Y-10321286D01*
X11704809Y-10273667D01*
X11714333Y-10235571D01*
X11723857Y-10216524D01*
X11733381Y-10207000D01*
X11752428Y-10197476D01*
X11942905Y-10197476D02*
X11961952Y-10197476D01*
X11981000Y-10207000D01*
X11990524Y-10216524D01*
X12000048Y-10235571D01*
X12009571Y-10273667D01*
X12009571Y-10321286D01*
X12000048Y-10359381D01*
X11990524Y-10378429D01*
X11981000Y-10387952D01*
X11961952Y-10397476D01*
X11942905Y-10397476D01*
X11923857Y-10387952D01*
X11914333Y-10378429D01*
X11904809Y-10359381D01*
X11895286Y-10321286D01*
X11895286Y-10273667D01*
X11904809Y-10235571D01*
X11914333Y-10216524D01*
X11923857Y-10207000D01*
X11942905Y-10197476D01*
X12133381Y-10197476D02*
X12152428Y-10197476D01*
X12171476Y-10207000D01*
X12181000Y-10216524D01*
X12190524Y-10235571D01*
X12200048Y-10273667D01*
X12200048Y-10321286D01*
X12190524Y-10359381D01*
X12181000Y-10378429D01*
X12171476Y-10387952D01*
X12152428Y-10397476D01*
X12133381Y-10397476D01*
X12114333Y-10387952D01*
X12104809Y-10378429D01*
X12095286Y-10359381D01*
X12085762Y-10321286D01*
X12085762Y-10273667D01*
X12095286Y-10235571D01*
X12104809Y-10216524D01*
X12114333Y-10207000D01*
X12133381Y-10197476D01*
X12285762Y-10397476D02*
X12285762Y-10264143D01*
X12285762Y-10283190D02*
X12295286Y-10273667D01*
X12314333Y-10264143D01*
X12342905Y-10264143D01*
X12361952Y-10273667D01*
X12371476Y-10292714D01*
X12371476Y-10397476D01*
X12371476Y-10292714D02*
X12381000Y-10273667D01*
X12400048Y-10264143D01*
X12428619Y-10264143D01*
X12447667Y-10273667D01*
X12457190Y-10292714D01*
X12457190Y-10397476D01*
X12552428Y-10397476D02*
X12552428Y-10264143D01*
X12552428Y-10283190D02*
X12561952Y-10273667D01*
X12581000Y-10264143D01*
X12609571Y-10264143D01*
X12628619Y-10273667D01*
X12638143Y-10292714D01*
X12638143Y-10397476D01*
X12638143Y-10292714D02*
X12647667Y-10273667D01*
X12666714Y-10264143D01*
X12695286Y-10264143D01*
X12714333Y-10273667D01*
X12723857Y-10292714D01*
X12723857Y-10397476D01*
X13114333Y-10187952D02*
X12942905Y-10445095D01*
X13371476Y-10197476D02*
X13390524Y-10197476D01*
X13409571Y-10207000D01*
X13419095Y-10216524D01*
X13428619Y-10235571D01*
X13438143Y-10273667D01*
X13438143Y-10321286D01*
X13428619Y-10359381D01*
X13419095Y-10378429D01*
X13409571Y-10387952D01*
X13390524Y-10397476D01*
X13371476Y-10397476D01*
X13352428Y-10387952D01*
X13342905Y-10378429D01*
X13333381Y-10359381D01*
X13323857Y-10321286D01*
X13323857Y-10273667D01*
X13333381Y-10235571D01*
X13342905Y-10216524D01*
X13352428Y-10207000D01*
X13371476Y-10197476D01*
X13523857Y-10378429D02*
X13533381Y-10387952D01*
X13523857Y-10397476D01*
X13514333Y-10387952D01*
X13523857Y-10378429D01*
X13523857Y-10397476D01*
X13657190Y-10197476D02*
X13676238Y-10197476D01*
X13695286Y-10207000D01*
X13704809Y-10216524D01*
X13714333Y-10235571D01*
X13723857Y-10273667D01*
X13723857Y-10321286D01*
X13714333Y-10359381D01*
X13704809Y-10378429D01*
X13695286Y-10387952D01*
X13676238Y-10397476D01*
X13657190Y-10397476D01*
X13638143Y-10387952D01*
X13628619Y-10378429D01*
X13619095Y-10359381D01*
X13609571Y-10321286D01*
X13609571Y-10273667D01*
X13619095Y-10235571D01*
X13628619Y-10216524D01*
X13638143Y-10207000D01*
X13657190Y-10197476D01*
X13790524Y-10197476D02*
X13914333Y-10197476D01*
X13847667Y-10273667D01*
X13876238Y-10273667D01*
X13895286Y-10283190D01*
X13904809Y-10292714D01*
X13914333Y-10311762D01*
X13914333Y-10359381D01*
X13904809Y-10378429D01*
X13895286Y-10387952D01*
X13876238Y-10397476D01*
X13819095Y-10397476D01*
X13800048Y-10387952D01*
X13790524Y-10378429D01*
X14009571Y-10397476D02*
X14047667Y-10397476D01*
X14066714Y-10387952D01*
X14076238Y-10378429D01*
X14095286Y-10349857D01*
X14104809Y-10311762D01*
X14104809Y-10235571D01*
X14095286Y-10216524D01*
X14085762Y-10207000D01*
X14066714Y-10197476D01*
X14028619Y-10197476D01*
X14009571Y-10207000D01*
X14000048Y-10216524D01*
X13990524Y-10235571D01*
X13990524Y-10283190D01*
X14000048Y-10302238D01*
X14009571Y-10311762D01*
X14028619Y-10321286D01*
X14066714Y-10321286D01*
X14085762Y-10311762D01*
X14095286Y-10302238D01*
X14104809Y-10283190D01*
X14276238Y-10264143D02*
X14276238Y-10397476D01*
X14228619Y-10187952D02*
X14181000Y-10330810D01*
X14304809Y-10330810D01*
X14371476Y-10197476D02*
X14371476Y-10235571D01*
X14447667Y-10197476D02*
X14447667Y-10235571D01*
X14742905Y-10473667D02*
X14733381Y-10464143D01*
X14714333Y-10435571D01*
X14704809Y-10416524D01*
X14695286Y-10387952D01*
X14685762Y-10340333D01*
X14685762Y-10302238D01*
X14695286Y-10254619D01*
X14704809Y-10226048D01*
X14714333Y-10207000D01*
X14733381Y-10178429D01*
X14742905Y-10168905D01*
X14847667Y-10283190D02*
X14828619Y-10273667D01*
X14819095Y-10264143D01*
X14809571Y-10245095D01*
X14809571Y-10235571D01*
X14819095Y-10216524D01*
X14828619Y-10207000D01*
X14847667Y-10197476D01*
X14885762Y-10197476D01*
X14904809Y-10207000D01*
X14914333Y-10216524D01*
X14923857Y-10235571D01*
X14923857Y-10245095D01*
X14914333Y-10264143D01*
X14904809Y-10273667D01*
X14885762Y-10283190D01*
X14847667Y-10283190D01*
X14828619Y-10292714D01*
X14819095Y-10302238D01*
X14809571Y-10321286D01*
X14809571Y-10359381D01*
X14819095Y-10378429D01*
X14828619Y-10387952D01*
X14847667Y-10397476D01*
X14885762Y-10397476D01*
X14904809Y-10387952D01*
X14914333Y-10378429D01*
X14923857Y-10359381D01*
X14923857Y-10321286D01*
X14914333Y-10302238D01*
X14904809Y-10292714D01*
X14885762Y-10283190D01*
X15161952Y-10397476D02*
X15161952Y-10197476D01*
X15247667Y-10397476D02*
X15247667Y-10292714D01*
X15238143Y-10273667D01*
X15219095Y-10264143D01*
X15190524Y-10264143D01*
X15171476Y-10273667D01*
X15161952Y-10283190D01*
X15371476Y-10397476D02*
X15352428Y-10387952D01*
X15342905Y-10378429D01*
X15333381Y-10359381D01*
X15333381Y-10302238D01*
X15342905Y-10283190D01*
X15352428Y-10273667D01*
X15371476Y-10264143D01*
X15400048Y-10264143D01*
X15419095Y-10273667D01*
X15428619Y-10283190D01*
X15438143Y-10302238D01*
X15438143Y-10359381D01*
X15428619Y-10378429D01*
X15419095Y-10387952D01*
X15400048Y-10397476D01*
X15371476Y-10397476D01*
X15552428Y-10397476D02*
X15533381Y-10387952D01*
X15523857Y-10368905D01*
X15523857Y-10197476D01*
X15704809Y-10387952D02*
X15685762Y-10397476D01*
X15647667Y-10397476D01*
X15628619Y-10387952D01*
X15619095Y-10368905D01*
X15619095Y-10292714D01*
X15628619Y-10273667D01*
X15647667Y-10264143D01*
X15685762Y-10264143D01*
X15704809Y-10273667D01*
X15714333Y-10292714D01*
X15714333Y-10311762D01*
X15619095Y-10330810D01*
X15790524Y-10387952D02*
X15809571Y-10397476D01*
X15847667Y-10397476D01*
X15866714Y-10387952D01*
X15876238Y-10368905D01*
X15876238Y-10359381D01*
X15866714Y-10340333D01*
X15847667Y-10330810D01*
X15819095Y-10330810D01*
X15800048Y-10321286D01*
X15790524Y-10302238D01*
X15790524Y-10292714D01*
X15800048Y-10273667D01*
X15819095Y-10264143D01*
X15847667Y-10264143D01*
X15866714Y-10273667D01*
X15942905Y-10473667D02*
X15952428Y-10464143D01*
X15971476Y-10435571D01*
X15981000Y-10416524D01*
X15990524Y-10387952D01*
X16000048Y-10340333D01*
X16000048Y-10302238D01*
X15990524Y-10254619D01*
X15981000Y-10226048D01*
X15971476Y-10207000D01*
X15952428Y-10178429D01*
X15942905Y-10168905D01*
M02*
