M48
; DRILL file {KiCad (6.0.10)} date Sat Jan 14 14:38:55 2023
; FORMAT={-:-/ absolute / metric / decimal}
; #@! TF.CreationDate,2023-01-14T14:38:55-05:00
; #@! TF.GenerationSoftware,Kicad,Pcbnew,(6.0.10)
; #@! TF.FileFunction,Plated,1,2,PTH
FMAT,2
METRIC
; #@! TA.AperFunction,Plated,PTH,ViaDrill
T1C0.400
; #@! TA.AperFunction,Plated,PTH,ComponentDrill
T2C1.000
%
G90
G05
T1
X114.935Y-83.82
X115.465Y-86.614
X115.659Y-85.539
X118.618Y-82.55
X120.645Y-82.301
X120.875Y-86.94
X121.876Y-81.226
X122.555Y-88.954
X125.095Y-88.9
X126.492Y-81.067
X128.905Y-85.09
X128.991Y-86.573
X131.064Y-80.01
X131.445Y-82.55
X133.35Y-86.614
T2
X120.65Y-78.105
X120.65Y-92.456
X123.19Y-78.105
X123.19Y-92.456
X125.73Y-78.105
X125.73Y-92.456
X128.27Y-78.105
X128.27Y-92.456
T0
M30
