%TF.GenerationSoftware,KiCad,Pcbnew,(6.0.10)*%
%TF.CreationDate,2023-01-14T14:38:52-05:00*%
%TF.ProjectId,AS5600-Breakout,41533536-3030-42d4-9272-65616b6f7574,rev?*%
%TF.SameCoordinates,Original*%
%TF.FileFunction,Copper,L2,Bot*%
%TF.FilePolarity,Positive*%
%FSLAX46Y46*%
G04 Gerber Fmt 4.6, Leading zero omitted, Abs format (unit mm)*
G04 Created by KiCad (PCBNEW (6.0.10)) date 2023-01-14 14:38:52*
%MOMM*%
%LPD*%
G01*
G04 APERTURE LIST*
%TA.AperFunction,ComponentPad*%
%ADD10R,1.700000X1.700000*%
%TD*%
%TA.AperFunction,ComponentPad*%
%ADD11O,1.700000X1.700000*%
%TD*%
%TA.AperFunction,ViaPad*%
%ADD12C,0.800000*%
%TD*%
%TA.AperFunction,Conductor*%
%ADD13C,0.250000*%
%TD*%
G04 APERTURE END LIST*
D10*
%TO.P,J2,1,Pin_1*%
%TO.N,PGO*%
X128270000Y-78105000D03*
D11*
%TO.P,J2,2,Pin_2*%
%TO.N,SDA_3v*%
X125730000Y-78105000D03*
%TO.P,J2,3,Pin_3*%
%TO.N,SCL_3v*%
X123190000Y-78105000D03*
%TO.P,J2,4,Pin_4*%
%TO.N,DIR*%
X120650000Y-78105000D03*
%TD*%
D10*
%TO.P,J1,1,Pin_1*%
%TO.N,5V*%
X120650000Y-92456000D03*
D11*
%TO.P,J1,2,Pin_2*%
%TO.N,3.3V*%
X123190000Y-92456000D03*
%TO.P,J1,3,Pin_3*%
%TO.N,OUT*%
X125730000Y-92456000D03*
%TO.P,J1,4,Pin_4*%
%TO.N,GND*%
X128270000Y-92456000D03*
%TD*%
D12*
%TO.N,VCC*%
X120874996Y-86939662D03*
X128991000Y-86573000D03*
%TO.N,GND*%
X114935000Y-83820000D03*
X133350000Y-86614000D03*
%TO.N,3.3V*%
X120645000Y-82301000D03*
X131064000Y-80010000D03*
%TO.N,SDA*%
X128905000Y-85090000D03*
X115659500Y-85538799D03*
%TO.N,SCL*%
X131445000Y-82550000D03*
X118618000Y-82550000D03*
X115465500Y-86614000D03*
%TO.N,5V*%
X122555000Y-88954241D03*
%TO.N,OUT*%
X125095000Y-88900000D03*
%TO.N,PGO*%
X126492000Y-81067000D03*
%TO.N,DIR*%
X121875682Y-81225759D03*
%TD*%
D13*
%TO.N,VCC*%
X125801887Y-86868000D02*
X120946658Y-86868000D01*
X128991000Y-86573000D02*
X126096887Y-86573000D01*
X126096887Y-86573000D02*
X125801887Y-86868000D01*
X120946658Y-86868000D02*
X120874996Y-86939662D01*
%TO.N,GND*%
X118180000Y-84525000D02*
X117475000Y-83820000D01*
X129205305Y-84365000D02*
X127090000Y-84365000D01*
X133350000Y-86614000D02*
X131454305Y-86614000D01*
X117475000Y-83820000D02*
X114935000Y-83820000D01*
X127090000Y-84365000D02*
X126930000Y-84525000D01*
X126930000Y-84525000D02*
X118180000Y-84525000D01*
X131454305Y-86614000D02*
X129205305Y-84365000D01*
%TO.N,3.3V*%
X130187500Y-80010000D02*
X127896500Y-82301000D01*
X131064000Y-80010000D02*
X130187500Y-80010000D01*
X127896500Y-82301000D02*
X120645000Y-82301000D01*
%TO.N,SDA*%
X128526779Y-85468221D02*
X128905000Y-85090000D01*
X115659500Y-85538799D02*
X115730078Y-85468221D01*
X115730078Y-85468221D02*
X128526779Y-85468221D01*
%TO.N,SCL*%
X128397000Y-83058000D02*
X128905000Y-82550000D01*
X114046000Y-85194500D02*
X114046000Y-83312000D01*
X118618000Y-82550000D02*
X119126000Y-83058000D01*
X114046000Y-83312000D02*
X114808000Y-82550000D01*
X114808000Y-82550000D02*
X118618000Y-82550000D01*
X119126000Y-83058000D02*
X128397000Y-83058000D01*
X128905000Y-82550000D02*
X131445000Y-82550000D01*
X115465500Y-86614000D02*
X114046000Y-85194500D01*
%TO.N,5V*%
X120650000Y-90859241D02*
X120650000Y-92456000D01*
X122555000Y-88954241D02*
X120650000Y-90859241D01*
%TO.N,OUT*%
X125730000Y-89535000D02*
X125730000Y-92710000D01*
X125095000Y-88900000D02*
X125730000Y-89535000D01*
%TO.N,PGO*%
X126492000Y-81067000D02*
X128270000Y-79289000D01*
X128270000Y-79289000D02*
X128270000Y-78105000D01*
%TO.N,DIR*%
X121875682Y-81225759D02*
X121875682Y-79330682D01*
X121875682Y-79330682D02*
X120650000Y-78105000D01*
%TD*%
%TA.AperFunction,Conductor*%
%TO.N,GND*%
G36*
X119943622Y-76728502D02*
G01*
X119990115Y-76782158D01*
X120000219Y-76852432D01*
X119970725Y-76917012D01*
X119933683Y-76946262D01*
X119923607Y-76951507D01*
X119919474Y-76954610D01*
X119919471Y-76954612D01*
X119749100Y-77082530D01*
X119744965Y-77085635D01*
X119714490Y-77117525D01*
X119651280Y-77183671D01*
X119590629Y-77247138D01*
X119464743Y-77431680D01*
X119370688Y-77634305D01*
X119310989Y-77849570D01*
X119287251Y-78071695D01*
X119287548Y-78076848D01*
X119287548Y-78076851D01*
X119299812Y-78289547D01*
X119300110Y-78294715D01*
X119301247Y-78299761D01*
X119301248Y-78299767D01*
X119316823Y-78368874D01*
X119349222Y-78512639D01*
X119433266Y-78719616D01*
X119470685Y-78780678D01*
X119547291Y-78905688D01*
X119549987Y-78910088D01*
X119696250Y-79078938D01*
X119789220Y-79156123D01*
X119861580Y-79216197D01*
X119868126Y-79221632D01*
X120061000Y-79334338D01*
X120065825Y-79336180D01*
X120065826Y-79336181D01*
X120132971Y-79361821D01*
X120269692Y-79414030D01*
X120274760Y-79415061D01*
X120274763Y-79415062D01*
X120369292Y-79434294D01*
X120488597Y-79458567D01*
X120493772Y-79458757D01*
X120493774Y-79458757D01*
X120706673Y-79466564D01*
X120706677Y-79466564D01*
X120711837Y-79466753D01*
X120716957Y-79466097D01*
X120716959Y-79466097D01*
X120802732Y-79455109D01*
X120933416Y-79438368D01*
X120979826Y-79424444D01*
X121050821Y-79424026D01*
X121105129Y-79456034D01*
X121205277Y-79556182D01*
X121239303Y-79618494D01*
X121242182Y-79645277D01*
X121242182Y-80523235D01*
X121222180Y-80591356D01*
X121209824Y-80607538D01*
X121136642Y-80688815D01*
X121104392Y-80744674D01*
X121070254Y-80803803D01*
X121041155Y-80854203D01*
X120982140Y-81035831D01*
X120962178Y-81225759D01*
X120962868Y-81232323D01*
X120967042Y-81272034D01*
X120954270Y-81341872D01*
X120905768Y-81393719D01*
X120836936Y-81411114D01*
X120815535Y-81408452D01*
X120746944Y-81393872D01*
X120746939Y-81393872D01*
X120740487Y-81392500D01*
X120549513Y-81392500D01*
X120543061Y-81393872D01*
X120543056Y-81393872D01*
X120456112Y-81412353D01*
X120362712Y-81432206D01*
X120356682Y-81434891D01*
X120356681Y-81434891D01*
X120194278Y-81507197D01*
X120194276Y-81507198D01*
X120188248Y-81509882D01*
X120033747Y-81622134D01*
X120029326Y-81627044D01*
X120029325Y-81627045D01*
X119995492Y-81664621D01*
X119905960Y-81764056D01*
X119902659Y-81769774D01*
X119816315Y-81919326D01*
X119810473Y-81929444D01*
X119751458Y-82111072D01*
X119750768Y-82117633D01*
X119750768Y-82117635D01*
X119735007Y-82267591D01*
X119707994Y-82333248D01*
X119649772Y-82373877D01*
X119578827Y-82376580D01*
X119517683Y-82340498D01*
X119489864Y-82293356D01*
X119481493Y-82267591D01*
X119452527Y-82178444D01*
X119357040Y-82013056D01*
X119340882Y-81995110D01*
X119233675Y-81876045D01*
X119233674Y-81876044D01*
X119229253Y-81871134D01*
X119093589Y-81772568D01*
X119080094Y-81762763D01*
X119080093Y-81762762D01*
X119074752Y-81758882D01*
X119068724Y-81756198D01*
X119068722Y-81756197D01*
X118906319Y-81683891D01*
X118906318Y-81683891D01*
X118900288Y-81681206D01*
X118793343Y-81658474D01*
X118719944Y-81642872D01*
X118719939Y-81642872D01*
X118713487Y-81641500D01*
X118522513Y-81641500D01*
X118516061Y-81642872D01*
X118516056Y-81642872D01*
X118442657Y-81658474D01*
X118335712Y-81681206D01*
X118329682Y-81683891D01*
X118329681Y-81683891D01*
X118167278Y-81756197D01*
X118167276Y-81756198D01*
X118161248Y-81758882D01*
X118155907Y-81762762D01*
X118155906Y-81762763D01*
X118142411Y-81772568D01*
X118006747Y-81871134D01*
X118002332Y-81876037D01*
X117997420Y-81880460D01*
X117996295Y-81879211D01*
X117942986Y-81912051D01*
X117909800Y-81916500D01*
X114886768Y-81916500D01*
X114875585Y-81915973D01*
X114868092Y-81914298D01*
X114860166Y-81914547D01*
X114860165Y-81914547D01*
X114800002Y-81916438D01*
X114796044Y-81916500D01*
X114768144Y-81916500D01*
X114764154Y-81917004D01*
X114752320Y-81917936D01*
X114708111Y-81919326D01*
X114700497Y-81921538D01*
X114700492Y-81921539D01*
X114688659Y-81924977D01*
X114669296Y-81928988D01*
X114649203Y-81931526D01*
X114641836Y-81934443D01*
X114641831Y-81934444D01*
X114608092Y-81947802D01*
X114596865Y-81951646D01*
X114554407Y-81963982D01*
X114547581Y-81968019D01*
X114536972Y-81974293D01*
X114519224Y-81982988D01*
X114500383Y-81990448D01*
X114493967Y-81995110D01*
X114493966Y-81995110D01*
X114464613Y-82016436D01*
X114454693Y-82022952D01*
X114423465Y-82041420D01*
X114423462Y-82041422D01*
X114416638Y-82045458D01*
X114402317Y-82059779D01*
X114387284Y-82072619D01*
X114370893Y-82084528D01*
X114354128Y-82104794D01*
X114342712Y-82118593D01*
X114334722Y-82127374D01*
X113653742Y-82808353D01*
X113645463Y-82815887D01*
X113638982Y-82820000D01*
X113592357Y-82869651D01*
X113589602Y-82872493D01*
X113569865Y-82892230D01*
X113567385Y-82895427D01*
X113559682Y-82904447D01*
X113529414Y-82936679D01*
X113525595Y-82943625D01*
X113525593Y-82943628D01*
X113519652Y-82954434D01*
X113508801Y-82970953D01*
X113496386Y-82986959D01*
X113493241Y-82994228D01*
X113493238Y-82994232D01*
X113478826Y-83027537D01*
X113473609Y-83038187D01*
X113452305Y-83076940D01*
X113450334Y-83084615D01*
X113450334Y-83084616D01*
X113447267Y-83096562D01*
X113440863Y-83115266D01*
X113432819Y-83133855D01*
X113431580Y-83141678D01*
X113431577Y-83141688D01*
X113425901Y-83177524D01*
X113423495Y-83189144D01*
X113415469Y-83220405D01*
X113412500Y-83231970D01*
X113412500Y-83252224D01*
X113410949Y-83271934D01*
X113407780Y-83291943D01*
X113408526Y-83299835D01*
X113411941Y-83335961D01*
X113412500Y-83347819D01*
X113412500Y-85115733D01*
X113411973Y-85126916D01*
X113410298Y-85134409D01*
X113410547Y-85142335D01*
X113410547Y-85142336D01*
X113412438Y-85202486D01*
X113412500Y-85206445D01*
X113412500Y-85234356D01*
X113412997Y-85238290D01*
X113412997Y-85238291D01*
X113413005Y-85238356D01*
X113413938Y-85250193D01*
X113415327Y-85294389D01*
X113420978Y-85313839D01*
X113424987Y-85333200D01*
X113427526Y-85353297D01*
X113430445Y-85360668D01*
X113430445Y-85360670D01*
X113443804Y-85394412D01*
X113447649Y-85405642D01*
X113459982Y-85448093D01*
X113464015Y-85454912D01*
X113464017Y-85454917D01*
X113470293Y-85465528D01*
X113478988Y-85483276D01*
X113486448Y-85502117D01*
X113491110Y-85508533D01*
X113491110Y-85508534D01*
X113512436Y-85537887D01*
X113518952Y-85547807D01*
X113541458Y-85585862D01*
X113555779Y-85600183D01*
X113568619Y-85615216D01*
X113580528Y-85631607D01*
X113586634Y-85636658D01*
X113614605Y-85659798D01*
X113623384Y-85667788D01*
X114518378Y-86562782D01*
X114552404Y-86625094D01*
X114554593Y-86638707D01*
X114568309Y-86769206D01*
X114571958Y-86803928D01*
X114630973Y-86985556D01*
X114726460Y-87150944D01*
X114730878Y-87155851D01*
X114730879Y-87155852D01*
X114817330Y-87251866D01*
X114854247Y-87292866D01*
X115008748Y-87405118D01*
X115014776Y-87407802D01*
X115014778Y-87407803D01*
X115169313Y-87476606D01*
X115183212Y-87482794D01*
X115268878Y-87501003D01*
X115363556Y-87521128D01*
X115363561Y-87521128D01*
X115370013Y-87522500D01*
X115560987Y-87522500D01*
X115567439Y-87521128D01*
X115567444Y-87521128D01*
X115662122Y-87501003D01*
X115747788Y-87482794D01*
X115761687Y-87476606D01*
X115916222Y-87407803D01*
X115916224Y-87407802D01*
X115922252Y-87405118D01*
X116076753Y-87292866D01*
X116113670Y-87251866D01*
X116200121Y-87155852D01*
X116200122Y-87155851D01*
X116204540Y-87150944D01*
X116300027Y-86985556D01*
X116359042Y-86803928D01*
X116362692Y-86769206D01*
X116378314Y-86620565D01*
X116379004Y-86614000D01*
X116359042Y-86424072D01*
X116308828Y-86269530D01*
X116306800Y-86198563D01*
X116335011Y-86146299D01*
X116335327Y-86145947D01*
X116337599Y-86143425D01*
X116398037Y-86106176D01*
X116431247Y-86101721D01*
X120123975Y-86101721D01*
X120192096Y-86121723D01*
X120238589Y-86175379D01*
X120248693Y-86245653D01*
X120217611Y-86312031D01*
X120135956Y-86402718D01*
X120040469Y-86568106D01*
X119981454Y-86749734D01*
X119961492Y-86939662D01*
X119981454Y-87129590D01*
X120040469Y-87311218D01*
X120135956Y-87476606D01*
X120140374Y-87481513D01*
X120140375Y-87481514D01*
X120158426Y-87501562D01*
X120263743Y-87618528D01*
X120418244Y-87730780D01*
X120424272Y-87733464D01*
X120424274Y-87733465D01*
X120586677Y-87805771D01*
X120592708Y-87808456D01*
X120686109Y-87828309D01*
X120773052Y-87846790D01*
X120773057Y-87846790D01*
X120779509Y-87848162D01*
X120970483Y-87848162D01*
X120976935Y-87846790D01*
X120976940Y-87846790D01*
X121063883Y-87828309D01*
X121157284Y-87808456D01*
X121163315Y-87805771D01*
X121325718Y-87733465D01*
X121325720Y-87733464D01*
X121331748Y-87730780D01*
X121486249Y-87618528D01*
X121554085Y-87543188D01*
X121614528Y-87505950D01*
X121647719Y-87501500D01*
X125723120Y-87501500D01*
X125734303Y-87502027D01*
X125741796Y-87503702D01*
X125749722Y-87503453D01*
X125749723Y-87503453D01*
X125809873Y-87501562D01*
X125813832Y-87501500D01*
X125841743Y-87501500D01*
X125845678Y-87501003D01*
X125845743Y-87500995D01*
X125857580Y-87500062D01*
X125889838Y-87499048D01*
X125893857Y-87498922D01*
X125901776Y-87498673D01*
X125921230Y-87493021D01*
X125940587Y-87489013D01*
X125952817Y-87487468D01*
X125952818Y-87487468D01*
X125960684Y-87486474D01*
X125968055Y-87483555D01*
X125968057Y-87483555D01*
X126001799Y-87470196D01*
X126013029Y-87466351D01*
X126047870Y-87456229D01*
X126047871Y-87456229D01*
X126055480Y-87454018D01*
X126062299Y-87449985D01*
X126062304Y-87449983D01*
X126072915Y-87443707D01*
X126090663Y-87435012D01*
X126109504Y-87427552D01*
X126145274Y-87401564D01*
X126155194Y-87395048D01*
X126158574Y-87393049D01*
X126193249Y-87372542D01*
X126198856Y-87366936D01*
X126207572Y-87358220D01*
X126222606Y-87345379D01*
X126232582Y-87338131D01*
X126232583Y-87338130D01*
X126238994Y-87333472D01*
X126267180Y-87299401D01*
X126275169Y-87290622D01*
X126322386Y-87243405D01*
X126384698Y-87209379D01*
X126411481Y-87206500D01*
X128282800Y-87206500D01*
X128350921Y-87226502D01*
X128370147Y-87242843D01*
X128370420Y-87242540D01*
X128375332Y-87246963D01*
X128379747Y-87251866D01*
X128401329Y-87267546D01*
X128516478Y-87351207D01*
X128534248Y-87364118D01*
X128540276Y-87366802D01*
X128540278Y-87366803D01*
X128702681Y-87439109D01*
X128708712Y-87441794D01*
X128802112Y-87461647D01*
X128889056Y-87480128D01*
X128889061Y-87480128D01*
X128895513Y-87481500D01*
X129086487Y-87481500D01*
X129092939Y-87480128D01*
X129092944Y-87480128D01*
X129179888Y-87461647D01*
X129273288Y-87441794D01*
X129279319Y-87439109D01*
X129441722Y-87366803D01*
X129441724Y-87366802D01*
X129447752Y-87364118D01*
X129465523Y-87351207D01*
X129529213Y-87304933D01*
X129602253Y-87251866D01*
X129625091Y-87226502D01*
X129725621Y-87114852D01*
X129725622Y-87114851D01*
X129730040Y-87109944D01*
X129825527Y-86944556D01*
X129884542Y-86762928D01*
X129904504Y-86573000D01*
X129888851Y-86424072D01*
X129885232Y-86389635D01*
X129885232Y-86389633D01*
X129884542Y-86383072D01*
X129825527Y-86201444D01*
X129730040Y-86036056D01*
X129602253Y-85894134D01*
X129595286Y-85889072D01*
X129594575Y-85888150D01*
X129592002Y-85885833D01*
X129592426Y-85885362D01*
X129551934Y-85832848D01*
X129545860Y-85762111D01*
X129575714Y-85702828D01*
X129639621Y-85631852D01*
X129639622Y-85631851D01*
X129644040Y-85626944D01*
X129739527Y-85461556D01*
X129798542Y-85279928D01*
X129802912Y-85238356D01*
X129817814Y-85096565D01*
X129818504Y-85090000D01*
X129808337Y-84993269D01*
X129799232Y-84906635D01*
X129799232Y-84906633D01*
X129798542Y-84900072D01*
X129739527Y-84718444D01*
X129644040Y-84553056D01*
X129516253Y-84411134D01*
X129361752Y-84298882D01*
X129355724Y-84296198D01*
X129355722Y-84296197D01*
X129193319Y-84223891D01*
X129193318Y-84223891D01*
X129187288Y-84221206D01*
X129093888Y-84201353D01*
X129006944Y-84182872D01*
X129006939Y-84182872D01*
X129000487Y-84181500D01*
X128809513Y-84181500D01*
X128803061Y-84182872D01*
X128803056Y-84182872D01*
X128716112Y-84201353D01*
X128622712Y-84221206D01*
X128616682Y-84223891D01*
X128616681Y-84223891D01*
X128454278Y-84296197D01*
X128454276Y-84296198D01*
X128448248Y-84298882D01*
X128293747Y-84411134D01*
X128165960Y-84553056D01*
X128070473Y-84718444D01*
X128068432Y-84724726D01*
X128060981Y-84747658D01*
X128020907Y-84806263D01*
X127955510Y-84833900D01*
X127941148Y-84834721D01*
X116276992Y-84834721D01*
X116208871Y-84814719D01*
X116202931Y-84810657D01*
X116121594Y-84751562D01*
X116121593Y-84751561D01*
X116116252Y-84747681D01*
X116110224Y-84744997D01*
X116110222Y-84744996D01*
X115947819Y-84672690D01*
X115947818Y-84672690D01*
X115941788Y-84670005D01*
X115848388Y-84650152D01*
X115761444Y-84631671D01*
X115761439Y-84631671D01*
X115754987Y-84630299D01*
X115564013Y-84630299D01*
X115557561Y-84631671D01*
X115557556Y-84631671D01*
X115470612Y-84650152D01*
X115377212Y-84670005D01*
X115371182Y-84672690D01*
X115371181Y-84672690D01*
X115208778Y-84744996D01*
X115208776Y-84744997D01*
X115202748Y-84747681D01*
X115048247Y-84859933D01*
X115043826Y-84864843D01*
X115043825Y-84864844D01*
X114928191Y-84993269D01*
X114867745Y-85030509D01*
X114796762Y-85029157D01*
X114745460Y-84998054D01*
X114716405Y-84968999D01*
X114682379Y-84906687D01*
X114679500Y-84879904D01*
X114679500Y-83626595D01*
X114699502Y-83558474D01*
X114716405Y-83537499D01*
X115033501Y-83220404D01*
X115095813Y-83186379D01*
X115122596Y-83183500D01*
X117909800Y-83183500D01*
X117977921Y-83203502D01*
X117997147Y-83219843D01*
X117997420Y-83219540D01*
X118002332Y-83223963D01*
X118006747Y-83228866D01*
X118161248Y-83341118D01*
X118167276Y-83343802D01*
X118167278Y-83343803D01*
X118329681Y-83416109D01*
X118335712Y-83418794D01*
X118429112Y-83438647D01*
X118516056Y-83457128D01*
X118516061Y-83457128D01*
X118522513Y-83458500D01*
X118577172Y-83458500D01*
X118645293Y-83478502D01*
X118663424Y-83492649D01*
X118683666Y-83511657D01*
X118686509Y-83514413D01*
X118706230Y-83534134D01*
X118709425Y-83536612D01*
X118718447Y-83544318D01*
X118750679Y-83574586D01*
X118757628Y-83578406D01*
X118768432Y-83584346D01*
X118784956Y-83595199D01*
X118800959Y-83607613D01*
X118841543Y-83625176D01*
X118852173Y-83630383D01*
X118890940Y-83651695D01*
X118898617Y-83653666D01*
X118898622Y-83653668D01*
X118910558Y-83656732D01*
X118929266Y-83663137D01*
X118947855Y-83671181D01*
X118955680Y-83672420D01*
X118955682Y-83672421D01*
X118991519Y-83678097D01*
X119003140Y-83680504D01*
X119034959Y-83688673D01*
X119045970Y-83691500D01*
X119066231Y-83691500D01*
X119085940Y-83693051D01*
X119105943Y-83696219D01*
X119113835Y-83695473D01*
X119119062Y-83694979D01*
X119149954Y-83692059D01*
X119161811Y-83691500D01*
X128318233Y-83691500D01*
X128329416Y-83692027D01*
X128336909Y-83693702D01*
X128344835Y-83693453D01*
X128344836Y-83693453D01*
X128404986Y-83691562D01*
X128408945Y-83691500D01*
X128436856Y-83691500D01*
X128440791Y-83691003D01*
X128440856Y-83690995D01*
X128452693Y-83690062D01*
X128484951Y-83689048D01*
X128488970Y-83688922D01*
X128496889Y-83688673D01*
X128516343Y-83683021D01*
X128535700Y-83679013D01*
X128547930Y-83677468D01*
X128547931Y-83677468D01*
X128555797Y-83676474D01*
X128563168Y-83673555D01*
X128563170Y-83673555D01*
X128596912Y-83660196D01*
X128608142Y-83656351D01*
X128642983Y-83646229D01*
X128642984Y-83646229D01*
X128650593Y-83644018D01*
X128657412Y-83639985D01*
X128657417Y-83639983D01*
X128668028Y-83633707D01*
X128685776Y-83625012D01*
X128704617Y-83617552D01*
X128724987Y-83602753D01*
X128740387Y-83591564D01*
X128750307Y-83585048D01*
X128781535Y-83566580D01*
X128781538Y-83566578D01*
X128788362Y-83562542D01*
X128802683Y-83548221D01*
X128817717Y-83535380D01*
X128819432Y-83534134D01*
X128834107Y-83523472D01*
X128862298Y-83489395D01*
X128870288Y-83480616D01*
X129130499Y-83220405D01*
X129192811Y-83186379D01*
X129219594Y-83183500D01*
X130736800Y-83183500D01*
X130804921Y-83203502D01*
X130824147Y-83219843D01*
X130824420Y-83219540D01*
X130829332Y-83223963D01*
X130833747Y-83228866D01*
X130988248Y-83341118D01*
X130994276Y-83343802D01*
X130994278Y-83343803D01*
X131156681Y-83416109D01*
X131162712Y-83418794D01*
X131256112Y-83438647D01*
X131343056Y-83457128D01*
X131343061Y-83457128D01*
X131349513Y-83458500D01*
X131540487Y-83458500D01*
X131546939Y-83457128D01*
X131546944Y-83457128D01*
X131633888Y-83438647D01*
X131727288Y-83418794D01*
X131733319Y-83416109D01*
X131895722Y-83343803D01*
X131895724Y-83343802D01*
X131901752Y-83341118D01*
X132056253Y-83228866D01*
X132092019Y-83189144D01*
X132179621Y-83091852D01*
X132179622Y-83091851D01*
X132184040Y-83086944D01*
X132279527Y-82921556D01*
X132338542Y-82739928D01*
X132358504Y-82550000D01*
X132338542Y-82360072D01*
X132279527Y-82178444D01*
X132184040Y-82013056D01*
X132167882Y-81995110D01*
X132060675Y-81876045D01*
X132060674Y-81876044D01*
X132056253Y-81871134D01*
X131920589Y-81772568D01*
X131907094Y-81762763D01*
X131907093Y-81762762D01*
X131901752Y-81758882D01*
X131895724Y-81756198D01*
X131895722Y-81756197D01*
X131733319Y-81683891D01*
X131733318Y-81683891D01*
X131727288Y-81681206D01*
X131620343Y-81658474D01*
X131546944Y-81642872D01*
X131546939Y-81642872D01*
X131540487Y-81641500D01*
X131349513Y-81641500D01*
X131343061Y-81642872D01*
X131343056Y-81642872D01*
X131269657Y-81658474D01*
X131162712Y-81681206D01*
X131156682Y-81683891D01*
X131156681Y-81683891D01*
X130994278Y-81756197D01*
X130994276Y-81756198D01*
X130988248Y-81758882D01*
X130982907Y-81762762D01*
X130982906Y-81762763D01*
X130969411Y-81772568D01*
X130833747Y-81871134D01*
X130829332Y-81876037D01*
X130824420Y-81880460D01*
X130823295Y-81879211D01*
X130769986Y-81912051D01*
X130736800Y-81916500D01*
X129481094Y-81916500D01*
X129412973Y-81896498D01*
X129366480Y-81842842D01*
X129356376Y-81772568D01*
X129385870Y-81707988D01*
X129391999Y-81701405D01*
X130348730Y-80744674D01*
X130411042Y-80710648D01*
X130481857Y-80715713D01*
X130511885Y-80731833D01*
X130607248Y-80801118D01*
X130613276Y-80803802D01*
X130613278Y-80803803D01*
X130775681Y-80876109D01*
X130781712Y-80878794D01*
X130875112Y-80898647D01*
X130962056Y-80917128D01*
X130962061Y-80917128D01*
X130968513Y-80918500D01*
X131159487Y-80918500D01*
X131165939Y-80917128D01*
X131165944Y-80917128D01*
X131252888Y-80898647D01*
X131346288Y-80878794D01*
X131352319Y-80876109D01*
X131514722Y-80803803D01*
X131514724Y-80803802D01*
X131520752Y-80801118D01*
X131675253Y-80688866D01*
X131679714Y-80683912D01*
X131798621Y-80551852D01*
X131798622Y-80551851D01*
X131803040Y-80546944D01*
X131880775Y-80412303D01*
X131895223Y-80387279D01*
X131895224Y-80387278D01*
X131898527Y-80381556D01*
X131957542Y-80199928D01*
X131977504Y-80010000D01*
X131957542Y-79820072D01*
X131898527Y-79638444D01*
X131803040Y-79473056D01*
X131794104Y-79463131D01*
X131679675Y-79336045D01*
X131679674Y-79336044D01*
X131675253Y-79331134D01*
X131576157Y-79259136D01*
X131526094Y-79222763D01*
X131526093Y-79222762D01*
X131520752Y-79218882D01*
X131514724Y-79216198D01*
X131514722Y-79216197D01*
X131352319Y-79143891D01*
X131352318Y-79143891D01*
X131346288Y-79141206D01*
X131252887Y-79121353D01*
X131165944Y-79102872D01*
X131165939Y-79102872D01*
X131159487Y-79101500D01*
X130968513Y-79101500D01*
X130962061Y-79102872D01*
X130962056Y-79102872D01*
X130875113Y-79121353D01*
X130781712Y-79141206D01*
X130775682Y-79143891D01*
X130775681Y-79143891D01*
X130613278Y-79216197D01*
X130613276Y-79216198D01*
X130607248Y-79218882D01*
X130601907Y-79222762D01*
X130601906Y-79222763D01*
X130532910Y-79272892D01*
X130452747Y-79331134D01*
X130448332Y-79336037D01*
X130443420Y-79340460D01*
X130442295Y-79339211D01*
X130388986Y-79372051D01*
X130355800Y-79376500D01*
X130266267Y-79376500D01*
X130255084Y-79375973D01*
X130247591Y-79374298D01*
X130239665Y-79374547D01*
X130239664Y-79374547D01*
X130179514Y-79376438D01*
X130175555Y-79376500D01*
X130147644Y-79376500D01*
X130143710Y-79376997D01*
X130143709Y-79376997D01*
X130143644Y-79377005D01*
X130131807Y-79377938D01*
X130099990Y-79378938D01*
X130095529Y-79379078D01*
X130087610Y-79379327D01*
X130069954Y-79384456D01*
X130068158Y-79384978D01*
X130048806Y-79388986D01*
X130041735Y-79389880D01*
X130028703Y-79391526D01*
X130021334Y-79394443D01*
X130021332Y-79394444D01*
X129987597Y-79407800D01*
X129976370Y-79411645D01*
X129974187Y-79412279D01*
X129933907Y-79423982D01*
X129927085Y-79428016D01*
X129927079Y-79428019D01*
X129916468Y-79434294D01*
X129898718Y-79442990D01*
X129887256Y-79447528D01*
X129887251Y-79447531D01*
X129879883Y-79450448D01*
X129871216Y-79456745D01*
X129844125Y-79476427D01*
X129834207Y-79482943D01*
X129815519Y-79493995D01*
X129796137Y-79505458D01*
X129781813Y-79519782D01*
X129766781Y-79532621D01*
X129750393Y-79544528D01*
X129735275Y-79562803D01*
X129722212Y-79578593D01*
X129714222Y-79587373D01*
X127671000Y-81630595D01*
X127608688Y-81664621D01*
X127581905Y-81667500D01*
X127412584Y-81667500D01*
X127344463Y-81647498D01*
X127297970Y-81593842D01*
X127287866Y-81523568D01*
X127303464Y-81478503D01*
X127326527Y-81438556D01*
X127385542Y-81256928D01*
X127402907Y-81091706D01*
X127429920Y-81026050D01*
X127439122Y-81015782D01*
X128662247Y-79792657D01*
X128670537Y-79785113D01*
X128677018Y-79781000D01*
X128723659Y-79731332D01*
X128726413Y-79728491D01*
X128746135Y-79708769D01*
X128748619Y-79705567D01*
X128756317Y-79696555D01*
X128781161Y-79670098D01*
X128786586Y-79664321D01*
X128796347Y-79646566D01*
X128807198Y-79630047D01*
X128819614Y-79614041D01*
X128822764Y-79606762D01*
X128837174Y-79573463D01*
X128842396Y-79562803D01*
X128861089Y-79528800D01*
X128911434Y-79478741D01*
X128971504Y-79463500D01*
X129168134Y-79463500D01*
X129230316Y-79456745D01*
X129366705Y-79405615D01*
X129483261Y-79318261D01*
X129570615Y-79201705D01*
X129621745Y-79065316D01*
X129628500Y-79003134D01*
X129628500Y-78847655D01*
X132859858Y-78847655D01*
X132895104Y-79106638D01*
X132896412Y-79111124D01*
X132896412Y-79111126D01*
X132916098Y-79178664D01*
X132968243Y-79357567D01*
X132970203Y-79361820D01*
X132970204Y-79361821D01*
X132986029Y-79396148D01*
X133077668Y-79594928D01*
X133080231Y-79598837D01*
X133218410Y-79809596D01*
X133218414Y-79809601D01*
X133220976Y-79813509D01*
X133395018Y-80008506D01*
X133595970Y-80175637D01*
X133599973Y-80178066D01*
X133815422Y-80308804D01*
X133815426Y-80308806D01*
X133819419Y-80311229D01*
X134060455Y-80412303D01*
X134313783Y-80476641D01*
X134318434Y-80477109D01*
X134318438Y-80477110D01*
X134511308Y-80496531D01*
X134530867Y-80498500D01*
X134686354Y-80498500D01*
X134688679Y-80498327D01*
X134688685Y-80498327D01*
X134876000Y-80484407D01*
X134876004Y-80484406D01*
X134880652Y-80484061D01*
X134885200Y-80483032D01*
X134885206Y-80483031D01*
X135071601Y-80440853D01*
X135135577Y-80426377D01*
X135171769Y-80412303D01*
X135374824Y-80333340D01*
X135374827Y-80333339D01*
X135379177Y-80331647D01*
X135606098Y-80201951D01*
X135811357Y-80040138D01*
X135990443Y-79849763D01*
X136115082Y-79670098D01*
X136136759Y-79638851D01*
X136136761Y-79638848D01*
X136139424Y-79635009D01*
X136141492Y-79630816D01*
X136252960Y-79404781D01*
X136252961Y-79404778D01*
X136255025Y-79400593D01*
X136257928Y-79391526D01*
X136333280Y-79156123D01*
X136334707Y-79151665D01*
X136376721Y-78893693D01*
X136380142Y-78632345D01*
X136344896Y-78373362D01*
X136330473Y-78323877D01*
X136320466Y-78289547D01*
X136271757Y-78122433D01*
X136252599Y-78080875D01*
X136164289Y-77889318D01*
X136162332Y-77885072D01*
X136115442Y-77813553D01*
X136021590Y-77670404D01*
X136021586Y-77670399D01*
X136019024Y-77666491D01*
X135844982Y-77471494D01*
X135644030Y-77304363D01*
X135556755Y-77251403D01*
X135424578Y-77171196D01*
X135424574Y-77171194D01*
X135420581Y-77168771D01*
X135179545Y-77067697D01*
X134926217Y-77003359D01*
X134921566Y-77002891D01*
X134921562Y-77002890D01*
X134712271Y-76981816D01*
X134709133Y-76981500D01*
X134553646Y-76981500D01*
X134551321Y-76981673D01*
X134551315Y-76981673D01*
X134364000Y-76995593D01*
X134363996Y-76995594D01*
X134359348Y-76995939D01*
X134354800Y-76996968D01*
X134354794Y-76996969D01*
X134168399Y-77039147D01*
X134104423Y-77053623D01*
X134100071Y-77055315D01*
X134100069Y-77055316D01*
X133865176Y-77146660D01*
X133865173Y-77146661D01*
X133860823Y-77148353D01*
X133856769Y-77150670D01*
X133856767Y-77150671D01*
X133825099Y-77168771D01*
X133633902Y-77278049D01*
X133428643Y-77439862D01*
X133249557Y-77630237D01*
X133100576Y-77844991D01*
X133098510Y-77849181D01*
X133098508Y-77849184D01*
X133084842Y-77876897D01*
X132984975Y-78079407D01*
X132983553Y-78083850D01*
X132983552Y-78083852D01*
X132963460Y-78146621D01*
X132905293Y-78328335D01*
X132863279Y-78586307D01*
X132859858Y-78847655D01*
X129628500Y-78847655D01*
X129628500Y-77206866D01*
X129621745Y-77144684D01*
X129570615Y-77008295D01*
X129561355Y-76995939D01*
X129496996Y-76910065D01*
X129472148Y-76843558D01*
X129487201Y-76774176D01*
X129537375Y-76723946D01*
X129597822Y-76708500D01*
X135205633Y-76708500D01*
X135225018Y-76710000D01*
X135239851Y-76712310D01*
X135239855Y-76712310D01*
X135248724Y-76713691D01*
X135262789Y-76711852D01*
X135289004Y-76711176D01*
X135422111Y-76721652D01*
X135463574Y-76724915D01*
X135483103Y-76728008D01*
X135676903Y-76774536D01*
X135695706Y-76780646D01*
X135879840Y-76856916D01*
X135897457Y-76865893D01*
X136067387Y-76970027D01*
X136083382Y-76981648D01*
X136234934Y-77111085D01*
X136248915Y-77125066D01*
X136378352Y-77276618D01*
X136389973Y-77292613D01*
X136494107Y-77462543D01*
X136503084Y-77480160D01*
X136579354Y-77664294D01*
X136585464Y-77683097D01*
X136631992Y-77876897D01*
X136635085Y-77896426D01*
X136648272Y-78063987D01*
X136647630Y-78080875D01*
X136647800Y-78080877D01*
X136647690Y-78089853D01*
X136646309Y-78098724D01*
X136647473Y-78107626D01*
X136647473Y-78107628D01*
X136650436Y-78130283D01*
X136651500Y-78146621D01*
X136651500Y-92025633D01*
X136650000Y-92045018D01*
X136647690Y-92059851D01*
X136647690Y-92059855D01*
X136646309Y-92068724D01*
X136648148Y-92082789D01*
X136648824Y-92109004D01*
X136642931Y-92183885D01*
X136635085Y-92283574D01*
X136631992Y-92303103D01*
X136585464Y-92496903D01*
X136579354Y-92515706D01*
X136503084Y-92699840D01*
X136494107Y-92717457D01*
X136389973Y-92887387D01*
X136378352Y-92903382D01*
X136248915Y-93054934D01*
X136234934Y-93068915D01*
X136083382Y-93198352D01*
X136067387Y-93209973D01*
X135897457Y-93314107D01*
X135879840Y-93323084D01*
X135695706Y-93399354D01*
X135676903Y-93405464D01*
X135483103Y-93451992D01*
X135463574Y-93455085D01*
X135296013Y-93468272D01*
X135279125Y-93467630D01*
X135279123Y-93467800D01*
X135270147Y-93467690D01*
X135261276Y-93466309D01*
X135252374Y-93467473D01*
X135252372Y-93467473D01*
X135237323Y-93469441D01*
X135229714Y-93470436D01*
X135213379Y-93471500D01*
X129458315Y-93471500D01*
X129390194Y-93451498D01*
X129343701Y-93397842D01*
X129333597Y-93327568D01*
X129355993Y-93271974D01*
X129435004Y-93162020D01*
X129440313Y-93153183D01*
X129534670Y-92962267D01*
X129538469Y-92952672D01*
X129600377Y-92748910D01*
X129602555Y-92738837D01*
X129603986Y-92727962D01*
X129601775Y-92713778D01*
X129588617Y-92710000D01*
X128142000Y-92710000D01*
X128073879Y-92689998D01*
X128027386Y-92636342D01*
X128016000Y-92584000D01*
X128016000Y-92183885D01*
X128524000Y-92183885D01*
X128528475Y-92199124D01*
X128529865Y-92200329D01*
X128537548Y-92202000D01*
X129588344Y-92202000D01*
X129601875Y-92198027D01*
X129603180Y-92188947D01*
X129561214Y-92021875D01*
X129557894Y-92012124D01*
X129472972Y-91816814D01*
X129468105Y-91807739D01*
X129352426Y-91628926D01*
X129346136Y-91620757D01*
X129279618Y-91547655D01*
X132859858Y-91547655D01*
X132895104Y-91806638D01*
X132896412Y-91811124D01*
X132896412Y-91811126D01*
X132916098Y-91878664D01*
X132968243Y-92057567D01*
X133077668Y-92294928D01*
X133080231Y-92298837D01*
X133218410Y-92509596D01*
X133218414Y-92509601D01*
X133220976Y-92513509D01*
X133395018Y-92708506D01*
X133595970Y-92875637D01*
X133599973Y-92878066D01*
X133815422Y-93008804D01*
X133815426Y-93008806D01*
X133819419Y-93011229D01*
X134060455Y-93112303D01*
X134313783Y-93176641D01*
X134318434Y-93177109D01*
X134318438Y-93177110D01*
X134511308Y-93196531D01*
X134530867Y-93198500D01*
X134686354Y-93198500D01*
X134688679Y-93198327D01*
X134688685Y-93198327D01*
X134876000Y-93184407D01*
X134876004Y-93184406D01*
X134880652Y-93184061D01*
X134885200Y-93183032D01*
X134885206Y-93183031D01*
X135116569Y-93130678D01*
X135135577Y-93126377D01*
X135139931Y-93124684D01*
X135374824Y-93033340D01*
X135374827Y-93033339D01*
X135379177Y-93031647D01*
X135606098Y-92901951D01*
X135811357Y-92740138D01*
X135990443Y-92549763D01*
X136139424Y-92335009D01*
X136141492Y-92330816D01*
X136252960Y-92104781D01*
X136252961Y-92104778D01*
X136255025Y-92100593D01*
X136259200Y-92087552D01*
X136333280Y-91856123D01*
X136334707Y-91851665D01*
X136376721Y-91593693D01*
X136380142Y-91332345D01*
X136344896Y-91073362D01*
X136330473Y-91023877D01*
X136291193Y-90889116D01*
X136271757Y-90822433D01*
X136162332Y-90585072D01*
X136068963Y-90442660D01*
X136021590Y-90370404D01*
X136021586Y-90370399D01*
X136019024Y-90366491D01*
X135844982Y-90171494D01*
X135644030Y-90004363D01*
X135596844Y-89975730D01*
X135424578Y-89871196D01*
X135424574Y-89871194D01*
X135420581Y-89868771D01*
X135179545Y-89767697D01*
X134926217Y-89703359D01*
X134921566Y-89702891D01*
X134921562Y-89702890D01*
X134712271Y-89681816D01*
X134709133Y-89681500D01*
X134553646Y-89681500D01*
X134551321Y-89681673D01*
X134551315Y-89681673D01*
X134364000Y-89695593D01*
X134363996Y-89695594D01*
X134359348Y-89695939D01*
X134354800Y-89696968D01*
X134354794Y-89696969D01*
X134168399Y-89739147D01*
X134104423Y-89753623D01*
X134100071Y-89755315D01*
X134100069Y-89755316D01*
X133865176Y-89846660D01*
X133865173Y-89846661D01*
X133860823Y-89848353D01*
X133856769Y-89850670D01*
X133856767Y-89850671D01*
X133835649Y-89862741D01*
X133633902Y-89978049D01*
X133428643Y-90139862D01*
X133249557Y-90330237D01*
X133173778Y-90439471D01*
X133130626Y-90501675D01*
X133100576Y-90544991D01*
X133098510Y-90549181D01*
X133098508Y-90549184D01*
X132988860Y-90771530D01*
X132984975Y-90779407D01*
X132983553Y-90783850D01*
X132983552Y-90783852D01*
X132923486Y-90971500D01*
X132905293Y-91028335D01*
X132863279Y-91286307D01*
X132862830Y-91320598D01*
X132860767Y-91478243D01*
X132859858Y-91547655D01*
X129279618Y-91547655D01*
X129202806Y-91463240D01*
X129195273Y-91456215D01*
X129028139Y-91324222D01*
X129019552Y-91318517D01*
X128833117Y-91215599D01*
X128823705Y-91211369D01*
X128622959Y-91140280D01*
X128612988Y-91137646D01*
X128541837Y-91124972D01*
X128528540Y-91126432D01*
X128524000Y-91140989D01*
X128524000Y-92183885D01*
X128016000Y-92183885D01*
X128016000Y-91139102D01*
X128012082Y-91125758D01*
X127997806Y-91123771D01*
X127959324Y-91129660D01*
X127949288Y-91132051D01*
X127746868Y-91198212D01*
X127737359Y-91202209D01*
X127548463Y-91300542D01*
X127539738Y-91306036D01*
X127369433Y-91433905D01*
X127361726Y-91440748D01*
X127214590Y-91594717D01*
X127208109Y-91602722D01*
X127103498Y-91756074D01*
X127048587Y-91801076D01*
X126978062Y-91809247D01*
X126914315Y-91777993D01*
X126893618Y-91753509D01*
X126812822Y-91628617D01*
X126812820Y-91628614D01*
X126810014Y-91624277D01*
X126659670Y-91459051D01*
X126655619Y-91455852D01*
X126655615Y-91455848D01*
X126488414Y-91323800D01*
X126488410Y-91323798D01*
X126484359Y-91320598D01*
X126479835Y-91318101D01*
X126479831Y-91318098D01*
X126428608Y-91289822D01*
X126378636Y-91239390D01*
X126363500Y-91179513D01*
X126363500Y-89613768D01*
X126364027Y-89602585D01*
X126365702Y-89595092D01*
X126363562Y-89527001D01*
X126363500Y-89523044D01*
X126363500Y-89495144D01*
X126362996Y-89491153D01*
X126362063Y-89479311D01*
X126360923Y-89443036D01*
X126360674Y-89435111D01*
X126355021Y-89415652D01*
X126351012Y-89396293D01*
X126350846Y-89394983D01*
X126348474Y-89376203D01*
X126345558Y-89368837D01*
X126345556Y-89368831D01*
X126332200Y-89335098D01*
X126328355Y-89323868D01*
X126318230Y-89289017D01*
X126318230Y-89289016D01*
X126316019Y-89281407D01*
X126305705Y-89263966D01*
X126297008Y-89246213D01*
X126292472Y-89234758D01*
X126289552Y-89227383D01*
X126263563Y-89191612D01*
X126257047Y-89181692D01*
X126238578Y-89150463D01*
X126234542Y-89143638D01*
X126220221Y-89129317D01*
X126207380Y-89114283D01*
X126200132Y-89104307D01*
X126195472Y-89097893D01*
X126161401Y-89069707D01*
X126152622Y-89061718D01*
X126042122Y-88951218D01*
X126008096Y-88888906D01*
X126005907Y-88875293D01*
X125989232Y-88716635D01*
X125989232Y-88716633D01*
X125988542Y-88710072D01*
X125929527Y-88528444D01*
X125834040Y-88363056D01*
X125751596Y-88271492D01*
X125710675Y-88226045D01*
X125710674Y-88226044D01*
X125706253Y-88221134D01*
X125551752Y-88108882D01*
X125545724Y-88106198D01*
X125545722Y-88106197D01*
X125383319Y-88033891D01*
X125383318Y-88033891D01*
X125377288Y-88031206D01*
X125283887Y-88011353D01*
X125196944Y-87992872D01*
X125196939Y-87992872D01*
X125190487Y-87991500D01*
X124999513Y-87991500D01*
X124993061Y-87992872D01*
X124993056Y-87992872D01*
X124906112Y-88011353D01*
X124812712Y-88031206D01*
X124806682Y-88033891D01*
X124806681Y-88033891D01*
X124644278Y-88106197D01*
X124644276Y-88106198D01*
X124638248Y-88108882D01*
X124483747Y-88221134D01*
X124479326Y-88226044D01*
X124479325Y-88226045D01*
X124438405Y-88271492D01*
X124355960Y-88363056D01*
X124260473Y-88528444D01*
X124201458Y-88710072D01*
X124181496Y-88900000D01*
X124201458Y-89089928D01*
X124260473Y-89271556D01*
X124355960Y-89436944D01*
X124483747Y-89578866D01*
X124638248Y-89691118D01*
X124644276Y-89693802D01*
X124644278Y-89693803D01*
X124806681Y-89766109D01*
X124812712Y-89768794D01*
X124996698Y-89807902D01*
X125059170Y-89841629D01*
X125093492Y-89903779D01*
X125096500Y-89931148D01*
X125096500Y-91177692D01*
X125076498Y-91245813D01*
X125028683Y-91289453D01*
X125003607Y-91302507D01*
X124999474Y-91305610D01*
X124999471Y-91305612D01*
X124829100Y-91433530D01*
X124824965Y-91436635D01*
X124821393Y-91440373D01*
X124713729Y-91553037D01*
X124670629Y-91598138D01*
X124563201Y-91755621D01*
X124508293Y-91800621D01*
X124437768Y-91808792D01*
X124374021Y-91777538D01*
X124353324Y-91753054D01*
X124272822Y-91628617D01*
X124272820Y-91628614D01*
X124270014Y-91624277D01*
X124119670Y-91459051D01*
X124115619Y-91455852D01*
X124115615Y-91455848D01*
X123948414Y-91323800D01*
X123948410Y-91323798D01*
X123944359Y-91320598D01*
X123939831Y-91318098D01*
X123882241Y-91286307D01*
X123748789Y-91212638D01*
X123743920Y-91210914D01*
X123743916Y-91210912D01*
X123543087Y-91139795D01*
X123543083Y-91139794D01*
X123538212Y-91138069D01*
X123533119Y-91137162D01*
X123533116Y-91137161D01*
X123323373Y-91099800D01*
X123323367Y-91099799D01*
X123318284Y-91098894D01*
X123244452Y-91097992D01*
X123100081Y-91096228D01*
X123100079Y-91096228D01*
X123094911Y-91096165D01*
X122874091Y-91129955D01*
X122661756Y-91199357D01*
X122588757Y-91237358D01*
X122487975Y-91289822D01*
X122463607Y-91302507D01*
X122459474Y-91305610D01*
X122459471Y-91305612D01*
X122289100Y-91433530D01*
X122284965Y-91436635D01*
X122228537Y-91495684D01*
X122204283Y-91521064D01*
X122142759Y-91556494D01*
X122071846Y-91553037D01*
X122014060Y-91511791D01*
X121995207Y-91478243D01*
X121953767Y-91367703D01*
X121950615Y-91359295D01*
X121863261Y-91242739D01*
X121746705Y-91155385D01*
X121610316Y-91104255D01*
X121595248Y-91102618D01*
X121592652Y-91102336D01*
X121527090Y-91075093D01*
X121486665Y-91016729D01*
X121484211Y-90945775D01*
X121517167Y-90887978D01*
X121927005Y-90478141D01*
X122505500Y-89899646D01*
X122567812Y-89865620D01*
X122594595Y-89862741D01*
X122650487Y-89862741D01*
X122656939Y-89861369D01*
X122656944Y-89861369D01*
X122743888Y-89842888D01*
X122837288Y-89823035D01*
X122843319Y-89820350D01*
X123005722Y-89748044D01*
X123005724Y-89748043D01*
X123011752Y-89745359D01*
X123166253Y-89633107D01*
X123207619Y-89587165D01*
X123289621Y-89496093D01*
X123289622Y-89496092D01*
X123294040Y-89491185D01*
X123389527Y-89325797D01*
X123448542Y-89144169D01*
X123468504Y-88954241D01*
X123448542Y-88764313D01*
X123389527Y-88582685D01*
X123294040Y-88417297D01*
X123166253Y-88275375D01*
X123011752Y-88163123D01*
X123005724Y-88160439D01*
X123005722Y-88160438D01*
X122843319Y-88088132D01*
X122843318Y-88088132D01*
X122837288Y-88085447D01*
X122743887Y-88065594D01*
X122656944Y-88047113D01*
X122656939Y-88047113D01*
X122650487Y-88045741D01*
X122459513Y-88045741D01*
X122453061Y-88047113D01*
X122453056Y-88047113D01*
X122366113Y-88065594D01*
X122272712Y-88085447D01*
X122266682Y-88088132D01*
X122266681Y-88088132D01*
X122104278Y-88160438D01*
X122104276Y-88160439D01*
X122098248Y-88163123D01*
X121943747Y-88275375D01*
X121815960Y-88417297D01*
X121720473Y-88582685D01*
X121661458Y-88764313D01*
X121660768Y-88770874D01*
X121660768Y-88770876D01*
X121644093Y-88929534D01*
X121617080Y-88995191D01*
X121607878Y-89005459D01*
X120257747Y-90355589D01*
X120249461Y-90363129D01*
X120242982Y-90367241D01*
X120237557Y-90373018D01*
X120196357Y-90416892D01*
X120193602Y-90419734D01*
X120173865Y-90439471D01*
X120171385Y-90442668D01*
X120163682Y-90451688D01*
X120133414Y-90483920D01*
X120129595Y-90490866D01*
X120129593Y-90490869D01*
X120123652Y-90501675D01*
X120112801Y-90518194D01*
X120100386Y-90534200D01*
X120097241Y-90541469D01*
X120097238Y-90541473D01*
X120082826Y-90574778D01*
X120077609Y-90585428D01*
X120056305Y-90624181D01*
X120054334Y-90631856D01*
X120054334Y-90631857D01*
X120051267Y-90643803D01*
X120044863Y-90662507D01*
X120036819Y-90681096D01*
X120035580Y-90688919D01*
X120035577Y-90688929D01*
X120029901Y-90724765D01*
X120027495Y-90736385D01*
X120016500Y-90779211D01*
X120016500Y-90799465D01*
X120014949Y-90819175D01*
X120011780Y-90839184D01*
X120012526Y-90847076D01*
X120015941Y-90883202D01*
X120016500Y-90895060D01*
X120016500Y-90971500D01*
X119996498Y-91039621D01*
X119942842Y-91086114D01*
X119890500Y-91097500D01*
X119751866Y-91097500D01*
X119689684Y-91104255D01*
X119553295Y-91155385D01*
X119436739Y-91242739D01*
X119349385Y-91359295D01*
X119298255Y-91495684D01*
X119291500Y-91557866D01*
X119291500Y-93345500D01*
X119271498Y-93413621D01*
X119217842Y-93460114D01*
X119165500Y-93471500D01*
X113714367Y-93471500D01*
X113694982Y-93470000D01*
X113680149Y-93467690D01*
X113680145Y-93467690D01*
X113671276Y-93466309D01*
X113657211Y-93468148D01*
X113630996Y-93468824D01*
X113497889Y-93458348D01*
X113456426Y-93455085D01*
X113436897Y-93451992D01*
X113243097Y-93405464D01*
X113224294Y-93399354D01*
X113040160Y-93323084D01*
X113022543Y-93314107D01*
X112852613Y-93209973D01*
X112836618Y-93198352D01*
X112685066Y-93068915D01*
X112671085Y-93054934D01*
X112541648Y-92903382D01*
X112530027Y-92887387D01*
X112425893Y-92717457D01*
X112416916Y-92699840D01*
X112340646Y-92515706D01*
X112334536Y-92496903D01*
X112288008Y-92303103D01*
X112284915Y-92283574D01*
X112272009Y-92119583D01*
X112272994Y-92097258D01*
X112272334Y-92097199D01*
X112272769Y-92092351D01*
X112273576Y-92087552D01*
X112273729Y-92075000D01*
X112269773Y-92047376D01*
X112268500Y-92029514D01*
X112268500Y-91547655D01*
X112539858Y-91547655D01*
X112575104Y-91806638D01*
X112576412Y-91811124D01*
X112576412Y-91811126D01*
X112596098Y-91878664D01*
X112648243Y-92057567D01*
X112757668Y-92294928D01*
X112760231Y-92298837D01*
X112898410Y-92509596D01*
X112898414Y-92509601D01*
X112900976Y-92513509D01*
X113075018Y-92708506D01*
X113275970Y-92875637D01*
X113279973Y-92878066D01*
X113495422Y-93008804D01*
X113495426Y-93008806D01*
X113499419Y-93011229D01*
X113740455Y-93112303D01*
X113993783Y-93176641D01*
X113998434Y-93177109D01*
X113998438Y-93177110D01*
X114191308Y-93196531D01*
X114210867Y-93198500D01*
X114366354Y-93198500D01*
X114368679Y-93198327D01*
X114368685Y-93198327D01*
X114556000Y-93184407D01*
X114556004Y-93184406D01*
X114560652Y-93184061D01*
X114565200Y-93183032D01*
X114565206Y-93183031D01*
X114796569Y-93130678D01*
X114815577Y-93126377D01*
X114819931Y-93124684D01*
X115054824Y-93033340D01*
X115054827Y-93033339D01*
X115059177Y-93031647D01*
X115286098Y-92901951D01*
X115491357Y-92740138D01*
X115670443Y-92549763D01*
X115819424Y-92335009D01*
X115821492Y-92330816D01*
X115932960Y-92104781D01*
X115932961Y-92104778D01*
X115935025Y-92100593D01*
X115939200Y-92087552D01*
X116013280Y-91856123D01*
X116014707Y-91851665D01*
X116056721Y-91593693D01*
X116060142Y-91332345D01*
X116024896Y-91073362D01*
X116010473Y-91023877D01*
X115971193Y-90889116D01*
X115951757Y-90822433D01*
X115842332Y-90585072D01*
X115748963Y-90442660D01*
X115701590Y-90370404D01*
X115701586Y-90370399D01*
X115699024Y-90366491D01*
X115524982Y-90171494D01*
X115324030Y-90004363D01*
X115276844Y-89975730D01*
X115104578Y-89871196D01*
X115104574Y-89871194D01*
X115100581Y-89868771D01*
X114859545Y-89767697D01*
X114606217Y-89703359D01*
X114601566Y-89702891D01*
X114601562Y-89702890D01*
X114392271Y-89681816D01*
X114389133Y-89681500D01*
X114233646Y-89681500D01*
X114231321Y-89681673D01*
X114231315Y-89681673D01*
X114044000Y-89695593D01*
X114043996Y-89695594D01*
X114039348Y-89695939D01*
X114034800Y-89696968D01*
X114034794Y-89696969D01*
X113848399Y-89739147D01*
X113784423Y-89753623D01*
X113780071Y-89755315D01*
X113780069Y-89755316D01*
X113545176Y-89846660D01*
X113545173Y-89846661D01*
X113540823Y-89848353D01*
X113536769Y-89850670D01*
X113536767Y-89850671D01*
X113515649Y-89862741D01*
X113313902Y-89978049D01*
X113108643Y-90139862D01*
X112929557Y-90330237D01*
X112853778Y-90439471D01*
X112810626Y-90501675D01*
X112780576Y-90544991D01*
X112778510Y-90549181D01*
X112778508Y-90549184D01*
X112668860Y-90771530D01*
X112664975Y-90779407D01*
X112663553Y-90783850D01*
X112663552Y-90783852D01*
X112603486Y-90971500D01*
X112585293Y-91028335D01*
X112543279Y-91286307D01*
X112542830Y-91320598D01*
X112540767Y-91478243D01*
X112539858Y-91547655D01*
X112268500Y-91547655D01*
X112268500Y-78847655D01*
X112539858Y-78847655D01*
X112575104Y-79106638D01*
X112576412Y-79111124D01*
X112576412Y-79111126D01*
X112596098Y-79178664D01*
X112648243Y-79357567D01*
X112650203Y-79361820D01*
X112650204Y-79361821D01*
X112666029Y-79396148D01*
X112757668Y-79594928D01*
X112760231Y-79598837D01*
X112898410Y-79809596D01*
X112898414Y-79809601D01*
X112900976Y-79813509D01*
X113075018Y-80008506D01*
X113275970Y-80175637D01*
X113279973Y-80178066D01*
X113495422Y-80308804D01*
X113495426Y-80308806D01*
X113499419Y-80311229D01*
X113740455Y-80412303D01*
X113993783Y-80476641D01*
X113998434Y-80477109D01*
X113998438Y-80477110D01*
X114191308Y-80496531D01*
X114210867Y-80498500D01*
X114366354Y-80498500D01*
X114368679Y-80498327D01*
X114368685Y-80498327D01*
X114556000Y-80484407D01*
X114556004Y-80484406D01*
X114560652Y-80484061D01*
X114565200Y-80483032D01*
X114565206Y-80483031D01*
X114751601Y-80440853D01*
X114815577Y-80426377D01*
X114851769Y-80412303D01*
X115054824Y-80333340D01*
X115054827Y-80333339D01*
X115059177Y-80331647D01*
X115286098Y-80201951D01*
X115491357Y-80040138D01*
X115670443Y-79849763D01*
X115795082Y-79670098D01*
X115816759Y-79638851D01*
X115816761Y-79638848D01*
X115819424Y-79635009D01*
X115821492Y-79630816D01*
X115932960Y-79404781D01*
X115932961Y-79404778D01*
X115935025Y-79400593D01*
X115937928Y-79391526D01*
X116013280Y-79156123D01*
X116014707Y-79151665D01*
X116056721Y-78893693D01*
X116060142Y-78632345D01*
X116024896Y-78373362D01*
X116010473Y-78323877D01*
X116000466Y-78289547D01*
X115951757Y-78122433D01*
X115932599Y-78080875D01*
X115844289Y-77889318D01*
X115842332Y-77885072D01*
X115795442Y-77813553D01*
X115701590Y-77670404D01*
X115701586Y-77670399D01*
X115699024Y-77666491D01*
X115524982Y-77471494D01*
X115324030Y-77304363D01*
X115236755Y-77251403D01*
X115104578Y-77171196D01*
X115104574Y-77171194D01*
X115100581Y-77168771D01*
X114859545Y-77067697D01*
X114606217Y-77003359D01*
X114601566Y-77002891D01*
X114601562Y-77002890D01*
X114392271Y-76981816D01*
X114389133Y-76981500D01*
X114233646Y-76981500D01*
X114231321Y-76981673D01*
X114231315Y-76981673D01*
X114044000Y-76995593D01*
X114043996Y-76995594D01*
X114039348Y-76995939D01*
X114034800Y-76996968D01*
X114034794Y-76996969D01*
X113848399Y-77039147D01*
X113784423Y-77053623D01*
X113780071Y-77055315D01*
X113780069Y-77055316D01*
X113545176Y-77146660D01*
X113545173Y-77146661D01*
X113540823Y-77148353D01*
X113536769Y-77150670D01*
X113536767Y-77150671D01*
X113505099Y-77168771D01*
X113313902Y-77278049D01*
X113108643Y-77439862D01*
X112929557Y-77630237D01*
X112780576Y-77844991D01*
X112778510Y-77849181D01*
X112778508Y-77849184D01*
X112764842Y-77876897D01*
X112664975Y-78079407D01*
X112663553Y-78083850D01*
X112663552Y-78083852D01*
X112643460Y-78146621D01*
X112585293Y-78328335D01*
X112543279Y-78586307D01*
X112539858Y-78847655D01*
X112268500Y-78847655D01*
X112268500Y-78158250D01*
X112270246Y-78137345D01*
X112272770Y-78122344D01*
X112272770Y-78122341D01*
X112273576Y-78117552D01*
X112273729Y-78105000D01*
X112272334Y-78095260D01*
X112271450Y-78067515D01*
X112284915Y-77896426D01*
X112288008Y-77876897D01*
X112334536Y-77683097D01*
X112340646Y-77664294D01*
X112416916Y-77480160D01*
X112425893Y-77462543D01*
X112530027Y-77292613D01*
X112541648Y-77276618D01*
X112671085Y-77125066D01*
X112685066Y-77111085D01*
X112836618Y-76981648D01*
X112852613Y-76970027D01*
X113022543Y-76865893D01*
X113040160Y-76856916D01*
X113224294Y-76780646D01*
X113243097Y-76774536D01*
X113436897Y-76728008D01*
X113456426Y-76724915D01*
X113623987Y-76711728D01*
X113640875Y-76712370D01*
X113640877Y-76712200D01*
X113649853Y-76712310D01*
X113658724Y-76713691D01*
X113667626Y-76712527D01*
X113667628Y-76712527D01*
X113685864Y-76710142D01*
X113690286Y-76709564D01*
X113706621Y-76708500D01*
X119875501Y-76708500D01*
X119943622Y-76728502D01*
G37*
%TD.AperFunction*%
%TD*%
M02*
