%TF.GenerationSoftware,KiCad,Pcbnew,(6.0.10)*%
%TF.CreationDate,2023-01-14T14:38:52-05:00*%
%TF.ProjectId,AS5600-Breakout,41533536-3030-42d4-9272-65616b6f7574,rev?*%
%TF.SameCoordinates,Original*%
%TF.FileFunction,Paste,Top*%
%TF.FilePolarity,Positive*%
%FSLAX46Y46*%
G04 Gerber Fmt 4.6, Leading zero omitted, Abs format (unit mm)*
G04 Created by KiCad (PCBNEW (6.0.10)) date 2023-01-14 14:38:52*
%MOMM*%
%LPD*%
G01*
G04 APERTURE LIST*
G04 Aperture macros list*
%AMRoundRect*
0 Rectangle with rounded corners*
0 $1 Rounding radius*
0 $2 $3 $4 $5 $6 $7 $8 $9 X,Y pos of 4 corners*
0 Add a 4 corners polygon primitive as box body*
4,1,4,$2,$3,$4,$5,$6,$7,$8,$9,$2,$3,0*
0 Add four circle primitives for the rounded corners*
1,1,$1+$1,$2,$3*
1,1,$1+$1,$4,$5*
1,1,$1+$1,$6,$7*
1,1,$1+$1,$8,$9*
0 Add four rect primitives between the rounded corners*
20,1,$1+$1,$2,$3,$4,$5,0*
20,1,$1+$1,$4,$5,$6,$7,0*
20,1,$1+$1,$6,$7,$8,$9,0*
20,1,$1+$1,$8,$9,$2,$3,0*%
G04 Aperture macros list end*
%ADD10RoundRect,0.250000X-0.250000X-0.475000X0.250000X-0.475000X0.250000X0.475000X-0.250000X0.475000X0*%
%ADD11RoundRect,0.218750X0.218750X0.256250X-0.218750X0.256250X-0.218750X-0.256250X0.218750X-0.256250X0*%
%ADD12R,0.600000X1.400000*%
%ADD13RoundRect,0.150000X-0.625000X0.150000X-0.625000X-0.150000X0.625000X-0.150000X0.625000X0.150000X0*%
%ADD14RoundRect,0.250000X-0.650000X0.350000X-0.650000X-0.350000X0.650000X-0.350000X0.650000X0.350000X0*%
%ADD15RoundRect,0.200000X0.275000X-0.200000X0.275000X0.200000X-0.275000X0.200000X-0.275000X-0.200000X0*%
%ADD16RoundRect,0.150000X0.625000X-0.150000X0.625000X0.150000X-0.625000X0.150000X-0.625000X-0.150000X0*%
%ADD17RoundRect,0.250000X0.650000X-0.350000X0.650000X0.350000X-0.650000X0.350000X-0.650000X-0.350000X0*%
%ADD18RoundRect,0.250000X0.250000X0.475000X-0.250000X0.475000X-0.250000X-0.475000X0.250000X-0.475000X0*%
%ADD19RoundRect,0.200000X-0.200000X-0.275000X0.200000X-0.275000X0.200000X0.275000X-0.200000X0.275000X0*%
%ADD20RoundRect,0.150000X-0.150000X0.587500X-0.150000X-0.587500X0.150000X-0.587500X0.150000X0.587500X0*%
%ADD21RoundRect,0.150000X-0.150000X0.512500X-0.150000X-0.512500X0.150000X-0.512500X0.150000X0.512500X0*%
G04 APERTURE END LIST*
D10*
%TO.C,C3*%
X126238000Y-89916000D03*
X128138000Y-89916000D03*
%TD*%
D11*
%TO.C,D1*%
X131369000Y-89662000D03*
X129794000Y-89662000D03*
%TD*%
D12*
%TO.C,U2*%
X122555000Y-87790000D03*
X123825000Y-87790000D03*
X125095000Y-87790000D03*
X126365000Y-87790000D03*
X126365000Y-82390000D03*
X125095000Y-82390000D03*
X123825000Y-82390000D03*
X122555000Y-82390000D03*
%TD*%
D13*
%TO.C,J4*%
X116840000Y-83590000D03*
X116840000Y-84590000D03*
X116840000Y-85590000D03*
X116840000Y-86590000D03*
D14*
X112965000Y-82290000D03*
X112965000Y-87890000D03*
%TD*%
D15*
%TO.C,R2*%
X129840000Y-85724000D03*
X129840000Y-84074000D03*
%TD*%
D16*
%TO.C,J3*%
X132080000Y-86590000D03*
X132080000Y-85590000D03*
X132080000Y-84590000D03*
X132080000Y-83590000D03*
D17*
X135955000Y-82290000D03*
X135955000Y-87890000D03*
%TD*%
D10*
%TO.C,C2*%
X122814000Y-90170000D03*
X124714000Y-90170000D03*
%TD*%
D18*
%TO.C,C1*%
X120696000Y-90170000D03*
X118796000Y-90170000D03*
%TD*%
D19*
%TO.C,R1*%
X128398000Y-87630000D03*
X130048000Y-87630000D03*
%TD*%
D20*
%TO.C,Q2*%
X129855000Y-80342500D03*
X127955000Y-80342500D03*
X128905000Y-82217500D03*
%TD*%
D19*
%TO.C,R5*%
X122048000Y-80264000D03*
X123698000Y-80264000D03*
%TD*%
%TO.C,R3*%
X118997000Y-84328000D03*
X120647000Y-84328000D03*
%TD*%
D21*
%TO.C,U1*%
X120904000Y-86117000D03*
X119954000Y-86117000D03*
X119004000Y-86117000D03*
X119004000Y-88392000D03*
X120904000Y-88392000D03*
%TD*%
D15*
%TO.C,R4*%
X130810000Y-78740000D03*
X130810000Y-77090000D03*
%TD*%
D20*
%TO.C,Q1*%
X120645000Y-80645000D03*
X118745000Y-80645000D03*
X119695000Y-82520000D03*
%TD*%
M02*
