%TF.GenerationSoftware,KiCad,Pcbnew,(6.0.10)*%
%TF.CreationDate,2023-01-14T14:38:52-05:00*%
%TF.ProjectId,AS5600-Breakout,41533536-3030-42d4-9272-65616b6f7574,rev?*%
%TF.SameCoordinates,Original*%
%TF.FileFunction,Legend,Top*%
%TF.FilePolarity,Positive*%
%FSLAX46Y46*%
G04 Gerber Fmt 4.6, Leading zero omitted, Abs format (unit mm)*
G04 Created by KiCad (PCBNEW (6.0.10)) date 2023-01-14 14:38:52*
%MOMM*%
%LPD*%
G01*
G04 APERTURE LIST*
G04 Aperture macros list*
%AMRoundRect*
0 Rectangle with rounded corners*
0 $1 Rounding radius*
0 $2 $3 $4 $5 $6 $7 $8 $9 X,Y pos of 4 corners*
0 Add a 4 corners polygon primitive as box body*
4,1,4,$2,$3,$4,$5,$6,$7,$8,$9,$2,$3,0*
0 Add four circle primitives for the rounded corners*
1,1,$1+$1,$2,$3*
1,1,$1+$1,$4,$5*
1,1,$1+$1,$6,$7*
1,1,$1+$1,$8,$9*
0 Add four rect primitives between the rounded corners*
20,1,$1+$1,$2,$3,$4,$5,0*
20,1,$1+$1,$4,$5,$6,$7,0*
20,1,$1+$1,$6,$7,$8,$9,0*
20,1,$1+$1,$8,$9,$2,$3,0*%
G04 Aperture macros list end*
%ADD10C,0.150000*%
%ADD11C,0.120000*%
%ADD12C,0.127000*%
%ADD13RoundRect,0.250000X-0.250000X-0.475000X0.250000X-0.475000X0.250000X0.475000X-0.250000X0.475000X0*%
%ADD14RoundRect,0.218750X0.218750X0.256250X-0.218750X0.256250X-0.218750X-0.256250X0.218750X-0.256250X0*%
%ADD15R,0.600000X1.400000*%
%ADD16C,2.500000*%
%ADD17RoundRect,0.150000X-0.625000X0.150000X-0.625000X-0.150000X0.625000X-0.150000X0.625000X0.150000X0*%
%ADD18RoundRect,0.250000X-0.650000X0.350000X-0.650000X-0.350000X0.650000X-0.350000X0.650000X0.350000X0*%
%ADD19RoundRect,0.200000X0.275000X-0.200000X0.275000X0.200000X-0.275000X0.200000X-0.275000X-0.200000X0*%
%ADD20RoundRect,0.150000X0.625000X-0.150000X0.625000X0.150000X-0.625000X0.150000X-0.625000X-0.150000X0*%
%ADD21RoundRect,0.250000X0.650000X-0.350000X0.650000X0.350000X-0.650000X0.350000X-0.650000X-0.350000X0*%
%ADD22RoundRect,0.250000X0.250000X0.475000X-0.250000X0.475000X-0.250000X-0.475000X0.250000X-0.475000X0*%
%ADD23R,1.700000X1.700000*%
%ADD24O,1.700000X1.700000*%
%ADD25RoundRect,0.200000X-0.200000X-0.275000X0.200000X-0.275000X0.200000X0.275000X-0.200000X0.275000X0*%
%ADD26RoundRect,0.150000X-0.150000X0.587500X-0.150000X-0.587500X0.150000X-0.587500X0.150000X0.587500X0*%
%ADD27RoundRect,0.150000X-0.150000X0.512500X-0.150000X-0.512500X0.150000X-0.512500X0.150000X0.512500X0*%
G04 APERTURE END LIST*
D10*
%TO.C,C3*%
X127021333Y-88593142D02*
X126973714Y-88640761D01*
X126830857Y-88688380D01*
X126735619Y-88688380D01*
X126592761Y-88640761D01*
X126497523Y-88545523D01*
X126449904Y-88450285D01*
X126402285Y-88259809D01*
X126402285Y-88116952D01*
X126449904Y-87926476D01*
X126497523Y-87831238D01*
X126592761Y-87736000D01*
X126735619Y-87688380D01*
X126830857Y-87688380D01*
X126973714Y-87736000D01*
X127021333Y-87783619D01*
X127354666Y-87688380D02*
X127973714Y-87688380D01*
X127640380Y-88069333D01*
X127783238Y-88069333D01*
X127878476Y-88116952D01*
X127926095Y-88164571D01*
X127973714Y-88259809D01*
X127973714Y-88497904D01*
X127926095Y-88593142D01*
X127878476Y-88640761D01*
X127783238Y-88688380D01*
X127497523Y-88688380D01*
X127402285Y-88640761D01*
X127354666Y-88593142D01*
%TO.C,D1*%
X129843404Y-91544380D02*
X129843404Y-90544380D01*
X130081500Y-90544380D01*
X130224357Y-90592000D01*
X130319595Y-90687238D01*
X130367214Y-90782476D01*
X130414833Y-90972952D01*
X130414833Y-91115809D01*
X130367214Y-91306285D01*
X130319595Y-91401523D01*
X130224357Y-91496761D01*
X130081500Y-91544380D01*
X129843404Y-91544380D01*
X131367214Y-91544380D02*
X130795785Y-91544380D01*
X131081500Y-91544380D02*
X131081500Y-90544380D01*
X130986261Y-90687238D01*
X130891023Y-90782476D01*
X130795785Y-90830095D01*
%TO.C,U2*%
X120688166Y-84389166D02*
X120688166Y-84955833D01*
X120721500Y-85022500D01*
X120754833Y-85055833D01*
X120821500Y-85089166D01*
X120954833Y-85089166D01*
X121021500Y-85055833D01*
X121054833Y-85022500D01*
X121088166Y-84955833D01*
X121088166Y-84389166D01*
X121388166Y-84455833D02*
X121421500Y-84422500D01*
X121488166Y-84389166D01*
X121654833Y-84389166D01*
X121721500Y-84422500D01*
X121754833Y-84455833D01*
X121788166Y-84522500D01*
X121788166Y-84589166D01*
X121754833Y-84689166D01*
X121354833Y-85089166D01*
X121788166Y-85089166D01*
%TO.C,H4*%
X113538095Y-88392380D02*
X113538095Y-87392380D01*
X113538095Y-87868571D02*
X114109523Y-87868571D01*
X114109523Y-88392380D02*
X114109523Y-87392380D01*
X115014285Y-87725714D02*
X115014285Y-88392380D01*
X114776190Y-87344761D02*
X114538095Y-88059047D01*
X115157142Y-88059047D01*
%TO.C,H3*%
X113538095Y-75692380D02*
X113538095Y-74692380D01*
X113538095Y-75168571D02*
X114109523Y-75168571D01*
X114109523Y-75692380D02*
X114109523Y-74692380D01*
X114490476Y-74692380D02*
X115109523Y-74692380D01*
X114776190Y-75073333D01*
X114919047Y-75073333D01*
X115014285Y-75120952D01*
X115061904Y-75168571D01*
X115109523Y-75263809D01*
X115109523Y-75501904D01*
X115061904Y-75597142D01*
X115014285Y-75644761D01*
X114919047Y-75692380D01*
X114633333Y-75692380D01*
X114538095Y-75644761D01*
X114490476Y-75597142D01*
%TO.C,J4*%
X118272380Y-85423333D02*
X118986666Y-85423333D01*
X119129523Y-85470952D01*
X119224761Y-85566190D01*
X119272380Y-85709047D01*
X119272380Y-85804285D01*
X118605714Y-84518571D02*
X119272380Y-84518571D01*
X118224761Y-84756666D02*
X118939047Y-84994761D01*
X118939047Y-84375714D01*
%TO.C,R2*%
X128862380Y-85065666D02*
X128386190Y-85399000D01*
X128862380Y-85637095D02*
X127862380Y-85637095D01*
X127862380Y-85256142D01*
X127910000Y-85160904D01*
X127957619Y-85113285D01*
X128052857Y-85065666D01*
X128195714Y-85065666D01*
X128290952Y-85113285D01*
X128338571Y-85160904D01*
X128386190Y-85256142D01*
X128386190Y-85637095D01*
X127957619Y-84684714D02*
X127910000Y-84637095D01*
X127862380Y-84541857D01*
X127862380Y-84303761D01*
X127910000Y-84208523D01*
X127957619Y-84160904D01*
X128052857Y-84113285D01*
X128148095Y-84113285D01*
X128290952Y-84160904D01*
X128862380Y-84732333D01*
X128862380Y-84113285D01*
%TO.C,J3*%
X129552380Y-85423333D02*
X130266666Y-85423333D01*
X130409523Y-85470952D01*
X130504761Y-85566190D01*
X130552380Y-85709047D01*
X130552380Y-85804285D01*
X129552380Y-85042380D02*
X129552380Y-84423333D01*
X129933333Y-84756666D01*
X129933333Y-84613809D01*
X129980952Y-84518571D01*
X130028571Y-84470952D01*
X130123809Y-84423333D01*
X130361904Y-84423333D01*
X130457142Y-84470952D01*
X130504761Y-84518571D01*
X130552380Y-84613809D01*
X130552380Y-84899523D01*
X130504761Y-84994761D01*
X130457142Y-85042380D01*
%TO.C,H2*%
X133858095Y-75692380D02*
X133858095Y-74692380D01*
X133858095Y-75168571D02*
X134429523Y-75168571D01*
X134429523Y-75692380D02*
X134429523Y-74692380D01*
X134858095Y-74787619D02*
X134905714Y-74740000D01*
X135000952Y-74692380D01*
X135239047Y-74692380D01*
X135334285Y-74740000D01*
X135381904Y-74787619D01*
X135429523Y-74882857D01*
X135429523Y-74978095D01*
X135381904Y-75120952D01*
X134810476Y-75692380D01*
X135429523Y-75692380D01*
%TO.C,C2*%
X123597333Y-88847142D02*
X123549714Y-88894761D01*
X123406857Y-88942380D01*
X123311619Y-88942380D01*
X123168761Y-88894761D01*
X123073523Y-88799523D01*
X123025904Y-88704285D01*
X122978285Y-88513809D01*
X122978285Y-88370952D01*
X123025904Y-88180476D01*
X123073523Y-88085238D01*
X123168761Y-87990000D01*
X123311619Y-87942380D01*
X123406857Y-87942380D01*
X123549714Y-87990000D01*
X123597333Y-88037619D01*
X123978285Y-88037619D02*
X124025904Y-87990000D01*
X124121142Y-87942380D01*
X124359238Y-87942380D01*
X124454476Y-87990000D01*
X124502095Y-88037619D01*
X124549714Y-88132857D01*
X124549714Y-88228095D01*
X124502095Y-88370952D01*
X123930666Y-88942380D01*
X124549714Y-88942380D01*
%TO.C,C1*%
X119579333Y-92207142D02*
X119531714Y-92254761D01*
X119388857Y-92302380D01*
X119293619Y-92302380D01*
X119150761Y-92254761D01*
X119055523Y-92159523D01*
X119007904Y-92064285D01*
X118960285Y-91873809D01*
X118960285Y-91730952D01*
X119007904Y-91540476D01*
X119055523Y-91445238D01*
X119150761Y-91350000D01*
X119293619Y-91302380D01*
X119388857Y-91302380D01*
X119531714Y-91350000D01*
X119579333Y-91397619D01*
X120531714Y-92302380D02*
X119960285Y-92302380D01*
X120246000Y-92302380D02*
X120246000Y-91302380D01*
X120150761Y-91445238D01*
X120055523Y-91540476D01*
X119960285Y-91588095D01*
%TO.C,J2*%
X130052380Y-78438333D02*
X130766666Y-78438333D01*
X130909523Y-78485952D01*
X131004761Y-78581190D01*
X131052380Y-78724047D01*
X131052380Y-78819285D01*
X130147619Y-78009761D02*
X130100000Y-77962142D01*
X130052380Y-77866904D01*
X130052380Y-77628809D01*
X130100000Y-77533571D01*
X130147619Y-77485952D01*
X130242857Y-77438333D01*
X130338095Y-77438333D01*
X130480952Y-77485952D01*
X131052380Y-78057380D01*
X131052380Y-77438333D01*
%TO.C,R1*%
X129056333Y-86652380D02*
X128723000Y-86176190D01*
X128484904Y-86652380D02*
X128484904Y-85652380D01*
X128865857Y-85652380D01*
X128961095Y-85700000D01*
X129008714Y-85747619D01*
X129056333Y-85842857D01*
X129056333Y-85985714D01*
X129008714Y-86080952D01*
X128961095Y-86128571D01*
X128865857Y-86176190D01*
X128484904Y-86176190D01*
X130008714Y-86652380D02*
X129437285Y-86652380D01*
X129723000Y-86652380D02*
X129723000Y-85652380D01*
X129627761Y-85795238D01*
X129532523Y-85890476D01*
X129437285Y-85938095D01*
%TO.C,Q2*%
X131852619Y-81375238D02*
X131805000Y-81470476D01*
X131709761Y-81565714D01*
X131566904Y-81708571D01*
X131519285Y-81803809D01*
X131519285Y-81899047D01*
X131757380Y-81851428D02*
X131709761Y-81946666D01*
X131614523Y-82041904D01*
X131424047Y-82089523D01*
X131090714Y-82089523D01*
X130900238Y-82041904D01*
X130805000Y-81946666D01*
X130757380Y-81851428D01*
X130757380Y-81660952D01*
X130805000Y-81565714D01*
X130900238Y-81470476D01*
X131090714Y-81422857D01*
X131424047Y-81422857D01*
X131614523Y-81470476D01*
X131709761Y-81565714D01*
X131757380Y-81660952D01*
X131757380Y-81851428D01*
X130852619Y-81041904D02*
X130805000Y-80994285D01*
X130757380Y-80899047D01*
X130757380Y-80660952D01*
X130805000Y-80565714D01*
X130852619Y-80518095D01*
X130947857Y-80470476D01*
X131043095Y-80470476D01*
X131185952Y-80518095D01*
X131757380Y-81089523D01*
X131757380Y-80470476D01*
%TO.C,H1*%
X133858095Y-88392380D02*
X133858095Y-87392380D01*
X133858095Y-87868571D02*
X134429523Y-87868571D01*
X134429523Y-88392380D02*
X134429523Y-87392380D01*
X135429523Y-88392380D02*
X134858095Y-88392380D01*
X135143809Y-88392380D02*
X135143809Y-87392380D01*
X135048571Y-87535238D01*
X134953333Y-87630476D01*
X134858095Y-87678095D01*
%TO.C,R5*%
X122706333Y-79286380D02*
X122373000Y-78810190D01*
X122134904Y-79286380D02*
X122134904Y-78286380D01*
X122515857Y-78286380D01*
X122611095Y-78334000D01*
X122658714Y-78381619D01*
X122706333Y-78476857D01*
X122706333Y-78619714D01*
X122658714Y-78714952D01*
X122611095Y-78762571D01*
X122515857Y-78810190D01*
X122134904Y-78810190D01*
X123611095Y-78286380D02*
X123134904Y-78286380D01*
X123087285Y-78762571D01*
X123134904Y-78714952D01*
X123230142Y-78667333D01*
X123468238Y-78667333D01*
X123563476Y-78714952D01*
X123611095Y-78762571D01*
X123658714Y-78857809D01*
X123658714Y-79095904D01*
X123611095Y-79191142D01*
X123563476Y-79238761D01*
X123468238Y-79286380D01*
X123230142Y-79286380D01*
X123134904Y-79238761D01*
X123087285Y-79191142D01*
%TO.C,R3*%
X119655333Y-83350380D02*
X119322000Y-82874190D01*
X119083904Y-83350380D02*
X119083904Y-82350380D01*
X119464857Y-82350380D01*
X119560095Y-82398000D01*
X119607714Y-82445619D01*
X119655333Y-82540857D01*
X119655333Y-82683714D01*
X119607714Y-82778952D01*
X119560095Y-82826571D01*
X119464857Y-82874190D01*
X119083904Y-82874190D01*
X119988666Y-82350380D02*
X120607714Y-82350380D01*
X120274380Y-82731333D01*
X120417238Y-82731333D01*
X120512476Y-82778952D01*
X120560095Y-82826571D01*
X120607714Y-82921809D01*
X120607714Y-83159904D01*
X120560095Y-83255142D01*
X120512476Y-83302761D01*
X120417238Y-83350380D01*
X120131523Y-83350380D01*
X120036285Y-83302761D01*
X119988666Y-83255142D01*
%TO.C,U1*%
X121806380Y-88016404D02*
X122615904Y-88016404D01*
X122711142Y-87968785D01*
X122758761Y-87921166D01*
X122806380Y-87825928D01*
X122806380Y-87635452D01*
X122758761Y-87540214D01*
X122711142Y-87492595D01*
X122615904Y-87444976D01*
X121806380Y-87444976D01*
X122806380Y-86444976D02*
X122806380Y-87016404D01*
X122806380Y-86730690D02*
X121806380Y-86730690D01*
X121949238Y-86825928D01*
X122044476Y-86921166D01*
X122092095Y-87016404D01*
%TO.C,R4*%
X129832380Y-78081666D02*
X129356190Y-78415000D01*
X129832380Y-78653095D02*
X128832380Y-78653095D01*
X128832380Y-78272142D01*
X128880000Y-78176904D01*
X128927619Y-78129285D01*
X129022857Y-78081666D01*
X129165714Y-78081666D01*
X129260952Y-78129285D01*
X129308571Y-78176904D01*
X129356190Y-78272142D01*
X129356190Y-78653095D01*
X129165714Y-77224523D02*
X129832380Y-77224523D01*
X128784761Y-77462619D02*
X129499047Y-77700714D01*
X129499047Y-77081666D01*
%TO.C,Q1*%
X122642619Y-81677738D02*
X122595000Y-81772976D01*
X122499761Y-81868214D01*
X122356904Y-82011071D01*
X122309285Y-82106309D01*
X122309285Y-82201547D01*
X122547380Y-82153928D02*
X122499761Y-82249166D01*
X122404523Y-82344404D01*
X122214047Y-82392023D01*
X121880714Y-82392023D01*
X121690238Y-82344404D01*
X121595000Y-82249166D01*
X121547380Y-82153928D01*
X121547380Y-81963452D01*
X121595000Y-81868214D01*
X121690238Y-81772976D01*
X121880714Y-81725357D01*
X122214047Y-81725357D01*
X122404523Y-81772976D01*
X122499761Y-81868214D01*
X122547380Y-81963452D01*
X122547380Y-82153928D01*
X122547380Y-80772976D02*
X122547380Y-81344404D01*
X122547380Y-81058690D02*
X121547380Y-81058690D01*
X121690238Y-81153928D01*
X121785476Y-81249166D01*
X121833095Y-81344404D01*
%TO.C,J1*%
X117772380Y-92789333D02*
X118486666Y-92789333D01*
X118629523Y-92836952D01*
X118724761Y-92932190D01*
X118772380Y-93075047D01*
X118772380Y-93170285D01*
X118772380Y-91789333D02*
X118772380Y-92360761D01*
X118772380Y-92075047D02*
X117772380Y-92075047D01*
X117915238Y-92170285D01*
X118010476Y-92265523D01*
X118058095Y-92360761D01*
D11*
%TO.C,C3*%
X126926748Y-89181000D02*
X127449252Y-89181000D01*
X126926748Y-90651000D02*
X127449252Y-90651000D01*
%TO.C,D1*%
X132066500Y-90397000D02*
X132066500Y-88927000D01*
X132066500Y-88927000D02*
X129781500Y-88927000D01*
X129781500Y-90397000D02*
X132066500Y-90397000D01*
D12*
%TO.C,U2*%
X121960000Y-87090000D02*
X121960000Y-83090000D01*
X126960000Y-83090000D02*
X126960000Y-87090000D01*
D11*
%TO.C,J4*%
X116625000Y-81980000D02*
X116625000Y-83030000D01*
X112155000Y-83150000D02*
X112155000Y-87030000D01*
X114125000Y-88200000D02*
X116625000Y-88200000D01*
X116625000Y-88200000D02*
X116625000Y-87150000D01*
X114125000Y-81980000D02*
X116625000Y-81980000D01*
X116625000Y-83030000D02*
X117615000Y-83030000D01*
%TO.C,R2*%
X129317500Y-85136258D02*
X129317500Y-84661742D01*
X130362500Y-85136258D02*
X130362500Y-84661742D01*
%TO.C,J3*%
X134795000Y-88200000D02*
X132295000Y-88200000D01*
X132295000Y-87150000D02*
X131305000Y-87150000D01*
X132295000Y-81980000D02*
X132295000Y-83030000D01*
X132295000Y-88200000D02*
X132295000Y-87150000D01*
X134795000Y-81980000D02*
X132295000Y-81980000D01*
X136765000Y-87030000D02*
X136765000Y-83150000D01*
%TO.C,C2*%
X123502748Y-89435000D02*
X124025252Y-89435000D01*
X123502748Y-90905000D02*
X124025252Y-90905000D01*
%TO.C,C1*%
X120007252Y-90905000D02*
X119484748Y-90905000D01*
X120007252Y-89435000D02*
X119484748Y-89435000D01*
%TO.C,J2*%
X128270000Y-76775000D02*
X129600000Y-76775000D01*
X127000000Y-79435000D02*
X119320000Y-79435000D01*
X119320000Y-76775000D02*
X119320000Y-79435000D01*
X127000000Y-76775000D02*
X119320000Y-76775000D01*
X129600000Y-76775000D02*
X129600000Y-78105000D01*
X127000000Y-76775000D02*
X127000000Y-79435000D01*
%TO.C,R1*%
X128985742Y-87107500D02*
X129460258Y-87107500D01*
X128985742Y-88152500D02*
X129460258Y-88152500D01*
%TO.C,Q2*%
X130465000Y-81280000D02*
X130465000Y-81930000D01*
X127345000Y-81280000D02*
X127345000Y-81930000D01*
X127345000Y-81280000D02*
X127345000Y-80630000D01*
X130465000Y-81280000D02*
X130465000Y-79605000D01*
%TO.C,R5*%
X122635742Y-79741500D02*
X123110258Y-79741500D01*
X122635742Y-80786500D02*
X123110258Y-80786500D01*
%TO.C,R3*%
X119584742Y-84850500D02*
X120059258Y-84850500D01*
X119584742Y-83805500D02*
X120059258Y-83805500D01*
%TO.C,U1*%
X118394000Y-87254500D02*
X118394000Y-88054500D01*
X118394000Y-87254500D02*
X118394000Y-86454500D01*
X121514000Y-87254500D02*
X121514000Y-85454500D01*
X121514000Y-87254500D02*
X121514000Y-88054500D01*
%TO.C,R4*%
X130287500Y-78152258D02*
X130287500Y-77677742D01*
X131332500Y-78152258D02*
X131332500Y-77677742D01*
%TO.C,Q1*%
X121255000Y-81582500D02*
X121255000Y-82232500D01*
X121255000Y-81582500D02*
X121255000Y-79907500D01*
X118135000Y-81582500D02*
X118135000Y-80932500D01*
X118135000Y-81582500D02*
X118135000Y-82232500D01*
%TO.C,J1*%
X121920000Y-93786000D02*
X129600000Y-93786000D01*
X120650000Y-93786000D02*
X119320000Y-93786000D01*
X119320000Y-93786000D02*
X119320000Y-92456000D01*
X121920000Y-91126000D02*
X129600000Y-91126000D01*
X121920000Y-93786000D02*
X121920000Y-91126000D01*
X129600000Y-93786000D02*
X129600000Y-91126000D01*
%TD*%
%LPC*%
D13*
%TO.C,C3*%
X126238000Y-89916000D03*
X128138000Y-89916000D03*
%TD*%
D14*
%TO.C,D1*%
X131369000Y-89662000D03*
X129794000Y-89662000D03*
%TD*%
D15*
%TO.C,U2*%
X122555000Y-87790000D03*
X123825000Y-87790000D03*
X125095000Y-87790000D03*
X126365000Y-87790000D03*
X126365000Y-82390000D03*
X125095000Y-82390000D03*
X123825000Y-82390000D03*
X122555000Y-82390000D03*
%TD*%
D16*
%TO.C,H4*%
X114300000Y-91440000D03*
%TD*%
%TO.C,H3*%
X114300000Y-78740000D03*
%TD*%
D17*
%TO.C,J4*%
X116840000Y-83590000D03*
X116840000Y-84590000D03*
X116840000Y-85590000D03*
X116840000Y-86590000D03*
D18*
X112965000Y-82290000D03*
X112965000Y-87890000D03*
%TD*%
D19*
%TO.C,R2*%
X129840000Y-85724000D03*
X129840000Y-84074000D03*
%TD*%
D20*
%TO.C,J3*%
X132080000Y-86590000D03*
X132080000Y-85590000D03*
X132080000Y-84590000D03*
X132080000Y-83590000D03*
D21*
X135955000Y-82290000D03*
X135955000Y-87890000D03*
%TD*%
D16*
%TO.C,H2*%
X134620000Y-78740000D03*
%TD*%
D13*
%TO.C,C2*%
X122814000Y-90170000D03*
X124714000Y-90170000D03*
%TD*%
D22*
%TO.C,C1*%
X120696000Y-90170000D03*
X118796000Y-90170000D03*
%TD*%
D23*
%TO.C,J2*%
X128270000Y-78105000D03*
D24*
X125730000Y-78105000D03*
X123190000Y-78105000D03*
X120650000Y-78105000D03*
%TD*%
D25*
%TO.C,R1*%
X128398000Y-87630000D03*
X130048000Y-87630000D03*
%TD*%
D26*
%TO.C,Q2*%
X129855000Y-80342500D03*
X127955000Y-80342500D03*
X128905000Y-82217500D03*
%TD*%
D16*
%TO.C,H1*%
X134620000Y-91440000D03*
%TD*%
D25*
%TO.C,R5*%
X122048000Y-80264000D03*
X123698000Y-80264000D03*
%TD*%
%TO.C,R3*%
X118997000Y-84328000D03*
X120647000Y-84328000D03*
%TD*%
D27*
%TO.C,U1*%
X120904000Y-86117000D03*
X119954000Y-86117000D03*
X119004000Y-86117000D03*
X119004000Y-88392000D03*
X120904000Y-88392000D03*
%TD*%
D19*
%TO.C,R4*%
X130810000Y-78740000D03*
X130810000Y-77090000D03*
%TD*%
D26*
%TO.C,Q1*%
X120645000Y-80645000D03*
X118745000Y-80645000D03*
X119695000Y-82520000D03*
%TD*%
D23*
%TO.C,J1*%
X120650000Y-92456000D03*
D24*
X123190000Y-92456000D03*
X125730000Y-92456000D03*
X128270000Y-92456000D03*
%TD*%
M02*
